<?xml version="1.0" encoding="utf-8" standalone="no"?>
<!DOCTYPE svg PUBLIC "-//W3C//DTD SVG 1.1//EN"
  "http://www.w3.org/Graphics/SVG/1.1/DTD/svg11.dtd">
<svg xmlns:xlink="http://www.w3.org/1999/xlink" width="576pt" height="432pt" viewBox="0 0 576 432" xmlns="http://www.w3.org/2000/svg" version="1.1">
 <metadata>
  <rdf:RDF xmlns:dc="http://purl.org/dc/elements/1.1/" xmlns:cc="http://creativecommons.org/ns#" xmlns:rdf="http://www.w3.org/1999/02/22-rdf-syntax-ns#">
   <cc:Work>
    <dc:type rdf:resource="http://purl.org/dc/dcmitype/StillImage"/>
    <dc:date>2026-06-14T08:12:50.212155</dc:date>
    <dc:format>image/svg+xml</dc:format>
    <dc:creator>
     <cc:Agent>
      <dc:title>Matplotlib v3.11.0, https://matplotlib.org/</dc:title>
     </cc:Agent>
    </dc:creator>
   </cc:Work>
  </rdf:RDF>
 </metadata>
 <defs>
  <style type="text/css">*{stroke-linejoin: round; stroke-linecap: butt}</style>
 </defs>
 <g id="figure_1">
  <g id="patch_1">
   <path d="M 0 432 
L 576 432 
L 576 0 
L 0 0 
z
" style="fill: #ffffff"/>
  </g>
  <g id="axes_1">
   <g id="patch_2">
    <path d="M 72 302.4 
L 518.4 302.4 
L 518.4 51.84 
L 72 51.84 
z
" style="fill: #ffffff"/>
   </g>
   <g id="matplotlib.axis_1">
    <g id="xtick_1">
     <g id="line2d_1">
      <defs>
       <path id="m319d27c03b" d="M 0 0 
L 0 3.5 
" style="stroke: #000000; stroke-width: 0.8"/>
      </defs>
      <g>
       <use xlink:href="#m319d27c03b" x="108.203042" y="302.4" style="stroke: #000000; stroke-width: 0.8"/>
      </g>
     </g>
     <g id="text_1">
      <!-- 2004 -->
      <g transform="translate(93.184292 318.15) scale(0.1 -0.1)">
       <defs>
        <path id="HelveticaNowMicro-Regular-15" d="M 634 0 
Q 634 627 928 1078 
Q 1222 1530 1882 1926 
L 2656 2400 
Q 3059 2643 3248 2886 
Q 3437 3130 3437 3494 
Q 3437 3936 3174 4182 
Q 2912 4429 2413 4429 
Q 1914 4429 1645 4169 
Q 1376 3910 1376 3430 
L 1376 3347 
L 736 3347 
L 736 3411 
Q 736 3776 851 4070 
Q 966 4365 1184 4576 
Q 1402 4787 1715 4899 
Q 2029 5011 2426 5011 
Q 2797 5011 3101 4912 
Q 3405 4813 3622 4621 
Q 3840 4429 3961 4150 
Q 4083 3872 4083 3507 
Q 4083 3270 4022 3056 
Q 3962 2842 3824 2640 
Q 3686 2438 3462 2246 
Q 3238 2054 2912 1862 
L 2445 1587 
Q 2189 1434 2009 1312 
Q 1830 1190 1715 1075 
Q 1600 960 1539 845 
Q 1478 730 1466 595 
L 4173 595 
L 4173 0 
L 634 0 
z
" transform="scale(0.015625)"/>
        <path id="HelveticaNowMicro-Regular-13" d="M 2406 -102 
Q 1478 -102 1001 538 
Q 525 1178 525 2458 
Q 525 3738 1001 4374 
Q 1478 5011 2406 5011 
Q 3328 5011 3805 4374 
Q 4282 3738 4282 2458 
Q 4282 1178 3805 538 
Q 3328 -102 2406 -102 
z
M 2406 454 
Q 2739 454 2972 588 
Q 3206 723 3356 982 
Q 3507 1242 3574 1613 
Q 3642 1984 3642 2458 
Q 3642 2931 3574 3302 
Q 3507 3674 3356 3933 
Q 3206 4192 2972 4326 
Q 2739 4461 2406 4461 
Q 2074 4461 1840 4326 
Q 1606 4192 1456 3933 
Q 1306 3674 1238 3302 
Q 1171 2931 1171 2458 
Q 1171 1984 1238 1613 
Q 1306 1242 1456 982 
Q 1606 723 1840 588 
Q 2074 454 2406 454 
z
" transform="scale(0.015625)"/>
        <path id="HelveticaNowMicro-Regular-17" d="M 4326 1734 
L 4326 1210 
L 3565 1280 
L 3565 0 
L 2957 0 
L 2957 1280 
L 493 1210 
L 493 1677 
L 2573 4915 
L 3565 4915 
L 3565 1670 
L 4326 1734 
z
M 2957 4486 
L 2938 4486 
L 1171 1728 
L 2957 1670 
L 2957 4486 
z
" transform="scale(0.015625)"/>
       </defs>
       <use xlink:href="#HelveticaNowMicro-Regular-15"/>
       <use xlink:href="#HelveticaNowMicro-Regular-13" transform="translate(75.09375 0)"/>
       <use xlink:href="#HelveticaNowMicro-Regular-13" transform="translate(150.1875 0)"/>
       <use xlink:href="#HelveticaNowMicro-Regular-17" transform="translate(225.28125 0)"/>
      </g>
     </g>
    </g>
    <g id="xtick_2">
     <g id="line2d_2">
      <g>
       <use xlink:href="#m319d27c03b" x="167.266058" y="302.4" style="stroke: #000000; stroke-width: 0.8"/>
      </g>
     </g>
     <g id="text_2">
      <!-- 2007 -->
      <g transform="translate(152.687152 318.15) scale(0.1 -0.1)">
       <defs>
        <path id="HelveticaNowMicro-Regular-1a" d="M 1498 0 
Q 1677 1312 2157 2387 
Q 2637 3462 3334 4294 
L 627 4294 
L 627 4915 
L 4186 4915 
L 4186 4435 
Q 3283 3533 2793 2425 
Q 2304 1318 2170 0 
L 1498 0 
z
" transform="scale(0.015625)"/>
       </defs>
       <use xlink:href="#HelveticaNowMicro-Regular-15"/>
       <use xlink:href="#HelveticaNowMicro-Regular-13" transform="translate(75.09375 0)"/>
       <use xlink:href="#HelveticaNowMicro-Regular-13" transform="translate(150.1875 0)"/>
       <use xlink:href="#HelveticaNowMicro-Regular-1a" transform="translate(216.484375 0)"/>
      </g>
     </g>
    </g>
    <g id="xtick_3">
     <g id="line2d_3">
      <g>
       <use xlink:href="#m319d27c03b" x="226.329074" y="302.4" style="stroke: #000000; stroke-width: 0.8"/>
      </g>
     </g>
     <g id="text_3">
      <!-- 2010 -->
      <g transform="translate(212.404856 318.15) scale(0.1 -0.1)">
       <defs>
        <path id="HelveticaNowMicro-Regular-14" d="M 1632 3482 
L 371 3482 
L 371 3949 
L 435 3949 
Q 736 3949 960 4003 
Q 1184 4058 1344 4186 
Q 1606 4390 1683 4838 
L 1696 4915 
L 2291 4915 
L 2291 0 
L 1632 0 
L 1632 3482 
z
" transform="scale(0.015625)"/>
       </defs>
       <use xlink:href="#HelveticaNowMicro-Regular-15"/>
       <use xlink:href="#HelveticaNowMicro-Regular-13" transform="translate(75.09375 0)"/>
       <use xlink:href="#HelveticaNowMicro-Regular-14" transform="translate(150.1875 0)"/>
       <use xlink:href="#HelveticaNowMicro-Regular-13" transform="translate(203.390625 0)"/>
      </g>
     </g>
    </g>
    <g id="xtick_4">
     <g id="line2d_4">
      <g>
       <use xlink:href="#m319d27c03b" x="285.39209" y="302.4" style="stroke: #000000; stroke-width: 0.8"/>
      </g>
     </g>
     <g id="text_4">
      <!-- 2013 -->
      <g transform="translate(271.467872 318.15) scale(0.1 -0.1)">
       <defs>
        <path id="HelveticaNowMicro-Regular-16" d="M 2400 -90 
Q 1619 -90 1158 300 
Q 698 691 627 1440 
L 1286 1498 
Q 1389 467 2426 467 
Q 2995 467 3260 732 
Q 3526 998 3526 1402 
Q 3526 1850 3244 2093 
Q 2963 2336 2438 2336 
L 1978 2336 
L 1978 2880 
L 2432 2880 
Q 2874 2880 3114 3097 
Q 3354 3315 3354 3680 
Q 3354 4083 3085 4281 
Q 2816 4480 2374 4480 
Q 1869 4480 1609 4230 
Q 1350 3981 1286 3546 
L 659 3610 
Q 742 4288 1171 4659 
Q 1600 5030 2374 5030 
Q 2758 5030 3059 4937 
Q 3360 4845 3568 4675 
Q 3776 4506 3885 4266 
Q 3994 4026 3994 3738 
Q 3994 3347 3808 3081 
Q 3622 2816 3200 2662 
L 3200 2650 
Q 3718 2534 3948 2208 
Q 4179 1882 4179 1408 
Q 4179 1056 4051 777 
Q 3923 499 3689 307 
Q 3456 115 3126 12 
Q 2797 -90 2400 -90 
z
" transform="scale(0.015625)"/>
       </defs>
       <use xlink:href="#HelveticaNowMicro-Regular-15"/>
       <use xlink:href="#HelveticaNowMicro-Regular-13" transform="translate(75.09375 0)"/>
       <use xlink:href="#HelveticaNowMicro-Regular-14" transform="translate(150.1875 0)"/>
       <use xlink:href="#HelveticaNowMicro-Regular-16" transform="translate(203.390625 0)"/>
      </g>
     </g>
    </g>
    <g id="xtick_5">
     <g id="line2d_5">
      <g>
       <use xlink:href="#m319d27c03b" x="344.401217" y="302.4" style="stroke: #000000; stroke-width: 0.8"/>
      </g>
     </g>
     <g id="text_5">
      <!-- 2016 -->
      <g transform="translate(330.476998 318.15) scale(0.1 -0.1)">
       <defs>
        <path id="HelveticaNowMicro-Regular-19" d="M 2592 3174 
Q 2950 3174 3244 3062 
Q 3539 2950 3750 2739 
Q 3962 2528 4080 2230 
Q 4198 1933 4198 1555 
Q 4198 1184 4080 880 
Q 3962 576 3741 358 
Q 3520 141 3200 19 
Q 2880 -102 2477 -102 
Q 2048 -102 1702 51 
Q 1357 205 1082 531 
Q 960 678 870 848 
Q 781 1018 723 1222 
Q 666 1427 640 1680 
Q 614 1933 614 2246 
Q 614 2816 700 3318 
Q 787 3821 1004 4198 
Q 1222 4576 1593 4793 
Q 1965 5011 2534 5011 
Q 3174 5011 3593 4736 
Q 4013 4461 4147 3949 
L 3501 3853 
Q 3430 4122 3200 4301 
Q 2970 4480 2522 4480 
Q 2227 4480 1996 4377 
Q 1766 4275 1603 4044 
Q 1440 3814 1353 3440 
Q 1267 3066 1254 2522 
Q 1459 2848 1808 3011 
Q 2157 3174 2592 3174 
z
M 2483 448 
Q 2976 448 3267 729 
Q 3558 1011 3558 1523 
Q 3558 2042 3270 2342 
Q 2982 2643 2490 2643 
Q 2061 2643 1725 2396 
Q 1389 2150 1280 1645 
Q 1312 1318 1389 1139 
Q 1466 960 1594 826 
Q 1786 614 2016 531 
Q 2246 448 2483 448 
z
" transform="scale(0.015625)"/>
       </defs>
       <use xlink:href="#HelveticaNowMicro-Regular-15"/>
       <use xlink:href="#HelveticaNowMicro-Regular-13" transform="translate(75.09375 0)"/>
       <use xlink:href="#HelveticaNowMicro-Regular-14" transform="translate(150.1875 0)"/>
       <use xlink:href="#HelveticaNowMicro-Regular-19" transform="translate(203.390625 0)"/>
      </g>
     </g>
    </g>
    <g id="xtick_6">
     <g id="line2d_6">
      <g>
       <use xlink:href="#m319d27c03b" x="403.464233" y="302.4" style="stroke: #000000; stroke-width: 0.8"/>
      </g>
     </g>
     <g id="text_6">
      <!-- 2019 -->
      <g transform="translate(389.540014 318.15) scale(0.1 -0.1)">
       <defs>
        <path id="HelveticaNowMicro-Regular-1c" d="M 3725 4384 
Q 3853 4237 3942 4067 
Q 4032 3898 4089 3693 
Q 4147 3488 4172 3238 
Q 4198 2989 4198 2669 
Q 4198 2099 4112 1596 
Q 4026 1094 3808 716 
Q 3590 339 3219 121 
Q 2848 -96 2278 -96 
Q 1638 -96 1219 179 
Q 800 454 659 966 
L 1306 1062 
Q 1376 794 1606 614 
Q 1837 435 2285 435 
Q 2586 435 2816 537 
Q 3046 640 3209 873 
Q 3373 1107 3462 1481 
Q 3552 1856 3558 2400 
Q 3347 2074 3004 1907 
Q 2662 1741 2221 1741 
Q 1862 1741 1564 1853 
Q 1267 1965 1056 2176 
Q 845 2387 729 2688 
Q 614 2989 614 3360 
Q 614 3731 729 4035 
Q 845 4339 1065 4556 
Q 1286 4774 1606 4896 
Q 1926 5018 2330 5018 
Q 2765 5018 3107 4864 
Q 3450 4710 3725 4384 
z
M 2317 2272 
Q 2752 2272 3091 2525 
Q 3430 2778 3533 3290 
Q 3501 3603 3421 3779 
Q 3341 3955 3213 4090 
Q 3021 4301 2793 4384 
Q 2566 4467 2323 4467 
Q 1830 4467 1539 4185 
Q 1248 3904 1248 3392 
Q 1248 2874 1539 2573 
Q 1830 2272 2317 2272 
z
" transform="scale(0.015625)"/>
       </defs>
       <use xlink:href="#HelveticaNowMicro-Regular-15"/>
       <use xlink:href="#HelveticaNowMicro-Regular-13" transform="translate(75.09375 0)"/>
       <use xlink:href="#HelveticaNowMicro-Regular-14" transform="translate(150.1875 0)"/>
       <use xlink:href="#HelveticaNowMicro-Regular-1c" transform="translate(203.390625 0)"/>
      </g>
     </g>
    </g>
    <g id="xtick_7">
     <g id="line2d_7">
      <g>
       <use xlink:href="#m319d27c03b" x="462.527249" y="302.4" style="stroke: #000000; stroke-width: 0.8"/>
      </g>
     </g>
     <g id="text_7">
      <!-- 2022 -->
      <g transform="translate(447.508499 318.15) scale(0.1 -0.1)">
       <use xlink:href="#HelveticaNowMicro-Regular-15"/>
       <use xlink:href="#HelveticaNowMicro-Regular-13" transform="translate(75.09375 0)"/>
       <use xlink:href="#HelveticaNowMicro-Regular-15" transform="translate(150.1875 0)"/>
       <use xlink:href="#HelveticaNowMicro-Regular-15" transform="translate(225.28125 0)"/>
      </g>
     </g>
    </g>
    <g id="text_8">
     <!-- Year -->
     <g transform="translate(283.194531 332.15) scale(0.1 -0.1)">
      <defs>
       <path id="HelveticaNowMicro-Regular-3c" d="M 4416 4922 
L 2605 1990 
L 2605 0 
L 1939 0 
L 1939 1990 
L 134 4922 
L 851 4922 
L 2150 2714 
L 2285 2470 
L 2419 2720 
L 3725 4922 
L 4416 4922 
z
" transform="scale(0.015625)"/>
       <path id="HelveticaNowMicro-Regular-48" d="M 3866 1562 
L 1107 1562 
Q 1146 954 1437 685 
Q 1728 416 2227 416 
Q 2598 416 2838 557 
Q 3078 698 3226 992 
L 3782 890 
Q 3597 442 3187 170 
Q 2778 -102 2195 -102 
Q 1773 -102 1449 38 
Q 1126 179 908 425 
Q 691 672 579 1011 
Q 467 1350 467 1747 
Q 467 2144 576 2486 
Q 685 2829 899 3078 
Q 1114 3328 1434 3469 
Q 1754 3610 2182 3610 
Q 2611 3610 2928 3469 
Q 3245 3328 3453 3081 
Q 3661 2835 3763 2492 
Q 3866 2150 3866 1747 
L 3866 1562 
z
M 2176 3123 
Q 1715 3123 1436 2848 
Q 1158 2573 1107 2029 
L 3238 2029 
Q 3219 2266 3155 2467 
Q 3091 2669 2966 2813 
Q 2842 2957 2650 3040 
Q 2458 3123 2176 3123 
z
" transform="scale(0.015625)"/>
       <path id="HelveticaNowMicro-Regular-44" d="M 4070 512 
L 4070 0 
L 3558 0 
Q 3309 0 3145 137 
Q 2982 275 2950 499 
Q 2765 198 2432 48 
Q 2099 -102 1696 -102 
Q 1427 -102 1200 -38 
Q 973 26 803 157 
Q 634 288 541 480 
Q 448 672 448 922 
Q 448 1171 541 1353 
Q 634 1536 803 1667 
Q 973 1798 1219 1884 
Q 1466 1971 1773 2029 
L 2586 2182 
Q 2739 2208 2874 2272 
L 2874 2458 
Q 2874 2605 2842 2723 
Q 2810 2842 2723 2928 
Q 2637 3014 2480 3059 
Q 2323 3104 2080 3104 
Q 1600 3104 1392 2950 
Q 1184 2797 1146 2419 
L 570 2496 
Q 634 3072 1024 3341 
Q 1414 3610 2093 3610 
Q 2509 3610 2777 3523 
Q 3046 3437 3206 3286 
Q 3366 3136 3430 2928 
Q 3494 2720 3494 2477 
L 3494 800 
Q 3494 634 3555 573 
Q 3616 512 3782 512 
L 4070 512 
z
M 1830 371 
Q 2202 371 2490 560 
Q 2778 749 2874 1094 
L 2874 1811 
Q 2816 1792 2758 1773 
Q 2701 1754 2630 1741 
L 1869 1587 
Q 1498 1517 1293 1376 
Q 1088 1235 1088 947 
Q 1088 678 1280 524 
Q 1472 371 1830 371 
z
" transform="scale(0.015625)"/>
       <path id="HelveticaNowMicro-Regular-55" d="M 2720 3520 
L 2720 2944 
L 2515 2944 
Q 2336 2944 2157 2918 
Q 1978 2893 1821 2809 
Q 1664 2726 1536 2563 
Q 1408 2400 1325 2125 
L 1325 0 
L 685 0 
L 685 3507 
L 1267 3507 
L 1299 2829 
Q 1466 3181 1760 3350 
Q 2054 3520 2470 3520 
L 2720 3520 
z
" transform="scale(0.015625)"/>
      </defs>
      <use xlink:href="#HelveticaNowMicro-Regular-3c"/>
      <use xlink:href="#HelveticaNowMicro-Regular-48" transform="translate(59.40625 0)"/>
      <use xlink:href="#HelveticaNowMicro-Regular-44" transform="translate(127.109375 0)"/>
      <use xlink:href="#HelveticaNowMicro-Regular-55" transform="translate(194.609375 0)"/>
     </g>
    </g>
   </g>
   <g id="matplotlib.axis_2">
    <g id="ytick_1">
     <g id="line2d_8">
      <defs>
       <path id="m98e7b1d8c0" d="M 0 0 
L -3.5 0 
" style="stroke: #000000; stroke-width: 0.8"/>
      </defs>
      <g>
       <use xlink:href="#m98e7b1d8c0" x="72" y="276.107587" style="stroke: #000000; stroke-width: 0.8"/>
      </g>
     </g>
     <g id="text_9">
      <!-- 0.50 -->
      <g transform="translate(38.851562 280.482587) scale(0.1 -0.1)">
       <defs>
        <path id="HelveticaNowMicro-Regular-11" d="M 691 870 
L 1626 870 
L 1626 0 
L 691 0 
L 691 870 
z
" transform="scale(0.015625)"/>
        <path id="HelveticaNowMicro-Regular-18" d="M 2381 -96 
Q 2022 -96 1721 -3 
Q 1421 90 1190 262 
Q 960 435 816 688 
Q 672 941 634 1261 
L 1306 1331 
Q 1344 1101 1443 937 
Q 1542 774 1689 668 
Q 1837 563 2019 512 
Q 2202 461 2406 461 
Q 2944 461 3222 768 
Q 3501 1075 3501 1594 
Q 3501 2093 3229 2397 
Q 2957 2701 2394 2701 
Q 2067 2701 1843 2595 
Q 1619 2490 1414 2304 
L 755 2394 
L 1248 4915 
L 3974 4915 
L 3974 4301 
L 1754 4301 
L 1472 2938 
L 1485 2925 
Q 1690 3072 1933 3155 
Q 2176 3238 2509 3238 
Q 2925 3238 3235 3110 
Q 3546 2982 3750 2758 
Q 3955 2534 4060 2240 
Q 4166 1946 4166 1606 
Q 4166 1261 4057 953 
Q 3949 646 3725 412 
Q 3501 179 3168 41 
Q 2835 -96 2381 -96 
z
" transform="scale(0.015625)"/>
       </defs>
       <use xlink:href="#HelveticaNowMicro-Regular-13"/>
       <use xlink:href="#HelveticaNowMicro-Regular-11" transform="translate(75.09375 0)"/>
       <use xlink:href="#HelveticaNowMicro-Regular-18" transform="translate(111.296875 0)"/>
       <use xlink:href="#HelveticaNowMicro-Regular-13" transform="translate(186.390625 0)"/>
      </g>
     </g>
    </g>
    <g id="ytick_2">
     <g id="line2d_9">
      <g>
       <use xlink:href="#m98e7b1d8c0" x="72" y="243.561896" style="stroke: #000000; stroke-width: 0.8"/>
      </g>
     </g>
     <g id="text_10">
      <!-- 0.75 -->
      <g transform="translate(40.721875 247.936896) scale(0.1 -0.1)">
       <use xlink:href="#HelveticaNowMicro-Regular-13"/>
       <use xlink:href="#HelveticaNowMicro-Regular-11" transform="translate(75.09375 0)"/>
       <use xlink:href="#HelveticaNowMicro-Regular-1a" transform="translate(102.296875 0)"/>
       <use xlink:href="#HelveticaNowMicro-Regular-18" transform="translate(167.6875 0)"/>
      </g>
     </g>
    </g>
    <g id="ytick_3">
     <g id="line2d_10">
      <g>
       <use xlink:href="#m98e7b1d8c0" x="72" y="211.016206" style="stroke: #000000; stroke-width: 0.8"/>
      </g>
     </g>
     <g id="text_11">
      <!-- 1.00 -->
      <g transform="translate(41.040625 215.391206) scale(0.1 -0.1)">
       <use xlink:href="#HelveticaNowMicro-Regular-14"/>
       <use xlink:href="#HelveticaNowMicro-Regular-11" transform="translate(53.203125 0)"/>
       <use xlink:href="#HelveticaNowMicro-Regular-13" transform="translate(89.40625 0)"/>
       <use xlink:href="#HelveticaNowMicro-Regular-13" transform="translate(164.5 0)"/>
      </g>
     </g>
    </g>
    <g id="ytick_4">
     <g id="line2d_11">
      <g>
       <use xlink:href="#m98e7b1d8c0" x="72" y="178.470516" style="stroke: #000000; stroke-width: 0.8"/>
      </g>
     </g>
     <g id="text_12">
      <!-- 1.25 -->
      <g transform="translate(41.040625 182.845516) scale(0.1 -0.1)">
       <use xlink:href="#HelveticaNowMicro-Regular-14"/>
       <use xlink:href="#HelveticaNowMicro-Regular-11" transform="translate(53.203125 0)"/>
       <use xlink:href="#HelveticaNowMicro-Regular-15" transform="translate(89.40625 0)"/>
       <use xlink:href="#HelveticaNowMicro-Regular-18" transform="translate(164.5 0)"/>
      </g>
     </g>
    </g>
    <g id="ytick_5">
     <g id="line2d_12">
      <g>
       <use xlink:href="#m98e7b1d8c0" x="72" y="145.924826" style="stroke: #000000; stroke-width: 0.8"/>
      </g>
     </g>
     <g id="text_13">
      <!-- 1.50 -->
      <g transform="translate(41.040625 150.299826) scale(0.1 -0.1)">
       <use xlink:href="#HelveticaNowMicro-Regular-14"/>
       <use xlink:href="#HelveticaNowMicro-Regular-11" transform="translate(53.203125 0)"/>
       <use xlink:href="#HelveticaNowMicro-Regular-18" transform="translate(89.40625 0)"/>
       <use xlink:href="#HelveticaNowMicro-Regular-13" transform="translate(164.5 0)"/>
      </g>
     </g>
    </g>
    <g id="ytick_6">
     <g id="line2d_13">
      <g>
       <use xlink:href="#m98e7b1d8c0" x="72" y="113.379136" style="stroke: #000000; stroke-width: 0.8"/>
      </g>
     </g>
     <g id="text_14">
      <!-- 1.75 -->
      <g transform="translate(42.910938 117.754136) scale(0.1 -0.1)">
       <use xlink:href="#HelveticaNowMicro-Regular-14"/>
       <use xlink:href="#HelveticaNowMicro-Regular-11" transform="translate(53.203125 0)"/>
       <use xlink:href="#HelveticaNowMicro-Regular-1a" transform="translate(80.40625 0)"/>
       <use xlink:href="#HelveticaNowMicro-Regular-18" transform="translate(145.796875 0)"/>
      </g>
     </g>
    </g>
    <g id="ytick_7">
     <g id="line2d_14">
      <g>
       <use xlink:href="#m98e7b1d8c0" x="72" y="80.833445" style="stroke: #000000; stroke-width: 0.8"/>
      </g>
     </g>
     <g id="text_15">
      <!-- 2.00 -->
      <g transform="translate(38.851562 85.208445) scale(0.1 -0.1)">
       <use xlink:href="#HelveticaNowMicro-Regular-15"/>
       <use xlink:href="#HelveticaNowMicro-Regular-11" transform="translate(75.09375 0)"/>
       <use xlink:href="#HelveticaNowMicro-Regular-13" transform="translate(111.296875 0)"/>
       <use xlink:href="#HelveticaNowMicro-Regular-13" transform="translate(186.390625 0)"/>
      </g>
     </g>
    </g>
    <g id="text_16">
     <!-- Odds ratio for participation relative to 2003 -->
     <g transform="translate(32.810937 300.747344) rotate(-90) scale(0.1 -0.1)">
      <defs>
       <path id="HelveticaNowMicro-Regular-32" d="M 2950 -109 
Q 2400 -109 1958 80 
Q 1517 269 1203 608 
Q 890 947 723 1417 
Q 557 1888 557 2458 
Q 557 3027 723 3500 
Q 890 3974 1200 4313 
Q 1510 4653 1955 4841 
Q 2400 5030 2950 5030 
Q 3507 5030 3948 4841 
Q 4390 4653 4700 4313 
Q 5011 3974 5177 3500 
Q 5344 3027 5344 2458 
Q 5344 1888 5177 1417 
Q 5011 947 4700 608 
Q 4390 269 3948 80 
Q 3507 -109 2950 -109 
z
M 2950 422 
Q 3373 422 3699 572 
Q 4026 723 4246 992 
Q 4467 1261 4582 1635 
Q 4698 2010 4698 2458 
Q 4698 2912 4582 3286 
Q 4467 3661 4246 3929 
Q 4026 4198 3699 4345 
Q 3373 4493 2950 4493 
Q 2528 4493 2201 4342 
Q 1875 4192 1654 3923 
Q 1434 3654 1318 3280 
Q 1203 2906 1203 2458 
Q 1203 2010 1318 1635 
Q 1434 1261 1658 992 
Q 1882 723 2205 572 
Q 2528 422 2950 422 
z
" transform="scale(0.015625)"/>
       <path id="HelveticaNowMicro-Regular-47" d="M 3808 4915 
L 3808 0 
L 3238 0 
L 3194 493 
Q 2995 211 2704 57 
Q 2413 -96 2029 -96 
Q 1683 -96 1395 35 
Q 1107 166 899 409 
Q 691 653 579 995 
Q 467 1338 467 1754 
Q 467 2182 572 2524 
Q 678 2867 880 3107 
Q 1082 3347 1373 3478 
Q 1664 3610 2029 3610 
Q 2400 3610 2685 3459 
Q 2970 3309 3168 3040 
L 3168 4915 
L 3808 4915 
z
M 2118 416 
Q 2470 416 2758 617 
Q 3046 819 3174 1254 
L 3181 2253 
Q 3053 2694 2765 2899 
Q 2477 3104 2118 3104 
Q 1619 3104 1363 2739 
Q 1107 2374 1107 1754 
Q 1107 1152 1366 784 
Q 1626 416 2118 416 
z
" transform="scale(0.015625)"/>
       <path id="HelveticaNowMicro-Regular-56" d="M 2086 -134 
Q 1376 -134 985 157 
Q 595 448 480 992 
L 1094 1056 
Q 1178 672 1414 512 
Q 1651 352 2086 352 
Q 2464 352 2707 480 
Q 2950 608 2950 928 
Q 2950 1030 2918 1120 
Q 2886 1210 2800 1280 
Q 2714 1350 2566 1408 
Q 2419 1466 2195 1504 
L 1722 1594 
Q 1152 1702 886 1958 
Q 621 2214 621 2618 
Q 621 3104 982 3373 
Q 1344 3642 2029 3642 
Q 2707 3642 3088 3379 
Q 3469 3117 3578 2598 
L 2982 2528 
Q 2899 2893 2649 3027 
Q 2400 3162 2042 3162 
Q 1242 3162 1242 2643 
Q 1242 2432 1405 2313 
Q 1568 2195 1971 2118 
L 2413 2042 
Q 2989 1939 3283 1692 
Q 3578 1446 3578 986 
Q 3578 461 3200 163 
Q 2822 -134 2086 -134 
z
" transform="scale(0.015625)"/>
       <path id="HelveticaNowMicro-Regular-3" transform="scale(0.015625)"/>
       <path id="HelveticaNowMicro-Regular-57" d="M 2816 3002 
L 1574 3053 
L 1626 2496 
L 1626 1030 
Q 1626 755 1760 636 
Q 1894 518 2099 518 
L 2810 518 
L 2810 0 
L 1978 0 
Q 1773 0 1590 61 
Q 1408 122 1273 246 
Q 1139 371 1062 560 
Q 986 749 986 1005 
L 986 2496 
L 1030 3053 
L 186 3002 
L 186 3507 
L 1024 3462 
L 986 3744 
L 986 4525 
L 1626 4525 
L 1626 3744 
L 1581 3456 
L 2816 3507 
L 2816 3002 
z
" transform="scale(0.015625)"/>
       <path id="HelveticaNowMicro-Regular-4c" d="M 685 5050 
L 1325 5050 
L 1325 4269 
L 685 4269 
L 685 5050 
z
M 685 3507 
L 1325 3507 
L 1325 0 
L 685 0 
L 685 3507 
z
" transform="scale(0.015625)"/>
       <path id="HelveticaNowMicro-Regular-52" d="M 2234 -102 
Q 1811 -102 1481 29 
Q 1152 160 928 403 
Q 704 646 585 988 
Q 467 1331 467 1754 
Q 467 2170 585 2512 
Q 704 2854 931 3097 
Q 1158 3341 1484 3475 
Q 1811 3610 2234 3610 
Q 2656 3610 2982 3475 
Q 3309 3341 3536 3097 
Q 3763 2854 3881 2512 
Q 4000 2170 4000 1754 
Q 4000 1331 3881 988 
Q 3763 646 3536 403 
Q 3309 160 2982 29 
Q 2656 -102 2234 -102 
z
M 2234 435 
Q 2797 435 3075 793 
Q 3354 1152 3354 1754 
Q 3354 2362 3075 2717 
Q 2797 3072 2234 3072 
Q 1664 3072 1385 2717 
Q 1107 2362 1107 1754 
Q 1107 1152 1385 793 
Q 1664 435 2234 435 
z
" transform="scale(0.015625)"/>
       <path id="HelveticaNowMicro-Regular-49" d="M 1914 4506 
Q 1664 4461 1542 4339 
Q 1421 4218 1421 3949 
L 1517 3450 
L 2816 3507 
L 2816 3008 
L 1568 3059 
L 1626 2330 
L 1626 0 
L 986 0 
L 986 2330 
L 1043 3059 
L 186 3008 
L 186 3507 
L 1037 3456 
L 986 3981 
Q 986 4442 1238 4678 
Q 1491 4915 1958 4915 
L 2835 4915 
L 2835 4435 
L 1914 4506 
z
" transform="scale(0.015625)"/>
       <path id="HelveticaNowMicro-Regular-53" d="M 2464 3610 
Q 2829 3610 3120 3478 
Q 3411 3347 3612 3107 
Q 3814 2867 3920 2524 
Q 4026 2182 4026 1754 
Q 4026 1331 3914 992 
Q 3802 653 3594 409 
Q 3386 166 3098 35 
Q 2810 -96 2464 -96 
Q 2093 -96 1811 48 
Q 1530 192 1325 461 
L 1325 -1306 
L 685 -1306 
L 685 3507 
L 1274 3507 
L 1306 3021 
Q 1510 3302 1798 3456 
Q 2086 3610 2464 3610 
z
M 2368 410 
Q 2618 410 2806 506 
Q 2995 602 3126 781 
Q 3258 960 3322 1206 
Q 3386 1453 3386 1754 
Q 3386 2374 3126 2739 
Q 2867 3104 2368 3104 
Q 2022 3104 1737 2909 
Q 1453 2714 1325 2291 
L 1325 1242 
Q 1453 813 1737 611 
Q 2022 410 2368 410 
z
" transform="scale(0.015625)"/>
       <path id="HelveticaNowMicro-Regular-46" d="M 2131 -77 
Q 1741 -77 1430 51 
Q 1120 179 905 419 
Q 691 659 579 1001 
Q 467 1344 467 1766 
Q 467 2189 576 2531 
Q 685 2874 893 3114 
Q 1101 3354 1408 3482 
Q 1715 3610 2112 3610 
Q 2784 3610 3155 3315 
Q 3526 3021 3661 2464 
L 3027 2400 
Q 2950 2726 2742 2899 
Q 2534 3072 2106 3072 
Q 1613 3072 1360 2752 
Q 1107 2432 1107 1766 
Q 1107 1133 1363 797 
Q 1619 461 2125 461 
Q 2528 461 2755 665 
Q 2982 870 3072 1254 
L 3674 1190 
Q 3539 589 3155 256 
Q 2771 -77 2131 -77 
z
" transform="scale(0.015625)"/>
       <path id="HelveticaNowMicro-Regular-51" d="M 2381 3603 
Q 2963 3603 3305 3270 
Q 3648 2938 3648 2362 
L 3648 0 
L 3008 0 
L 3008 2234 
Q 3008 2630 2813 2848 
Q 2618 3066 2266 3066 
Q 1920 3066 1686 2867 
Q 1453 2669 1325 2323 
L 1325 0 
L 685 0 
L 685 3507 
L 1267 3507 
L 1293 3040 
Q 1491 3309 1753 3456 
Q 2016 3603 2381 3603 
z
" transform="scale(0.015625)"/>
       <path id="HelveticaNowMicro-Regular-4f" d="M 685 4915 
L 1325 4915 
L 1325 0 
L 685 0 
L 685 4915 
z
" transform="scale(0.015625)"/>
       <path id="HelveticaNowMicro-Regular-59" d="M 3699 3507 
L 2400 0 
L 1651 0 
L 307 3507 
L 998 3507 
L 1882 973 
L 2035 486 
L 2189 979 
L 3072 3507 
L 3699 3507 
z
" transform="scale(0.015625)"/>
      </defs>
      <use xlink:href="#HelveticaNowMicro-Regular-32"/>
      <use xlink:href="#HelveticaNowMicro-Regular-47" transform="translate(92.09375 0)"/>
      <use xlink:href="#HelveticaNowMicro-Regular-47" transform="translate(162.296875 0)"/>
      <use xlink:href="#HelveticaNowMicro-Regular-56" transform="translate(232.5 0)"/>
      <use xlink:href="#HelveticaNowMicro-Regular-3" transform="translate(296 0)"/>
      <use xlink:href="#HelveticaNowMicro-Regular-55" transform="translate(328 0)"/>
      <use xlink:href="#HelveticaNowMicro-Regular-44" transform="translate(372.90625 0)"/>
      <use xlink:href="#HelveticaNowMicro-Regular-57" transform="translate(440.40625 0)"/>
      <use xlink:href="#HelveticaNowMicro-Regular-4c" transform="translate(490.40625 0)"/>
      <use xlink:href="#HelveticaNowMicro-Regular-52" transform="translate(521.703125 0)"/>
      <use xlink:href="#HelveticaNowMicro-Regular-3" transform="translate(591.5 0)"/>
      <use xlink:href="#HelveticaNowMicro-Regular-49" transform="translate(623.5 0)"/>
      <use xlink:href="#HelveticaNowMicro-Regular-52" transform="translate(669.796875 0)"/>
      <use xlink:href="#HelveticaNowMicro-Regular-55" transform="translate(739.59375 0)"/>
      <use xlink:href="#HelveticaNowMicro-Regular-3" transform="translate(785.09375 0)"/>
      <use xlink:href="#HelveticaNowMicro-Regular-53" transform="translate(817.09375 0)"/>
      <use xlink:href="#HelveticaNowMicro-Regular-44" transform="translate(887.296875 0)"/>
      <use xlink:href="#HelveticaNowMicro-Regular-55" transform="translate(954.796875 0)"/>
      <use xlink:href="#HelveticaNowMicro-Regular-57" transform="translate(1004.203125 0)"/>
      <use xlink:href="#HelveticaNowMicro-Regular-4c" transform="translate(1054.203125 0)"/>
      <use xlink:href="#HelveticaNowMicro-Regular-46" transform="translate(1085.5 0)"/>
      <use xlink:href="#HelveticaNowMicro-Regular-4c" transform="translate(1149.5 0)"/>
      <use xlink:href="#HelveticaNowMicro-Regular-53" transform="translate(1180.796875 0)"/>
      <use xlink:href="#HelveticaNowMicro-Regular-44" transform="translate(1251 0)"/>
      <use xlink:href="#HelveticaNowMicro-Regular-57" transform="translate(1318.5 0)"/>
      <use xlink:href="#HelveticaNowMicro-Regular-4c" transform="translate(1368.5 0)"/>
      <use xlink:href="#HelveticaNowMicro-Regular-52" transform="translate(1399.796875 0)"/>
      <use xlink:href="#HelveticaNowMicro-Regular-51" transform="translate(1469.59375 0)"/>
      <use xlink:href="#HelveticaNowMicro-Regular-3" transform="translate(1537.1875 0)"/>
      <use xlink:href="#HelveticaNowMicro-Regular-55" transform="translate(1569.1875 0)"/>
      <use xlink:href="#HelveticaNowMicro-Regular-48" transform="translate(1614.6875 0)"/>
      <use xlink:href="#HelveticaNowMicro-Regular-4f" transform="translate(1682.390625 0)"/>
      <use xlink:href="#HelveticaNowMicro-Regular-44" transform="translate(1713.6875 0)"/>
      <use xlink:href="#HelveticaNowMicro-Regular-57" transform="translate(1781.1875 0)"/>
      <use xlink:href="#HelveticaNowMicro-Regular-4c" transform="translate(1831.1875 0)"/>
      <use xlink:href="#HelveticaNowMicro-Regular-59" transform="translate(1862.484375 0)"/>
      <use xlink:href="#HelveticaNowMicro-Regular-48" transform="translate(1922.171875 0)"/>
      <use xlink:href="#HelveticaNowMicro-Regular-3" transform="translate(1989.875 0)"/>
      <use xlink:href="#HelveticaNowMicro-Regular-57" transform="translate(2021.875 0)"/>
      <use xlink:href="#HelveticaNowMicro-Regular-52" transform="translate(2070.375 0)"/>
      <use xlink:href="#HelveticaNowMicro-Regular-3" transform="translate(2140.171875 0)"/>
      <use xlink:href="#HelveticaNowMicro-Regular-15" transform="translate(2172.171875 0)"/>
      <use xlink:href="#HelveticaNowMicro-Regular-13" transform="translate(2247.265625 0)"/>
      <use xlink:href="#HelveticaNowMicro-Regular-13" transform="translate(2322.359375 0)"/>
      <use xlink:href="#HelveticaNowMicro-Regular-16" transform="translate(2397.453125 0)"/>
     </g>
    </g>
   </g>
   <g id="line2d_15">
    <path d="M 72 211.016206 
L 518.4 211.016206 
" clip-path="url(#p2eb2aa25f5)" style="fill: none; stroke-dasharray: 3.7,1.6; stroke-dashoffset: 0; stroke: #808080"/>
   </g>
   <g id="line2d_16">
    <path d="M 88.533333 211.016206 
L 108.203042 201.91578 
L 127.926641 190.863524 
L 147.596349 196.407748 
L 167.266058 192.715634 
L 186.935767 189.007248 
L 206.659365 162.585095 
L 226.329074 181.541397 
L 245.998783 189.007248 
L 265.668492 179.664682 
L 285.39209 164.499823 
L 305.061799 164.499823 
L 324.731508 147.112743 
L 344.401217 147.112743 
L 364.124815 143.200882 
L 383.794524 145.158961 
L 403.464233 137.300088 
M 442.85754 90.692186 
L 462.527249 82.330938 
L 482.196958 76.008351 
L 501.866667 63.229091 
" clip-path="url(#p2eb2aa25f5)" style="fill: none; stroke: #000000; stroke-width: 1.5; stroke-linecap: square"/>
    <defs>
     <path id="mdb53844678" d="M 0 3 
C 0.795609 3 1.55874 2.683901 2.12132 2.12132 
C 2.683901 1.55874 3 0.795609 3 0 
C 3 -0.795609 2.683901 -1.55874 2.12132 -2.12132 
C 1.55874 -2.683901 0.795609 -3 0 -3 
C -0.795609 -3 -1.55874 -2.683901 -2.12132 -2.12132 
C -2.683901 -1.55874 -3 -0.795609 -3 0 
C -3 0.795609 -2.683901 1.55874 -2.12132 2.12132 
C -1.55874 2.683901 -0.795609 3 0 3 
z
" style="stroke: #000000"/>
    </defs>
    <g clip-path="url(#p2eb2aa25f5)">
     <use xlink:href="#mdb53844678" x="88.533333" y="211.016206" style="stroke: #000000"/>
     <use xlink:href="#mdb53844678" x="108.203042" y="201.91578" style="stroke: #000000"/>
     <use xlink:href="#mdb53844678" x="127.926641" y="190.863524" style="stroke: #000000"/>
     <use xlink:href="#mdb53844678" x="147.596349" y="196.407748" style="stroke: #000000"/>
     <use xlink:href="#mdb53844678" x="167.266058" y="192.715634" style="stroke: #000000"/>
     <use xlink:href="#mdb53844678" x="186.935767" y="189.007248" style="stroke: #000000"/>
     <use xlink:href="#mdb53844678" x="206.659365" y="162.585095" style="stroke: #000000"/>
     <use xlink:href="#mdb53844678" x="226.329074" y="181.541397" style="stroke: #000000"/>
     <use xlink:href="#mdb53844678" x="245.998783" y="189.007248" style="stroke: #000000"/>
     <use xlink:href="#mdb53844678" x="265.668492" y="179.664682" style="stroke: #000000"/>
     <use xlink:href="#mdb53844678" x="285.39209" y="164.499823" style="stroke: #000000"/>
     <use xlink:href="#mdb53844678" x="305.061799" y="164.499823" style="stroke: #000000"/>
     <use xlink:href="#mdb53844678" x="324.731508" y="147.112743" style="stroke: #000000"/>
     <use xlink:href="#mdb53844678" x="344.401217" y="147.112743" style="stroke: #000000"/>
     <use xlink:href="#mdb53844678" x="364.124815" y="143.200882" style="stroke: #000000"/>
     <use xlink:href="#mdb53844678" x="383.794524" y="145.158961" style="stroke: #000000"/>
     <use xlink:href="#mdb53844678" x="403.464233" y="137.300088" style="stroke: #000000"/>
     <use xlink:href="#mdb53844678" x="442.85754" y="90.692186" style="stroke: #000000"/>
     <use xlink:href="#mdb53844678" x="462.527249" y="82.330938" style="stroke: #000000"/>
     <use xlink:href="#mdb53844678" x="482.196958" y="76.008351" style="stroke: #000000"/>
     <use xlink:href="#mdb53844678" x="501.866667" y="63.229091" style="stroke: #000000"/>
    </g>
   </g>
   <g id="line2d_17">
    <path d="M 88.533333 211.016206 
L 108.203042 188.21092 
L 127.926641 193.53162 
L 147.596349 186.429499 
L 167.266058 182.854941 
L 186.935767 188.21092 
L 206.659365 162.907297 
L 226.329074 142.460923 
L 245.998783 109.836993 
L 265.668492 121.497072 
L 285.39209 115.687146 
L 305.061799 115.687146 
L 324.731508 123.424818 
L 344.401217 157.381299 
L 364.124815 129.18137 
L 383.794524 131.091542 
L 403.464233 117.628301 
M 442.85754 103.945832 
L 462.527249 113.741564 
L 482.196958 109.836993 
L 501.866667 123.424818 
" clip-path="url(#p2eb2aa25f5)" style="fill: none; stroke: #e69f00; stroke-width: 1.5; stroke-linecap: square"/>
    <defs>
     <path id="m096d827c83" d="M -3 3 
L 3 3 
L 3 -3 
L -3 -3 
z
" style="stroke: #e69f00; stroke-linejoin: miter"/>
    </defs>
    <g clip-path="url(#p2eb2aa25f5)">
     <use xlink:href="#m096d827c83" x="88.533333" y="211.016206" style="fill: #e69f00; stroke: #e69f00; stroke-linejoin: miter"/>
     <use xlink:href="#m096d827c83" x="108.203042" y="188.21092" style="fill: #e69f00; stroke: #e69f00; stroke-linejoin: miter"/>
     <use xlink:href="#m096d827c83" x="127.926641" y="193.53162" style="fill: #e69f00; stroke: #e69f00; stroke-linejoin: miter"/>
     <use xlink:href="#m096d827c83" x="147.596349" y="186.429499" style="fill: #e69f00; stroke: #e69f00; stroke-linejoin: miter"/>
     <use xlink:href="#m096d827c83" x="167.266058" y="182.854941" style="fill: #e69f00; stroke: #e69f00; stroke-linejoin: miter"/>
     <use xlink:href="#m096d827c83" x="186.935767" y="188.21092" style="fill: #e69f00; stroke: #e69f00; stroke-linejoin: miter"/>
     <use xlink:href="#m096d827c83" x="206.659365" y="162.907297" style="fill: #e69f00; stroke: #e69f00; stroke-linejoin: miter"/>
     <use xlink:href="#m096d827c83" x="226.329074" y="142.460923" style="fill: #e69f00; stroke: #e69f00; stroke-linejoin: miter"/>
     <use xlink:href="#m096d827c83" x="245.998783" y="109.836993" style="fill: #e69f00; stroke: #e69f00; stroke-linejoin: miter"/>
     <use xlink:href="#m096d827c83" x="265.668492" y="121.497072" style="fill: #e69f00; stroke: #e69f00; stroke-linejoin: miter"/>
     <use xlink:href="#m096d827c83" x="285.39209" y="115.687146" style="fill: #e69f00; stroke: #e69f00; stroke-linejoin: miter"/>
     <use xlink:href="#m096d827c83" x="305.061799" y="115.687146" style="fill: #e69f00; stroke: #e69f00; stroke-linejoin: miter"/>
     <use xlink:href="#m096d827c83" x="324.731508" y="123.424818" style="fill: #e69f00; stroke: #e69f00; stroke-linejoin: miter"/>
     <use xlink:href="#m096d827c83" x="344.401217" y="157.381299" style="fill: #e69f00; stroke: #e69f00; stroke-linejoin: miter"/>
     <use xlink:href="#m096d827c83" x="364.124815" y="129.18137" style="fill: #e69f00; stroke: #e69f00; stroke-linejoin: miter"/>
     <use xlink:href="#m096d827c83" x="383.794524" y="131.091542" style="fill: #e69f00; stroke: #e69f00; stroke-linejoin: miter"/>
     <use xlink:href="#m096d827c83" x="403.464233" y="117.628301" style="fill: #e69f00; stroke: #e69f00; stroke-linejoin: miter"/>
     <use xlink:href="#m096d827c83" x="442.85754" y="103.945832" style="fill: #e69f00; stroke: #e69f00; stroke-linejoin: miter"/>
     <use xlink:href="#m096d827c83" x="462.527249" y="113.741564" style="fill: #e69f00; stroke: #e69f00; stroke-linejoin: miter"/>
     <use xlink:href="#m096d827c83" x="482.196958" y="109.836993" style="fill: #e69f00; stroke: #e69f00; stroke-linejoin: miter"/>
     <use xlink:href="#m096d827c83" x="501.866667" y="123.424818" style="fill: #e69f00; stroke: #e69f00; stroke-linejoin: miter"/>
    </g>
   </g>
   <g id="line2d_18">
    <path d="M 88.533333 211.016206 
L 108.203042 229.789602 
L 127.926641 219.521436 
L 147.596349 225.729462 
L 167.266058 233.788426 
L 186.935767 237.07515 
L 206.659365 241.608114 
L 226.329074 242.249264 
L 245.998783 244.163341 
L 265.668492 246.693443 
L 285.39209 242.888852 
L 305.061799 243.526877 
L 324.731508 237.727496 
L 344.401217 233.788426 
L 364.124815 232.462254 
L 383.794524 235.765381 
L 403.464233 244.163341 
M 442.85754 224.362282 
L 462.527249 225.729462 
L 482.196958 228.443121 
L 501.866667 232.462254 
" clip-path="url(#p2eb2aa25f5)" style="fill: none; stroke: #56b4e9; stroke-width: 1.5; stroke-linecap: square"/>
    <defs>
     <path id="m2f8b62012c" d="M -0 4.242641 
L 4.242641 0 
L 0 -4.242641 
L -4.242641 -0 
z
" style="stroke: #56b4e9; stroke-linejoin: miter"/>
    </defs>
    <g clip-path="url(#p2eb2aa25f5)">
     <use xlink:href="#m2f8b62012c" x="88.533333" y="211.016206" style="fill: #56b4e9; stroke: #56b4e9; stroke-linejoin: miter"/>
     <use xlink:href="#m2f8b62012c" x="108.203042" y="229.789602" style="fill: #56b4e9; stroke: #56b4e9; stroke-linejoin: miter"/>
     <use xlink:href="#m2f8b62012c" x="127.926641" y="219.521436" style="fill: #56b4e9; stroke: #56b4e9; stroke-linejoin: miter"/>
     <use xlink:href="#m2f8b62012c" x="147.596349" y="225.729462" style="fill: #56b4e9; stroke: #56b4e9; stroke-linejoin: miter"/>
     <use xlink:href="#m2f8b62012c" x="167.266058" y="233.788426" style="fill: #56b4e9; stroke: #56b4e9; stroke-linejoin: miter"/>
     <use xlink:href="#m2f8b62012c" x="186.935767" y="237.07515" style="fill: #56b4e9; stroke: #56b4e9; stroke-linejoin: miter"/>
     <use xlink:href="#m2f8b62012c" x="206.659365" y="241.608114" style="fill: #56b4e9; stroke: #56b4e9; stroke-linejoin: miter"/>
     <use xlink:href="#m2f8b62012c" x="226.329074" y="242.249264" style="fill: #56b4e9; stroke: #56b4e9; stroke-linejoin: miter"/>
     <use xlink:href="#m2f8b62012c" x="245.998783" y="244.163341" style="fill: #56b4e9; stroke: #56b4e9; stroke-linejoin: miter"/>
     <use xlink:href="#m2f8b62012c" x="265.668492" y="246.693443" style="fill: #56b4e9; stroke: #56b4e9; stroke-linejoin: miter"/>
     <use xlink:href="#m2f8b62012c" x="285.39209" y="242.888852" style="fill: #56b4e9; stroke: #56b4e9; stroke-linejoin: miter"/>
     <use xlink:href="#m2f8b62012c" x="305.061799" y="243.526877" style="fill: #56b4e9; stroke: #56b4e9; stroke-linejoin: miter"/>
     <use xlink:href="#m2f8b62012c" x="324.731508" y="237.727496" style="fill: #56b4e9; stroke: #56b4e9; stroke-linejoin: miter"/>
     <use xlink:href="#m2f8b62012c" x="344.401217" y="233.788426" style="fill: #56b4e9; stroke: #56b4e9; stroke-linejoin: miter"/>
     <use xlink:href="#m2f8b62012c" x="364.124815" y="232.462254" style="fill: #56b4e9; stroke: #56b4e9; stroke-linejoin: miter"/>
     <use xlink:href="#m2f8b62012c" x="383.794524" y="235.765381" style="fill: #56b4e9; stroke: #56b4e9; stroke-linejoin: miter"/>
     <use xlink:href="#m2f8b62012c" x="403.464233" y="244.163341" style="fill: #56b4e9; stroke: #56b4e9; stroke-linejoin: miter"/>
     <use xlink:href="#m2f8b62012c" x="442.85754" y="224.362282" style="fill: #56b4e9; stroke: #56b4e9; stroke-linejoin: miter"/>
     <use xlink:href="#m2f8b62012c" x="462.527249" y="225.729462" style="fill: #56b4e9; stroke: #56b4e9; stroke-linejoin: miter"/>
     <use xlink:href="#m2f8b62012c" x="482.196958" y="228.443121" style="fill: #56b4e9; stroke: #56b4e9; stroke-linejoin: miter"/>
     <use xlink:href="#m2f8b62012c" x="501.866667" y="232.462254" style="fill: #56b4e9; stroke: #56b4e9; stroke-linejoin: miter"/>
    </g>
   </g>
   <g id="line2d_19">
    <path d="M 88.533333 211.016206 
L 108.203042 195.687707 
L 127.926641 202.837604 
L 147.596349 205.374997 
L 167.266058 205.374997 
L 186.935767 192.852196 
L 206.659365 183.784316 
L 226.329074 206.204391 
L 245.998783 214.82275 
L 265.668492 200.223795 
L 285.39209 206.204391 
L 305.061799 201.975013 
L 324.731508 201.975013 
L 344.401217 208.644797 
L 364.124815 219.165387 
L 383.794524 214.075631 
L 403.464233 217.744051 
M 442.85754 217.02375 
L 462.527249 227.185296 
L 482.196958 243.052491 
L 501.866667 247.458787 
" clip-path="url(#p2eb2aa25f5)" style="fill: none; stroke: #009e73; stroke-width: 1.5; stroke-linecap: square"/>
    <defs>
     <path id="m4ea57459e9" d="M 0 -3 
L -3 3 
L 3 3 
z
" style="stroke: #009e73; stroke-linejoin: miter"/>
    </defs>
    <g clip-path="url(#p2eb2aa25f5)">
     <use xlink:href="#m4ea57459e9" x="88.533333" y="211.016206" style="fill: #009e73; stroke: #009e73; stroke-linejoin: miter"/>
     <use xlink:href="#m4ea57459e9" x="108.203042" y="195.687707" style="fill: #009e73; stroke: #009e73; stroke-linejoin: miter"/>
     <use xlink:href="#m4ea57459e9" x="127.926641" y="202.837604" style="fill: #009e73; stroke: #009e73; stroke-linejoin: miter"/>
     <use xlink:href="#m4ea57459e9" x="147.596349" y="205.374997" style="fill: #009e73; stroke: #009e73; stroke-linejoin: miter"/>
     <use xlink:href="#m4ea57459e9" x="167.266058" y="205.374997" style="fill: #009e73; stroke: #009e73; stroke-linejoin: miter"/>
     <use xlink:href="#m4ea57459e9" x="186.935767" y="192.852196" style="fill: #009e73; stroke: #009e73; stroke-linejoin: miter"/>
     <use xlink:href="#m4ea57459e9" x="206.659365" y="183.784316" style="fill: #009e73; stroke: #009e73; stroke-linejoin: miter"/>
     <use xlink:href="#m4ea57459e9" x="226.329074" y="206.204391" style="fill: #009e73; stroke: #009e73; stroke-linejoin: miter"/>
     <use xlink:href="#m4ea57459e9" x="245.998783" y="214.82275" style="fill: #009e73; stroke: #009e73; stroke-linejoin: miter"/>
     <use xlink:href="#m4ea57459e9" x="265.668492" y="200.223795" style="fill: #009e73; stroke: #009e73; stroke-linejoin: miter"/>
     <use xlink:href="#m4ea57459e9" x="285.39209" y="206.204391" style="fill: #009e73; stroke: #009e73; stroke-linejoin: miter"/>
     <use xlink:href="#m4ea57459e9" x="305.061799" y="201.975013" style="fill: #009e73; stroke: #009e73; stroke-linejoin: miter"/>
     <use xlink:href="#m4ea57459e9" x="324.731508" y="201.975013" style="fill: #009e73; stroke: #009e73; stroke-linejoin: miter"/>
     <use xlink:href="#m4ea57459e9" x="344.401217" y="208.644797" style="fill: #009e73; stroke: #009e73; stroke-linejoin: miter"/>
     <use xlink:href="#m4ea57459e9" x="364.124815" y="219.165387" style="fill: #009e73; stroke: #009e73; stroke-linejoin: miter"/>
     <use xlink:href="#m4ea57459e9" x="383.794524" y="214.075631" style="fill: #009e73; stroke: #009e73; stroke-linejoin: miter"/>
     <use xlink:href="#m4ea57459e9" x="403.464233" y="217.744051" style="fill: #009e73; stroke: #009e73; stroke-linejoin: miter"/>
     <use xlink:href="#m4ea57459e9" x="442.85754" y="217.02375" style="fill: #009e73; stroke: #009e73; stroke-linejoin: miter"/>
     <use xlink:href="#m4ea57459e9" x="462.527249" y="227.185296" style="fill: #009e73; stroke: #009e73; stroke-linejoin: miter"/>
     <use xlink:href="#m4ea57459e9" x="482.196958" y="243.052491" style="fill: #009e73; stroke: #009e73; stroke-linejoin: miter"/>
     <use xlink:href="#m4ea57459e9" x="501.866667" y="247.458787" style="fill: #009e73; stroke: #009e73; stroke-linejoin: miter"/>
    </g>
   </g>
   <g id="line2d_20">
    <path d="M 88.533333 211.016206 
L 108.203042 212.1156 
L 127.926641 208.236544 
L 147.596349 207.111895 
L 167.266058 219.091833 
L 186.935767 214.293036 
L 206.659365 213.751346 
L 226.329074 224.774962 
L 245.998783 232.218812 
L 265.668492 226.291331 
L 285.39209 225.281893 
L 305.061799 221.699394 
L 324.731508 218.565374 
L 344.401217 229.775412 
L 364.124815 232.218812 
L 383.794524 233.667095 
L 403.464233 234.625371 
M 442.85754 258.888313 
L 462.527249 261.312446 
L 482.196958 260.508958 
L 501.866667 255.592476 
" clip-path="url(#p2eb2aa25f5)" style="fill: none; stroke: #f0e442; stroke-width: 1.5; stroke-linecap: square"/>
    <defs>
     <path id="me62d3a5b05" d="M -0 3 
L 3 -3 
L -3 -3 
z
" style="stroke: #f0e442; stroke-linejoin: miter"/>
    </defs>
    <g clip-path="url(#p2eb2aa25f5)">
     <use xlink:href="#me62d3a5b05" x="88.533333" y="211.016206" style="fill: #f0e442; stroke: #f0e442; stroke-linejoin: miter"/>
     <use xlink:href="#me62d3a5b05" x="108.203042" y="212.1156" style="fill: #f0e442; stroke: #f0e442; stroke-linejoin: miter"/>
     <use xlink:href="#me62d3a5b05" x="127.926641" y="208.236544" style="fill: #f0e442; stroke: #f0e442; stroke-linejoin: miter"/>
     <use xlink:href="#me62d3a5b05" x="147.596349" y="207.111895" style="fill: #f0e442; stroke: #f0e442; stroke-linejoin: miter"/>
     <use xlink:href="#me62d3a5b05" x="167.266058" y="219.091833" style="fill: #f0e442; stroke: #f0e442; stroke-linejoin: miter"/>
     <use xlink:href="#me62d3a5b05" x="186.935767" y="214.293036" style="fill: #f0e442; stroke: #f0e442; stroke-linejoin: miter"/>
     <use xlink:href="#me62d3a5b05" x="206.659365" y="213.751346" style="fill: #f0e442; stroke: #f0e442; stroke-linejoin: miter"/>
     <use xlink:href="#me62d3a5b05" x="226.329074" y="224.774962" style="fill: #f0e442; stroke: #f0e442; stroke-linejoin: miter"/>
     <use xlink:href="#me62d3a5b05" x="245.998783" y="232.218812" style="fill: #f0e442; stroke: #f0e442; stroke-linejoin: miter"/>
     <use xlink:href="#me62d3a5b05" x="265.668492" y="226.291331" style="fill: #f0e442; stroke: #f0e442; stroke-linejoin: miter"/>
     <use xlink:href="#me62d3a5b05" x="285.39209" y="225.281893" style="fill: #f0e442; stroke: #f0e442; stroke-linejoin: miter"/>
     <use xlink:href="#me62d3a5b05" x="305.061799" y="221.699394" style="fill: #f0e442; stroke: #f0e442; stroke-linejoin: miter"/>
     <use xlink:href="#me62d3a5b05" x="324.731508" y="218.565374" style="fill: #f0e442; stroke: #f0e442; stroke-linejoin: miter"/>
     <use xlink:href="#me62d3a5b05" x="344.401217" y="229.775412" style="fill: #f0e442; stroke: #f0e442; stroke-linejoin: miter"/>
     <use xlink:href="#me62d3a5b05" x="364.124815" y="232.218812" style="fill: #f0e442; stroke: #f0e442; stroke-linejoin: miter"/>
     <use xlink:href="#me62d3a5b05" x="383.794524" y="233.667095" style="fill: #f0e442; stroke: #f0e442; stroke-linejoin: miter"/>
     <use xlink:href="#me62d3a5b05" x="403.464233" y="234.625371" style="fill: #f0e442; stroke: #f0e442; stroke-linejoin: miter"/>
     <use xlink:href="#me62d3a5b05" x="442.85754" y="258.888313" style="fill: #f0e442; stroke: #f0e442; stroke-linejoin: miter"/>
     <use xlink:href="#me62d3a5b05" x="462.527249" y="261.312446" style="fill: #f0e442; stroke: #f0e442; stroke-linejoin: miter"/>
     <use xlink:href="#me62d3a5b05" x="482.196958" y="260.508958" style="fill: #f0e442; stroke: #f0e442; stroke-linejoin: miter"/>
     <use xlink:href="#me62d3a5b05" x="501.866667" y="255.592476" style="fill: #f0e442; stroke: #f0e442; stroke-linejoin: miter"/>
    </g>
   </g>
   <g id="line2d_21">
    <path d="M 88.533333 211.016206 
L 108.203042 196.711985 
L 127.926641 221.666588 
L 147.596349 218.123794 
L 167.266058 221.666588 
L 186.935767 232.250837 
L 206.659365 235.76447 
L 226.329074 239.270682 
L 245.998783 242.769864 
L 265.668492 235.76447 
L 285.39209 242.769864 
L 305.061799 239.270682 
L 324.731508 239.270682 
L 344.401217 246.261757 
L 364.124815 239.270682 
L 383.794524 228.730044 
L 403.464233 239.270682 
M 442.85754 291.010909 
L 462.527249 263.613947 
L 482.196958 267.063009 
L 501.866667 267.063009 
" clip-path="url(#p2eb2aa25f5)" style="fill: none; stroke: #0072b2; stroke-width: 1.5; stroke-linecap: square"/>
    <defs>
     <path id="m1c204602eb" d="M -1 3 
L 1 3 
L 1 1 
L 3 1 
L 3 -1 
L 1 -1 
L 1 -3 
L -1 -3 
L -1 -1 
L -3 -1 
L -3 1 
L -1 1 
z
" style="stroke: #0072b2; stroke-linejoin: miter"/>
    </defs>
    <g clip-path="url(#p2eb2aa25f5)">
     <use xlink:href="#m1c204602eb" x="88.533333" y="211.016206" style="fill: #0072b2; stroke: #0072b2; stroke-linejoin: miter"/>
     <use xlink:href="#m1c204602eb" x="108.203042" y="196.711985" style="fill: #0072b2; stroke: #0072b2; stroke-linejoin: miter"/>
     <use xlink:href="#m1c204602eb" x="127.926641" y="221.666588" style="fill: #0072b2; stroke: #0072b2; stroke-linejoin: miter"/>
     <use xlink:href="#m1c204602eb" x="147.596349" y="218.123794" style="fill: #0072b2; stroke: #0072b2; stroke-linejoin: miter"/>
     <use xlink:href="#m1c204602eb" x="167.266058" y="221.666588" style="fill: #0072b2; stroke: #0072b2; stroke-linejoin: miter"/>
     <use xlink:href="#m1c204602eb" x="186.935767" y="232.250837" style="fill: #0072b2; stroke: #0072b2; stroke-linejoin: miter"/>
     <use xlink:href="#m1c204602eb" x="206.659365" y="235.76447" style="fill: #0072b2; stroke: #0072b2; stroke-linejoin: miter"/>
     <use xlink:href="#m1c204602eb" x="226.329074" y="239.270682" style="fill: #0072b2; stroke: #0072b2; stroke-linejoin: miter"/>
     <use xlink:href="#m1c204602eb" x="245.998783" y="242.769864" style="fill: #0072b2; stroke: #0072b2; stroke-linejoin: miter"/>
     <use xlink:href="#m1c204602eb" x="265.668492" y="235.76447" style="fill: #0072b2; stroke: #0072b2; stroke-linejoin: miter"/>
     <use xlink:href="#m1c204602eb" x="285.39209" y="242.769864" style="fill: #0072b2; stroke: #0072b2; stroke-linejoin: miter"/>
     <use xlink:href="#m1c204602eb" x="305.061799" y="239.270682" style="fill: #0072b2; stroke: #0072b2; stroke-linejoin: miter"/>
     <use xlink:href="#m1c204602eb" x="324.731508" y="239.270682" style="fill: #0072b2; stroke: #0072b2; stroke-linejoin: miter"/>
     <use xlink:href="#m1c204602eb" x="344.401217" y="246.261757" style="fill: #0072b2; stroke: #0072b2; stroke-linejoin: miter"/>
     <use xlink:href="#m1c204602eb" x="364.124815" y="239.270682" style="fill: #0072b2; stroke: #0072b2; stroke-linejoin: miter"/>
     <use xlink:href="#m1c204602eb" x="383.794524" y="228.730044" style="fill: #0072b2; stroke: #0072b2; stroke-linejoin: miter"/>
     <use xlink:href="#m1c204602eb" x="403.464233" y="239.270682" style="fill: #0072b2; stroke: #0072b2; stroke-linejoin: miter"/>
     <use xlink:href="#m1c204602eb" x="442.85754" y="291.010909" style="fill: #0072b2; stroke: #0072b2; stroke-linejoin: miter"/>
     <use xlink:href="#m1c204602eb" x="462.527249" y="263.613947" style="fill: #0072b2; stroke: #0072b2; stroke-linejoin: miter"/>
     <use xlink:href="#m1c204602eb" x="482.196958" y="267.063009" style="fill: #0072b2; stroke: #0072b2; stroke-linejoin: miter"/>
     <use xlink:href="#m1c204602eb" x="501.866667" y="267.063009" style="fill: #0072b2; stroke: #0072b2; stroke-linejoin: miter"/>
    </g>
   </g>
   <g id="line2d_22">
    <path d="M 88.533333 211.016206 
L 108.203042 201.43137 
L 127.926641 206.269743 
L 147.596349 210.343682 
L 167.266058 220.24369 
L 186.935767 226.626942 
L 206.659365 224.729658 
L 226.329074 243.639225 
L 245.998783 249.99683 
L 265.668492 245.971449 
L 285.39209 247.128774 
L 305.061799 242.464195 
L 324.731508 243.639225 
L 344.401217 252.829217 
L 364.124815 257.288497 
L 383.794524 263.81534 
L 403.464233 261.118994 
M 442.85754 261.660945 
L 462.527249 268.062032 
L 482.196958 270.67506 
L 501.866667 271.193968 
" clip-path="url(#p2eb2aa25f5)" style="fill: none; stroke: #d55e00; stroke-width: 1.5; stroke-linecap: square"/>
    <defs>
     <path id="mbbf4cbfad5" d="M -1.5 3 
L 0 1.5 
L 1.5 3 
L 3 1.5 
L 1.5 0 
L 3 -1.5 
L 1.5 -3 
L 0 -1.5 
L -1.5 -3 
L -3 -1.5 
L -1.5 0 
L -3 1.5 
z
" style="stroke: #d55e00; stroke-linejoin: miter"/>
    </defs>
    <g clip-path="url(#p2eb2aa25f5)">
     <use xlink:href="#mbbf4cbfad5" x="88.533333" y="211.016206" style="fill: #d55e00; stroke: #d55e00; stroke-linejoin: miter"/>
     <use xlink:href="#mbbf4cbfad5" x="108.203042" y="201.43137" style="fill: #d55e00; stroke: #d55e00; stroke-linejoin: miter"/>
     <use xlink:href="#mbbf4cbfad5" x="127.926641" y="206.269743" style="fill: #d55e00; stroke: #d55e00; stroke-linejoin: miter"/>
     <use xlink:href="#mbbf4cbfad5" x="147.596349" y="210.343682" style="fill: #d55e00; stroke: #d55e00; stroke-linejoin: miter"/>
     <use xlink:href="#mbbf4cbfad5" x="167.266058" y="220.24369" style="fill: #d55e00; stroke: #d55e00; stroke-linejoin: miter"/>
     <use xlink:href="#mbbf4cbfad5" x="186.935767" y="226.626942" style="fill: #d55e00; stroke: #d55e00; stroke-linejoin: miter"/>
     <use xlink:href="#mbbf4cbfad5" x="206.659365" y="224.729658" style="fill: #d55e00; stroke: #d55e00; stroke-linejoin: miter"/>
     <use xlink:href="#mbbf4cbfad5" x="226.329074" y="243.639225" style="fill: #d55e00; stroke: #d55e00; stroke-linejoin: miter"/>
     <use xlink:href="#mbbf4cbfad5" x="245.998783" y="249.99683" style="fill: #d55e00; stroke: #d55e00; stroke-linejoin: miter"/>
     <use xlink:href="#mbbf4cbfad5" x="265.668492" y="245.971449" style="fill: #d55e00; stroke: #d55e00; stroke-linejoin: miter"/>
     <use xlink:href="#mbbf4cbfad5" x="285.39209" y="247.128774" style="fill: #d55e00; stroke: #d55e00; stroke-linejoin: miter"/>
     <use xlink:href="#mbbf4cbfad5" x="305.061799" y="242.464195" style="fill: #d55e00; stroke: #d55e00; stroke-linejoin: miter"/>
     <use xlink:href="#mbbf4cbfad5" x="324.731508" y="243.639225" style="fill: #d55e00; stroke: #d55e00; stroke-linejoin: miter"/>
     <use xlink:href="#mbbf4cbfad5" x="344.401217" y="252.829217" style="fill: #d55e00; stroke: #d55e00; stroke-linejoin: miter"/>
     <use xlink:href="#mbbf4cbfad5" x="364.124815" y="257.288497" style="fill: #d55e00; stroke: #d55e00; stroke-linejoin: miter"/>
     <use xlink:href="#mbbf4cbfad5" x="383.794524" y="263.81534" style="fill: #d55e00; stroke: #d55e00; stroke-linejoin: miter"/>
     <use xlink:href="#mbbf4cbfad5" x="403.464233" y="261.118994" style="fill: #d55e00; stroke: #d55e00; stroke-linejoin: miter"/>
     <use xlink:href="#mbbf4cbfad5" x="442.85754" y="261.660945" style="fill: #d55e00; stroke: #d55e00; stroke-linejoin: miter"/>
     <use xlink:href="#mbbf4cbfad5" x="462.527249" y="268.062032" style="fill: #d55e00; stroke: #d55e00; stroke-linejoin: miter"/>
     <use xlink:href="#mbbf4cbfad5" x="482.196958" y="270.67506" style="fill: #d55e00; stroke: #d55e00; stroke-linejoin: miter"/>
     <use xlink:href="#mbbf4cbfad5" x="501.866667" y="271.193968" style="fill: #d55e00; stroke: #d55e00; stroke-linejoin: miter"/>
    </g>
   </g>
   <g id="line2d_23">
    <path d="M 88.533333 211.016206 
L 108.203042 207.048366 
L 127.926641 230.732516 
L 147.596349 222.870388 
L 167.266058 230.732516 
L 186.935767 254.125707 
L 206.659365 250.246781 
L 226.329074 242.465107 
L 245.998783 242.465107 
L 265.668492 226.805553 
L 285.39209 257.996691 
L 305.061799 257.996691 
L 324.731508 261.859734 
L 344.401217 254.125707 
L 364.124815 242.465107 
L 383.794524 261.859734 
L 403.464233 265.714836 
M 442.85754 288.681679 
L 462.527249 273.401608 
L 482.196958 257.996691 
L 501.866667 277.233277 
" clip-path="url(#p2eb2aa25f5)" style="fill: none; stroke: #cc79a7; stroke-width: 1.5; stroke-linecap: square"/>
    <defs>
     <path id="m9e32b90f67" d="M 0 -3 
L -2.85317 -0.927051 
L -1.763356 2.427051 
L 1.763356 2.427051 
L 2.85317 -0.927051 
z
" style="stroke: #cc79a7; stroke-linejoin: miter"/>
    </defs>
    <g clip-path="url(#p2eb2aa25f5)">
     <use xlink:href="#m9e32b90f67" x="88.533333" y="211.016206" style="fill: #cc79a7; stroke: #cc79a7; stroke-linejoin: miter"/>
     <use xlink:href="#m9e32b90f67" x="108.203042" y="207.048366" style="fill: #cc79a7; stroke: #cc79a7; stroke-linejoin: miter"/>
     <use xlink:href="#m9e32b90f67" x="127.926641" y="230.732516" style="fill: #cc79a7; stroke: #cc79a7; stroke-linejoin: miter"/>
     <use xlink:href="#m9e32b90f67" x="147.596349" y="222.870388" style="fill: #cc79a7; stroke: #cc79a7; stroke-linejoin: miter"/>
     <use xlink:href="#m9e32b90f67" x="167.266058" y="230.732516" style="fill: #cc79a7; stroke: #cc79a7; stroke-linejoin: miter"/>
     <use xlink:href="#m9e32b90f67" x="186.935767" y="254.125707" style="fill: #cc79a7; stroke: #cc79a7; stroke-linejoin: miter"/>
     <use xlink:href="#m9e32b90f67" x="206.659365" y="250.246781" style="fill: #cc79a7; stroke: #cc79a7; stroke-linejoin: miter"/>
     <use xlink:href="#m9e32b90f67" x="226.329074" y="242.465107" style="fill: #cc79a7; stroke: #cc79a7; stroke-linejoin: miter"/>
     <use xlink:href="#m9e32b90f67" x="245.998783" y="242.465107" style="fill: #cc79a7; stroke: #cc79a7; stroke-linejoin: miter"/>
     <use xlink:href="#m9e32b90f67" x="265.668492" y="226.805553" style="fill: #cc79a7; stroke: #cc79a7; stroke-linejoin: miter"/>
     <use xlink:href="#m9e32b90f67" x="285.39209" y="257.996691" style="fill: #cc79a7; stroke: #cc79a7; stroke-linejoin: miter"/>
     <use xlink:href="#m9e32b90f67" x="305.061799" y="257.996691" style="fill: #cc79a7; stroke: #cc79a7; stroke-linejoin: miter"/>
     <use xlink:href="#m9e32b90f67" x="324.731508" y="261.859734" style="fill: #cc79a7; stroke: #cc79a7; stroke-linejoin: miter"/>
     <use xlink:href="#m9e32b90f67" x="344.401217" y="254.125707" style="fill: #cc79a7; stroke: #cc79a7; stroke-linejoin: miter"/>
     <use xlink:href="#m9e32b90f67" x="364.124815" y="242.465107" style="fill: #cc79a7; stroke: #cc79a7; stroke-linejoin: miter"/>
     <use xlink:href="#m9e32b90f67" x="383.794524" y="261.859734" style="fill: #cc79a7; stroke: #cc79a7; stroke-linejoin: miter"/>
     <use xlink:href="#m9e32b90f67" x="403.464233" y="265.714836" style="fill: #cc79a7; stroke: #cc79a7; stroke-linejoin: miter"/>
     <use xlink:href="#m9e32b90f67" x="442.85754" y="288.681679" style="fill: #cc79a7; stroke: #cc79a7; stroke-linejoin: miter"/>
     <use xlink:href="#m9e32b90f67" x="462.527249" y="273.401608" style="fill: #cc79a7; stroke: #cc79a7; stroke-linejoin: miter"/>
     <use xlink:href="#m9e32b90f67" x="482.196958" y="257.996691" style="fill: #cc79a7; stroke: #cc79a7; stroke-linejoin: miter"/>
     <use xlink:href="#m9e32b90f67" x="501.866667" y="277.233277" style="fill: #cc79a7; stroke: #cc79a7; stroke-linejoin: miter"/>
    </g>
   </g>
   <g id="patch_3">
    <path d="M 72 302.4 
L 72 51.84 
" style="fill: none; stroke: #000000; stroke-width: 0.8; stroke-linejoin: miter; stroke-linecap: square"/>
   </g>
   <g id="patch_4">
    <path d="M 518.4 302.4 
L 518.4 51.84 
" style="fill: none; stroke: #000000; stroke-width: 0.8; stroke-linejoin: miter; stroke-linecap: square"/>
   </g>
   <g id="patch_5">
    <path d="M 72 302.4 
L 518.4 302.4 
" style="fill: none; stroke: #000000; stroke-width: 0.8; stroke-linejoin: miter; stroke-linecap: square"/>
   </g>
   <g id="patch_6">
    <path d="M 72 51.84 
L 518.4 51.84 
" style="fill: none; stroke: #000000; stroke-width: 0.8; stroke-linejoin: miter; stroke-linecap: square"/>
   </g>
   <g id="legend_1">
    <g id="text_17">
     <!-- Activity -->
     <g transform="translate(273.915625 355.2284) scale(0.1 -0.1)">
      <defs>
       <path id="HelveticaNowMicro-Regular-24" d="M 3610 1261 
L 1306 1261 
L 858 0 
L 186 0 
L 1984 4915 
L 2906 4915 
L 4762 0 
L 4064 0 
L 3610 1261 
z
M 3418 1805 
L 2547 4230 
L 2458 4538 
L 2368 4230 
L 1504 1805 
L 3418 1805 
z
" transform="scale(0.015625)"/>
       <path id="HelveticaNowMicro-Regular-5c" d="M 3578 3507 
L 2112 -499 
Q 1952 -928 1689 -1120 
Q 1427 -1312 1005 -1312 
L 602 -1312 
L 602 -787 
L 1018 -787 
Q 1242 -787 1366 -688 
Q 1491 -589 1581 -326 
L 1670 -70 
L 307 3507 
L 992 3507 
L 1971 755 
L 1984 653 
L 2918 3507 
L 3578 3507 
z
" transform="scale(0.015625)"/>
      </defs>
      <use xlink:href="#HelveticaNowMicro-Regular-24"/>
      <use xlink:href="#HelveticaNowMicro-Regular-46" transform="translate(77.296875 0)"/>
      <use xlink:href="#HelveticaNowMicro-Regular-57" transform="translate(139.796875 0)"/>
      <use xlink:href="#HelveticaNowMicro-Regular-4c" transform="translate(189.796875 0)"/>
      <use xlink:href="#HelveticaNowMicro-Regular-59" transform="translate(221.09375 0)"/>
      <use xlink:href="#HelveticaNowMicro-Regular-4c" transform="translate(283.6875 0)"/>
      <use xlink:href="#HelveticaNowMicro-Regular-57" transform="translate(314.984375 0)"/>
      <use xlink:href="#HelveticaNowMicro-Regular-5c" transform="translate(364.984375 0)"/>
     </g>
    </g>
    <g id="line2d_24">
     <path d="M 17.466406 367.5284 
L 27.466406 367.5284 
L 37.466406 367.5284 
" style="fill: none; stroke: #000000; stroke-width: 1.5; stroke-linecap: square"/>
     <g>
      <use xlink:href="#mdb53844678" x="27.466406" y="367.5284" style="stroke: #000000"/>
     </g>
    </g>
    <g id="text_18">
     <!-- Playing games -->
     <g transform="translate(45.466406 371.0284) scale(0.1 -0.1)">
      <defs>
       <path id="HelveticaNowMicro-Regular-33" d="M 2618 4915 
Q 3014 4915 3315 4803 
Q 3616 4691 3814 4492 
Q 4013 4294 4112 4016 
Q 4211 3738 4211 3405 
Q 4211 3085 4105 2813 
Q 4000 2541 3798 2345 
Q 3597 2150 3309 2041 
Q 3021 1933 2656 1933 
L 1408 1933 
L 1408 0 
L 749 0 
L 749 4915 
L 2618 4915 
z
M 2630 2458 
Q 3091 2458 3324 2714 
Q 3558 2970 3558 3405 
Q 3558 3872 3324 4128 
Q 3091 4384 2611 4384 
L 1408 4384 
L 1408 2458 
L 2630 2458 
z
" transform="scale(0.015625)"/>
       <path id="HelveticaNowMicro-Regular-4a" d="M 3757 3514 
L 3757 83 
Q 3757 -621 3334 -995 
Q 2912 -1370 2176 -1370 
Q 1478 -1370 1110 -1088 
Q 742 -806 621 -314 
L 1235 -256 
Q 1338 -576 1562 -733 
Q 1786 -890 2202 -890 
Q 2643 -890 2880 -662 
Q 3117 -435 3117 58 
L 3117 659 
Q 2714 224 2022 224 
Q 1677 224 1392 345 
Q 1107 467 902 688 
Q 698 909 582 1219 
Q 467 1530 467 1914 
Q 467 2304 572 2617 
Q 678 2931 880 3152 
Q 1082 3373 1370 3494 
Q 1658 3616 2022 3616 
Q 2387 3616 2668 3478 
Q 2950 3341 3155 3098 
L 3187 3514 
L 3757 3514 
z
M 2112 730 
Q 2470 730 2736 915 
Q 3002 1101 3117 1498 
L 3117 2362 
Q 3002 2746 2733 2925 
Q 2464 3104 2112 3104 
Q 1613 3104 1357 2781 
Q 1101 2458 1101 1920 
Q 1101 1395 1360 1062 
Q 1619 730 2112 730 
z
" transform="scale(0.015625)"/>
       <path id="HelveticaNowMicro-Regular-50" d="M 4710 3603 
Q 5293 3603 5632 3270 
Q 5971 2938 5971 2374 
L 5971 0 
L 5331 0 
L 5331 2202 
Q 5331 2618 5142 2842 
Q 4954 3066 4589 3066 
Q 4243 3066 4009 2867 
Q 3776 2669 3648 2323 
L 3648 0 
L 3008 0 
L 3008 2202 
Q 3008 2618 2819 2842 
Q 2630 3066 2266 3066 
Q 1920 3066 1686 2867 
Q 1453 2669 1325 2323 
L 1325 0 
L 685 0 
L 685 3507 
L 1267 3507 
L 1293 3040 
Q 1491 3309 1753 3456 
Q 2016 3603 2400 3603 
Q 2816 3603 3110 3433 
Q 3405 3264 3539 2925 
Q 3744 3251 4022 3427 
Q 4301 3603 4710 3603 
z
" transform="scale(0.015625)"/>
      </defs>
      <use xlink:href="#HelveticaNowMicro-Regular-33"/>
      <use xlink:href="#HelveticaNowMicro-Regular-4f" transform="translate(73.09375 0)"/>
      <use xlink:href="#HelveticaNowMicro-Regular-44" transform="translate(104.390625 0)"/>
      <use xlink:href="#HelveticaNowMicro-Regular-5c" transform="translate(168.984375 0)"/>
      <use xlink:href="#HelveticaNowMicro-Regular-4c" transform="translate(229.6875 0)"/>
      <use xlink:href="#HelveticaNowMicro-Regular-51" transform="translate(260.984375 0)"/>
      <use xlink:href="#HelveticaNowMicro-Regular-4a" transform="translate(328.578125 0)"/>
      <use xlink:href="#HelveticaNowMicro-Regular-3" transform="translate(397.984375 0)"/>
      <use xlink:href="#HelveticaNowMicro-Regular-4a" transform="translate(429.984375 0)"/>
      <use xlink:href="#HelveticaNowMicro-Regular-44" transform="translate(499.390625 0)"/>
      <use xlink:href="#HelveticaNowMicro-Regular-50" transform="translate(566.890625 0)"/>
      <use xlink:href="#HelveticaNowMicro-Regular-48" transform="translate(670.796875 0)"/>
      <use xlink:href="#HelveticaNowMicro-Regular-56" transform="translate(738.5 0)"/>
     </g>
    </g>
    <g id="line2d_25">
     <path d="M 17.466406 383.419025 
L 27.466406 383.419025 
L 37.466406 383.419025 
" style="fill: none; stroke: #e69f00; stroke-width: 1.5; stroke-linecap: square"/>
     <g>
      <use xlink:href="#m096d827c83" x="27.466406" y="383.419025" style="fill: #e69f00; stroke: #e69f00; stroke-linejoin: miter"/>
     </g>
    </g>
    <g id="text_19">
     <!-- Computer use for leisure, excluding games -->
     <g transform="translate(45.466406 386.919025) scale(0.1 -0.1)">
      <defs>
       <path id="HelveticaNowMicro-Regular-26" d="M 2886 -115 
Q 2381 -115 1952 61 
Q 1523 237 1212 569 
Q 902 902 729 1382 
Q 557 1862 557 2477 
Q 557 3091 736 3568 
Q 915 4045 1225 4368 
Q 1536 4691 1961 4860 
Q 2387 5030 2886 5030 
Q 3693 5030 4237 4659 
Q 4781 4288 4992 3610 
L 4371 3539 
Q 4186 3994 3808 4234 
Q 3430 4474 2874 4474 
Q 2515 4474 2211 4352 
Q 1907 4230 1686 3987 
Q 1466 3744 1341 3373 
Q 1216 3002 1216 2502 
Q 1216 2003 1337 1622 
Q 1459 1242 1680 986 
Q 1901 730 2208 598 
Q 2515 467 2886 467 
Q 3482 467 3878 736 
Q 4275 1005 4442 1568 
L 5030 1498 
Q 4832 730 4275 307 
Q 3718 -115 2886 -115 
z
" transform="scale(0.015625)"/>
       <path id="HelveticaNowMicro-Regular-58" d="M 3648 3507 
L 3648 0 
L 3059 0 
L 3034 467 
Q 2835 198 2572 51 
Q 2310 -96 1946 -96 
Q 1363 -96 1024 237 
Q 685 570 685 1146 
L 685 3507 
L 1325 3507 
L 1325 1274 
Q 1325 877 1517 659 
Q 1709 442 2067 442 
Q 2406 442 2643 640 
Q 2880 838 3008 1184 
L 3008 3507 
L 3648 3507 
z
" transform="scale(0.015625)"/>
       <path id="HelveticaNowMicro-Regular-f" d="M 698 -813 
L 800 -813 
Q 1056 -813 1171 -717 
Q 1286 -621 1286 -358 
L 1286 160 
L 691 0 
L 691 870 
L 1690 870 
L 1690 -333 
Q 1690 -794 1475 -1005 
Q 1261 -1216 800 -1216 
L 698 -1216 
L 698 -813 
z
" transform="scale(0.015625)"/>
       <path id="HelveticaNowMicro-Regular-5b" d="M 2938 0 
L 1978 1350 
L 1005 0 
L 307 0 
L 1670 1779 
L 416 3507 
L 1171 3507 
L 2029 2285 
L 2880 3507 
L 3584 3507 
L 2342 1850 
L 3693 0 
L 2938 0 
z
" transform="scale(0.015625)"/>
      </defs>
      <use xlink:href="#HelveticaNowMicro-Regular-26"/>
      <use xlink:href="#HelveticaNowMicro-Regular-52" transform="translate(84.703125 0)"/>
      <use xlink:href="#HelveticaNowMicro-Regular-50" transform="translate(154.5 0)"/>
      <use xlink:href="#HelveticaNowMicro-Regular-53" transform="translate(258.40625 0)"/>
      <use xlink:href="#HelveticaNowMicro-Regular-58" transform="translate(328.609375 0)"/>
      <use xlink:href="#HelveticaNowMicro-Regular-57" transform="translate(396.203125 0)"/>
      <use xlink:href="#HelveticaNowMicro-Regular-48" transform="translate(444.703125 0)"/>
      <use xlink:href="#HelveticaNowMicro-Regular-55" transform="translate(512.40625 0)"/>
      <use xlink:href="#HelveticaNowMicro-Regular-3" transform="translate(557.90625 0)"/>
      <use xlink:href="#HelveticaNowMicro-Regular-58" transform="translate(589.90625 0)"/>
      <use xlink:href="#HelveticaNowMicro-Regular-56" transform="translate(657.5 0)"/>
      <use xlink:href="#HelveticaNowMicro-Regular-48" transform="translate(721 0)"/>
      <use xlink:href="#HelveticaNowMicro-Regular-3" transform="translate(788.703125 0)"/>
      <use xlink:href="#HelveticaNowMicro-Regular-49" transform="translate(820.703125 0)"/>
      <use xlink:href="#HelveticaNowMicro-Regular-52" transform="translate(867 0)"/>
      <use xlink:href="#HelveticaNowMicro-Regular-55" transform="translate(936.796875 0)"/>
      <use xlink:href="#HelveticaNowMicro-Regular-3" transform="translate(982.296875 0)"/>
      <use xlink:href="#HelveticaNowMicro-Regular-4f" transform="translate(1014.296875 0)"/>
      <use xlink:href="#HelveticaNowMicro-Regular-48" transform="translate(1045.59375 0)"/>
      <use xlink:href="#HelveticaNowMicro-Regular-4c" transform="translate(1113.296875 0)"/>
      <use xlink:href="#HelveticaNowMicro-Regular-56" transform="translate(1144.59375 0)"/>
      <use xlink:href="#HelveticaNowMicro-Regular-58" transform="translate(1208.09375 0)"/>
      <use xlink:href="#HelveticaNowMicro-Regular-55" transform="translate(1275.6875 0)"/>
      <use xlink:href="#HelveticaNowMicro-Regular-48" transform="translate(1321.1875 0)"/>
      <use xlink:href="#HelveticaNowMicro-Regular-f" transform="translate(1388.890625 0)"/>
      <use xlink:href="#HelveticaNowMicro-Regular-3" transform="translate(1426.09375 0)"/>
      <use xlink:href="#HelveticaNowMicro-Regular-48" transform="translate(1458.09375 0)"/>
      <use xlink:href="#HelveticaNowMicro-Regular-5b" transform="translate(1521.890625 0)"/>
      <use xlink:href="#HelveticaNowMicro-Regular-46" transform="translate(1580.484375 0)"/>
      <use xlink:href="#HelveticaNowMicro-Regular-4f" transform="translate(1644.484375 0)"/>
      <use xlink:href="#HelveticaNowMicro-Regular-58" transform="translate(1675.78125 0)"/>
      <use xlink:href="#HelveticaNowMicro-Regular-47" transform="translate(1743.375 0)"/>
      <use xlink:href="#HelveticaNowMicro-Regular-4c" transform="translate(1813.578125 0)"/>
      <use xlink:href="#HelveticaNowMicro-Regular-51" transform="translate(1844.875 0)"/>
      <use xlink:href="#HelveticaNowMicro-Regular-4a" transform="translate(1912.46875 0)"/>
      <use xlink:href="#HelveticaNowMicro-Regular-3" transform="translate(1981.875 0)"/>
      <use xlink:href="#HelveticaNowMicro-Regular-4a" transform="translate(2013.875 0)"/>
      <use xlink:href="#HelveticaNowMicro-Regular-44" transform="translate(2083.28125 0)"/>
      <use xlink:href="#HelveticaNowMicro-Regular-50" transform="translate(2150.78125 0)"/>
      <use xlink:href="#HelveticaNowMicro-Regular-48" transform="translate(2254.6875 0)"/>
      <use xlink:href="#HelveticaNowMicro-Regular-56" transform="translate(2322.390625 0)"/>
     </g>
    </g>
    <g id="line2d_26">
     <path d="M 17.466406 399.30965 
L 27.466406 399.30965 
L 37.466406 399.30965 
" style="fill: none; stroke: #56b4e9; stroke-width: 1.5; stroke-linecap: square"/>
     <g>
      <use xlink:href="#m2f8b62012c" x="27.466406" y="399.30965" style="fill: #56b4e9; stroke: #56b4e9; stroke-linejoin: miter"/>
     </g>
    </g>
    <g id="text_20">
     <!-- Relaxing and thinking -->
     <g transform="translate(45.466406 402.80965) scale(0.1 -0.1)">
      <defs>
       <path id="HelveticaNowMicro-Regular-35" d="M 4518 0 
L 3872 0 
L 3674 1184 
Q 3597 1651 3385 1862 
Q 3174 2074 2752 2074 
L 1389 2074 
L 1389 0 
L 749 0 
L 749 4915 
L 3053 4915 
Q 3763 4915 4134 4579 
Q 4506 4243 4506 3654 
Q 4506 3155 4224 2832 
Q 3942 2509 3488 2342 
Q 3814 2272 4003 2057 
Q 4192 1843 4262 1453 
L 4518 0 
z
M 2662 2598 
Q 3226 2598 3546 2835 
Q 3866 3072 3866 3571 
Q 3866 3994 3613 4192 
Q 3360 4390 2861 4390 
L 1389 4390 
L 1389 2598 
L 2662 2598 
z
" transform="scale(0.015625)"/>
       <path id="HelveticaNowMicro-Regular-4b" d="M 2381 3603 
Q 2963 3603 3305 3270 
Q 3648 2938 3648 2362 
L 3648 0 
L 3008 0 
L 3008 2234 
Q 3008 2630 2813 2848 
Q 2618 3066 2266 3066 
Q 1920 3066 1686 2867 
Q 1453 2669 1325 2323 
L 1325 0 
L 685 0 
L 685 4915 
L 1325 4915 
L 1325 3085 
Q 1517 3334 1773 3468 
Q 2029 3603 2381 3603 
z
" transform="scale(0.015625)"/>
       <path id="HelveticaNowMicro-Regular-4e" d="M 1965 1875 
L 1325 1254 
L 1325 0 
L 685 0 
L 685 4915 
L 1325 4915 
L 1325 1830 
L 2963 3507 
L 3776 3507 
L 2381 2195 
L 3866 0 
L 3136 0 
L 1965 1875 
z
" transform="scale(0.015625)"/>
      </defs>
      <use xlink:href="#HelveticaNowMicro-Regular-35"/>
      <use xlink:href="#HelveticaNowMicro-Regular-48" transform="translate(77.796875 0)"/>
      <use xlink:href="#HelveticaNowMicro-Regular-4f" transform="translate(145.5 0)"/>
      <use xlink:href="#HelveticaNowMicro-Regular-44" transform="translate(176.796875 0)"/>
      <use xlink:href="#HelveticaNowMicro-Regular-5b" transform="translate(242.390625 0)"/>
      <use xlink:href="#HelveticaNowMicro-Regular-4c" transform="translate(304.890625 0)"/>
      <use xlink:href="#HelveticaNowMicro-Regular-51" transform="translate(336.1875 0)"/>
      <use xlink:href="#HelveticaNowMicro-Regular-4a" transform="translate(403.78125 0)"/>
      <use xlink:href="#HelveticaNowMicro-Regular-3" transform="translate(473.1875 0)"/>
      <use xlink:href="#HelveticaNowMicro-Regular-44" transform="translate(505.1875 0)"/>
      <use xlink:href="#HelveticaNowMicro-Regular-51" transform="translate(572.6875 0)"/>
      <use xlink:href="#HelveticaNowMicro-Regular-47" transform="translate(640.28125 0)"/>
      <use xlink:href="#HelveticaNowMicro-Regular-3" transform="translate(710.484375 0)"/>
      <use xlink:href="#HelveticaNowMicro-Regular-57" transform="translate(742.484375 0)"/>
      <use xlink:href="#HelveticaNowMicro-Regular-4b" transform="translate(792.484375 0)"/>
      <use xlink:href="#HelveticaNowMicro-Regular-4c" transform="translate(860.078125 0)"/>
      <use xlink:href="#HelveticaNowMicro-Regular-51" transform="translate(891.375 0)"/>
      <use xlink:href="#HelveticaNowMicro-Regular-4e" transform="translate(958.96875 0)"/>
      <use xlink:href="#HelveticaNowMicro-Regular-4c" transform="translate(1023.671875 0)"/>
      <use xlink:href="#HelveticaNowMicro-Regular-51" transform="translate(1054.96875 0)"/>
      <use xlink:href="#HelveticaNowMicro-Regular-4a" transform="translate(1122.5625 0)"/>
     </g>
    </g>
    <g id="line2d_27">
     <path d="M 17.466406 415.200275 
L 27.466406 415.200275 
L 37.466406 415.200275 
" style="fill: none; stroke: #009e73; stroke-width: 1.5; stroke-linecap: square"/>
     <g>
      <use xlink:href="#m4ea57459e9" x="27.466406" y="415.200275" style="fill: #009e73; stroke: #009e73; stroke-linejoin: miter"/>
     </g>
    </g>
    <g id="text_21">
     <!-- Watching TV -->
     <g transform="translate(45.466406 418.700275) scale(0.1 -0.1)">
      <defs>
       <path id="HelveticaNowMicro-Regular-3a" d="M 7162 4915 
L 5645 0 
L 4858 0 
L 3674 4410 
L 2490 0 
L 1709 0 
L 186 4915 
L 787 4915 
L 1958 986 
L 2106 410 
L 2214 986 
L 3226 4915 
L 4128 4915 
L 5133 986 
L 5248 429 
L 5382 986 
L 6560 4915 
L 7162 4915 
z
" transform="scale(0.015625)"/>
       <path id="HelveticaNowMicro-Regular-37" d="M 3974 4384 
L 2419 4384 
L 2419 0 
L 1760 0 
L 1760 4384 
L 198 4384 
L 198 4915 
L 3974 4915 
L 3974 4384 
z
" transform="scale(0.015625)"/>
       <path id="HelveticaNowMicro-Regular-39" d="M 4410 4915 
L 2682 0 
L 1914 0 
L 186 4915 
L 877 4915 
L 2221 864 
L 2310 550 
L 2394 858 
L 3731 4915 
L 4410 4915 
z
" transform="scale(0.015625)"/>
      </defs>
      <use xlink:href="#HelveticaNowMicro-Regular-3a"/>
      <use xlink:href="#HelveticaNowMicro-Regular-44" transform="translate(110.703125 0)"/>
      <use xlink:href="#HelveticaNowMicro-Regular-57" transform="translate(178.203125 0)"/>
      <use xlink:href="#HelveticaNowMicro-Regular-46" transform="translate(226.703125 0)"/>
      <use xlink:href="#HelveticaNowMicro-Regular-4b" transform="translate(290.703125 0)"/>
      <use xlink:href="#HelveticaNowMicro-Regular-4c" transform="translate(358.296875 0)"/>
      <use xlink:href="#HelveticaNowMicro-Regular-51" transform="translate(389.59375 0)"/>
      <use xlink:href="#HelveticaNowMicro-Regular-4a" transform="translate(457.1875 0)"/>
      <use xlink:href="#HelveticaNowMicro-Regular-3" transform="translate(526.59375 0)"/>
      <use xlink:href="#HelveticaNowMicro-Regular-37" transform="translate(558.59375 0)"/>
      <use xlink:href="#HelveticaNowMicro-Regular-39" transform="translate(623.796875 0)"/>
     </g>
    </g>
    <g id="line2d_28">
     <path d="M 304.055469 367.5284 
L 314.055469 367.5284 
L 324.055469 367.5284 
" style="fill: none; stroke: #f0e442; stroke-width: 1.5; stroke-linecap: square"/>
     <g>
      <use xlink:href="#me62d3a5b05" x="314.055469" y="367.5284" style="fill: #f0e442; stroke: #f0e442; stroke-linejoin: miter"/>
     </g>
    </g>
    <g id="text_22">
     <!-- Socializing &amp; communicating (not events) -->
     <g transform="translate(332.055469 371.0284) scale(0.1 -0.1)">
      <defs>
       <path id="HelveticaNowMicro-Regular-36" d="M 2515 -128 
Q 1613 -128 1094 249 
Q 576 627 448 1376 
L 1101 1440 
Q 1190 954 1523 685 
Q 1856 416 2534 416 
Q 3194 416 3536 649 
Q 3878 883 3878 1306 
Q 3878 1510 3801 1654 
Q 3725 1798 3581 1900 
Q 3437 2003 3238 2067 
Q 3040 2131 2790 2182 
L 2163 2310 
Q 1389 2470 1043 2787 
Q 698 3104 698 3661 
Q 698 4314 1178 4688 
Q 1658 5062 2541 5062 
Q 3014 5062 3356 4969 
Q 3699 4877 3929 4704 
Q 4160 4531 4288 4288 
Q 4416 4045 4461 3744 
L 3827 3680 
Q 3757 4109 3446 4313 
Q 3136 4518 2522 4518 
Q 1958 4518 1660 4313 
Q 1363 4109 1363 3725 
Q 1363 3546 1411 3418 
Q 1459 3290 1577 3194 
Q 1696 3098 1894 3027 
Q 2093 2957 2387 2893 
L 3008 2771 
Q 3437 2682 3728 2547 
Q 4019 2413 4198 2240 
Q 4378 2067 4458 1856 
Q 4538 1645 4538 1395 
Q 4538 1024 4394 739 
Q 4250 454 3984 262 
Q 3718 70 3347 -29 
Q 2976 -128 2515 -128 
z
" transform="scale(0.015625)"/>
       <path id="HelveticaNowMicro-Regular-5d" d="M 3565 538 
L 3565 0 
L 467 0 
L 467 429 
L 2630 2963 
L 531 2963 
L 531 3507 
L 3424 3507 
L 3424 3053 
L 1274 538 
L 3565 538 
z
" transform="scale(0.015625)"/>
       <path id="HelveticaNowMicro-Regular-9" d="M 4659 0 
L 4051 627 
Q 3738 243 3338 67 
Q 2938 -109 2438 -109 
Q 2048 -109 1725 -6 
Q 1402 96 1171 285 
Q 941 474 813 739 
Q 685 1005 685 1331 
Q 685 1818 998 2198 
Q 1312 2579 1971 2771 
L 1933 2810 
Q 1741 3002 1619 3155 
Q 1498 3309 1427 3443 
Q 1357 3578 1331 3699 
Q 1306 3821 1306 3949 
Q 1306 4480 1674 4787 
Q 2042 5094 2675 5094 
Q 2995 5094 3254 5014 
Q 3514 4934 3702 4784 
Q 3891 4634 3993 4419 
Q 4096 4205 4096 3942 
Q 4096 3462 3776 3148 
Q 3456 2835 2893 2656 
L 4083 1440 
Q 4173 1658 4233 1856 
Q 4294 2054 4326 2272 
L 4922 2195 
Q 4858 1882 4739 1603 
Q 4621 1325 4435 1082 
L 5491 0 
L 4659 0 
z
M 2682 4576 
Q 2534 4576 2400 4541 
Q 2266 4506 2163 4429 
Q 2061 4352 2000 4233 
Q 1939 4115 1939 3949 
Q 1939 3795 2012 3638 
Q 2086 3482 2304 3258 
L 2573 2982 
Q 2758 3040 2924 3129 
Q 3091 3219 3216 3340 
Q 3341 3462 3414 3612 
Q 3488 3763 3488 3930 
Q 3488 4083 3424 4204 
Q 3360 4326 3251 4409 
Q 3142 4493 2995 4534 
Q 2848 4576 2682 4576 
z
M 2496 422 
Q 2637 422 2790 444 
Q 2944 467 3101 524 
Q 3258 582 3414 688 
Q 3571 794 3718 966 
L 2310 2419 
Q 1843 2285 1584 2013 
Q 1325 1741 1325 1357 
Q 1325 941 1629 681 
Q 1933 422 2496 422 
z
" transform="scale(0.015625)"/>
       <path id="HelveticaNowMicro-Regular-b" d="M 1587 -1306 
Q 1062 -589 809 185 
Q 557 960 557 1894 
Q 557 2822 809 3622 
Q 1062 4422 1587 5139 
L 2144 5139 
Q 1677 4422 1437 3619 
Q 1197 2816 1197 1888 
Q 1197 966 1437 188 
Q 1677 -589 2144 -1306 
L 1587 -1306 
z
" transform="scale(0.015625)"/>
       <path id="HelveticaNowMicro-Regular-c" d="M 371 -1306 
Q 838 -589 1075 188 
Q 1312 966 1312 1888 
Q 1312 2816 1075 3619 
Q 838 4422 371 5139 
L 928 5139 
Q 1453 4422 1702 3622 
Q 1952 2822 1952 1894 
Q 1952 960 1702 185 
Q 1453 -589 928 -1306 
L 371 -1306 
z
" transform="scale(0.015625)"/>
      </defs>
      <use xlink:href="#HelveticaNowMicro-Regular-36"/>
      <use xlink:href="#HelveticaNowMicro-Regular-52" transform="translate(77.796875 0)"/>
      <use xlink:href="#HelveticaNowMicro-Regular-46" transform="translate(147.59375 0)"/>
      <use xlink:href="#HelveticaNowMicro-Regular-4c" transform="translate(211.59375 0)"/>
      <use xlink:href="#HelveticaNowMicro-Regular-44" transform="translate(242.890625 0)"/>
      <use xlink:href="#HelveticaNowMicro-Regular-4f" transform="translate(310.390625 0)"/>
      <use xlink:href="#HelveticaNowMicro-Regular-4c" transform="translate(341.6875 0)"/>
      <use xlink:href="#HelveticaNowMicro-Regular-5d" transform="translate(372.984375 0)"/>
      <use xlink:href="#HelveticaNowMicro-Regular-4c" transform="translate(435.984375 0)"/>
      <use xlink:href="#HelveticaNowMicro-Regular-51" transform="translate(467.28125 0)"/>
      <use xlink:href="#HelveticaNowMicro-Regular-4a" transform="translate(534.875 0)"/>
      <use xlink:href="#HelveticaNowMicro-Regular-3" transform="translate(604.28125 0)"/>
      <use xlink:href="#HelveticaNowMicro-Regular-9" transform="translate(636.28125 0)"/>
      <use xlink:href="#HelveticaNowMicro-Regular-3" transform="translate(725.78125 0)"/>
      <use xlink:href="#HelveticaNowMicro-Regular-46" transform="translate(757.78125 0)"/>
      <use xlink:href="#HelveticaNowMicro-Regular-52" transform="translate(821.78125 0)"/>
      <use xlink:href="#HelveticaNowMicro-Regular-50" transform="translate(891.578125 0)"/>
      <use xlink:href="#HelveticaNowMicro-Regular-50" transform="translate(995.484375 0)"/>
      <use xlink:href="#HelveticaNowMicro-Regular-58" transform="translate(1099.390625 0)"/>
      <use xlink:href="#HelveticaNowMicro-Regular-51" transform="translate(1166.984375 0)"/>
      <use xlink:href="#HelveticaNowMicro-Regular-4c" transform="translate(1234.578125 0)"/>
      <use xlink:href="#HelveticaNowMicro-Regular-46" transform="translate(1265.875 0)"/>
      <use xlink:href="#HelveticaNowMicro-Regular-44" transform="translate(1329.875 0)"/>
      <use xlink:href="#HelveticaNowMicro-Regular-57" transform="translate(1397.375 0)"/>
      <use xlink:href="#HelveticaNowMicro-Regular-4c" transform="translate(1447.375 0)"/>
      <use xlink:href="#HelveticaNowMicro-Regular-51" transform="translate(1478.671875 0)"/>
      <use xlink:href="#HelveticaNowMicro-Regular-4a" transform="translate(1546.265625 0)"/>
      <use xlink:href="#HelveticaNowMicro-Regular-3" transform="translate(1615.671875 0)"/>
      <use xlink:href="#HelveticaNowMicro-Regular-b" transform="translate(1647.671875 0)"/>
      <use xlink:href="#HelveticaNowMicro-Regular-51" transform="translate(1686.96875 0)"/>
      <use xlink:href="#HelveticaNowMicro-Regular-52" transform="translate(1754.5625 0)"/>
      <use xlink:href="#HelveticaNowMicro-Regular-57" transform="translate(1822.859375 0)"/>
      <use xlink:href="#HelveticaNowMicro-Regular-3" transform="translate(1872.859375 0)"/>
      <use xlink:href="#HelveticaNowMicro-Regular-48" transform="translate(1904.859375 0)"/>
      <use xlink:href="#HelveticaNowMicro-Regular-59" transform="translate(1969.65625 0)"/>
      <use xlink:href="#HelveticaNowMicro-Regular-48" transform="translate(2029.34375 0)"/>
      <use xlink:href="#HelveticaNowMicro-Regular-51" transform="translate(2097.046875 0)"/>
      <use xlink:href="#HelveticaNowMicro-Regular-57" transform="translate(2164.640625 0)"/>
      <use xlink:href="#HelveticaNowMicro-Regular-56" transform="translate(2214.640625 0)"/>
      <use xlink:href="#HelveticaNowMicro-Regular-c" transform="translate(2278.140625 0)"/>
     </g>
    </g>
    <g id="line2d_29">
     <path d="M 304.055469 383.419025 
L 314.055469 383.419025 
L 324.055469 383.419025 
" style="fill: none; stroke: #0072b2; stroke-width: 1.5; stroke-linecap: square"/>
     <g>
      <use xlink:href="#m1c204602eb" x="314.055469" y="383.419025" style="fill: #0072b2; stroke: #0072b2; stroke-linejoin: miter"/>
     </g>
    </g>
    <g id="text_23">
     <!-- Arts and entertainment (other than sports) -->
     <g transform="translate(332.055469 386.919025) scale(0.1 -0.1)">
      <use xlink:href="#HelveticaNowMicro-Regular-24"/>
      <use xlink:href="#HelveticaNowMicro-Regular-55" transform="translate(77.296875 0)"/>
      <use xlink:href="#HelveticaNowMicro-Regular-57" transform="translate(126.703125 0)"/>
      <use xlink:href="#HelveticaNowMicro-Regular-56" transform="translate(176.703125 0)"/>
      <use xlink:href="#HelveticaNowMicro-Regular-3" transform="translate(240.203125 0)"/>
      <use xlink:href="#HelveticaNowMicro-Regular-44" transform="translate(272.203125 0)"/>
      <use xlink:href="#HelveticaNowMicro-Regular-51" transform="translate(339.703125 0)"/>
      <use xlink:href="#HelveticaNowMicro-Regular-47" transform="translate(407.296875 0)"/>
      <use xlink:href="#HelveticaNowMicro-Regular-3" transform="translate(477.5 0)"/>
      <use xlink:href="#HelveticaNowMicro-Regular-48" transform="translate(509.5 0)"/>
      <use xlink:href="#HelveticaNowMicro-Regular-51" transform="translate(577.203125 0)"/>
      <use xlink:href="#HelveticaNowMicro-Regular-57" transform="translate(644.796875 0)"/>
      <use xlink:href="#HelveticaNowMicro-Regular-48" transform="translate(693.296875 0)"/>
      <use xlink:href="#HelveticaNowMicro-Regular-55" transform="translate(761 0)"/>
      <use xlink:href="#HelveticaNowMicro-Regular-57" transform="translate(810.40625 0)"/>
      <use xlink:href="#HelveticaNowMicro-Regular-44" transform="translate(860.40625 0)"/>
      <use xlink:href="#HelveticaNowMicro-Regular-4c" transform="translate(927.90625 0)"/>
      <use xlink:href="#HelveticaNowMicro-Regular-51" transform="translate(959.203125 0)"/>
      <use xlink:href="#HelveticaNowMicro-Regular-50" transform="translate(1026.796875 0)"/>
      <use xlink:href="#HelveticaNowMicro-Regular-48" transform="translate(1130.703125 0)"/>
      <use xlink:href="#HelveticaNowMicro-Regular-51" transform="translate(1198.40625 0)"/>
      <use xlink:href="#HelveticaNowMicro-Regular-57" transform="translate(1266 0)"/>
      <use xlink:href="#HelveticaNowMicro-Regular-3" transform="translate(1316 0)"/>
      <use xlink:href="#HelveticaNowMicro-Regular-b" transform="translate(1348 0)"/>
      <use xlink:href="#HelveticaNowMicro-Regular-52" transform="translate(1387.296875 0)"/>
      <use xlink:href="#HelveticaNowMicro-Regular-57" transform="translate(1455.59375 0)"/>
      <use xlink:href="#HelveticaNowMicro-Regular-4b" transform="translate(1505.59375 0)"/>
      <use xlink:href="#HelveticaNowMicro-Regular-48" transform="translate(1573.1875 0)"/>
      <use xlink:href="#HelveticaNowMicro-Regular-55" transform="translate(1640.890625 0)"/>
      <use xlink:href="#HelveticaNowMicro-Regular-3" transform="translate(1686.390625 0)"/>
      <use xlink:href="#HelveticaNowMicro-Regular-57" transform="translate(1718.390625 0)"/>
      <use xlink:href="#HelveticaNowMicro-Regular-4b" transform="translate(1768.390625 0)"/>
      <use xlink:href="#HelveticaNowMicro-Regular-44" transform="translate(1835.984375 0)"/>
      <use xlink:href="#HelveticaNowMicro-Regular-51" transform="translate(1903.484375 0)"/>
      <use xlink:href="#HelveticaNowMicro-Regular-3" transform="translate(1971.078125 0)"/>
      <use xlink:href="#HelveticaNowMicro-Regular-56" transform="translate(2003.078125 0)"/>
      <use xlink:href="#HelveticaNowMicro-Regular-53" transform="translate(2066.578125 0)"/>
      <use xlink:href="#HelveticaNowMicro-Regular-52" transform="translate(2136.78125 0)"/>
      <use xlink:href="#HelveticaNowMicro-Regular-55" transform="translate(2206.578125 0)"/>
      <use xlink:href="#HelveticaNowMicro-Regular-57" transform="translate(2255.984375 0)"/>
      <use xlink:href="#HelveticaNowMicro-Regular-56" transform="translate(2305.984375 0)"/>
      <use xlink:href="#HelveticaNowMicro-Regular-c" transform="translate(2369.484375 0)"/>
     </g>
    </g>
    <g id="line2d_30">
     <path d="M 304.055469 399.20965 
L 314.055469 399.20965 
L 324.055469 399.20965 
" style="fill: none; stroke: #d55e00; stroke-width: 1.5; stroke-linecap: square"/>
     <g>
      <use xlink:href="#mbbf4cbfad5" x="314.055469" y="399.20965" style="fill: #d55e00; stroke: #d55e00; stroke-linejoin: miter"/>
     </g>
    </g>
    <g id="text_24">
     <!-- Reading for personal interest -->
     <g transform="translate(332.055469 402.70965) scale(0.1 -0.1)">
      <use xlink:href="#HelveticaNowMicro-Regular-35"/>
      <use xlink:href="#HelveticaNowMicro-Regular-48" transform="translate(77.796875 0)"/>
      <use xlink:href="#HelveticaNowMicro-Regular-44" transform="translate(145.5 0)"/>
      <use xlink:href="#HelveticaNowMicro-Regular-47" transform="translate(213 0)"/>
      <use xlink:href="#HelveticaNowMicro-Regular-4c" transform="translate(283.203125 0)"/>
      <use xlink:href="#HelveticaNowMicro-Regular-51" transform="translate(314.5 0)"/>
      <use xlink:href="#HelveticaNowMicro-Regular-4a" transform="translate(382.09375 0)"/>
      <use xlink:href="#HelveticaNowMicro-Regular-3" transform="translate(451.5 0)"/>
      <use xlink:href="#HelveticaNowMicro-Regular-49" transform="translate(483.5 0)"/>
      <use xlink:href="#HelveticaNowMicro-Regular-52" transform="translate(529.796875 0)"/>
      <use xlink:href="#HelveticaNowMicro-Regular-55" transform="translate(599.59375 0)"/>
      <use xlink:href="#HelveticaNowMicro-Regular-3" transform="translate(645.09375 0)"/>
      <use xlink:href="#HelveticaNowMicro-Regular-53" transform="translate(677.09375 0)"/>
      <use xlink:href="#HelveticaNowMicro-Regular-48" transform="translate(747.296875 0)"/>
      <use xlink:href="#HelveticaNowMicro-Regular-55" transform="translate(815 0)"/>
      <use xlink:href="#HelveticaNowMicro-Regular-56" transform="translate(860.5 0)"/>
      <use xlink:href="#HelveticaNowMicro-Regular-52" transform="translate(924 0)"/>
      <use xlink:href="#HelveticaNowMicro-Regular-51" transform="translate(993.796875 0)"/>
      <use xlink:href="#HelveticaNowMicro-Regular-44" transform="translate(1061.390625 0)"/>
      <use xlink:href="#HelveticaNowMicro-Regular-4f" transform="translate(1128.890625 0)"/>
      <use xlink:href="#HelveticaNowMicro-Regular-3" transform="translate(1160.1875 0)"/>
      <use xlink:href="#HelveticaNowMicro-Regular-4c" transform="translate(1192.1875 0)"/>
      <use xlink:href="#HelveticaNowMicro-Regular-51" transform="translate(1223.484375 0)"/>
      <use xlink:href="#HelveticaNowMicro-Regular-57" transform="translate(1291.078125 0)"/>
      <use xlink:href="#HelveticaNowMicro-Regular-48" transform="translate(1339.578125 0)"/>
      <use xlink:href="#HelveticaNowMicro-Regular-55" transform="translate(1407.28125 0)"/>
      <use xlink:href="#HelveticaNowMicro-Regular-48" transform="translate(1452.78125 0)"/>
      <use xlink:href="#HelveticaNowMicro-Regular-56" transform="translate(1520.484375 0)"/>
      <use xlink:href="#HelveticaNowMicro-Regular-57" transform="translate(1583.984375 0)"/>
     </g>
    </g>
    <g id="line2d_31">
     <path d="M 304.055469 415.100275 
L 314.055469 415.100275 
L 324.055469 415.100275 
" style="fill: none; stroke: #cc79a7; stroke-width: 1.5; stroke-linecap: square"/>
     <g>
      <use xlink:href="#m9e32b90f67" x="314.055469" y="415.100275" style="fill: #cc79a7; stroke: #cc79a7; stroke-linejoin: miter"/>
     </g>
    </g>
    <g id="text_25">
     <!-- Attending or hosting social events -->
     <g transform="translate(332.055469 418.600275) scale(0.1 -0.1)">
      <use xlink:href="#HelveticaNowMicro-Regular-24"/>
      <use xlink:href="#HelveticaNowMicro-Regular-57" transform="translate(77.296875 0)"/>
      <use xlink:href="#HelveticaNowMicro-Regular-57" transform="translate(127.296875 0)"/>
      <use xlink:href="#HelveticaNowMicro-Regular-48" transform="translate(175.796875 0)"/>
      <use xlink:href="#HelveticaNowMicro-Regular-51" transform="translate(243.5 0)"/>
      <use xlink:href="#HelveticaNowMicro-Regular-47" transform="translate(311.09375 0)"/>
      <use xlink:href="#HelveticaNowMicro-Regular-4c" transform="translate(381.296875 0)"/>
      <use xlink:href="#HelveticaNowMicro-Regular-51" transform="translate(412.59375 0)"/>
      <use xlink:href="#HelveticaNowMicro-Regular-4a" transform="translate(480.1875 0)"/>
      <use xlink:href="#HelveticaNowMicro-Regular-3" transform="translate(549.59375 0)"/>
      <use xlink:href="#HelveticaNowMicro-Regular-52" transform="translate(581.59375 0)"/>
      <use xlink:href="#HelveticaNowMicro-Regular-55" transform="translate(651.390625 0)"/>
      <use xlink:href="#HelveticaNowMicro-Regular-3" transform="translate(696.890625 0)"/>
      <use xlink:href="#HelveticaNowMicro-Regular-4b" transform="translate(728.890625 0)"/>
      <use xlink:href="#HelveticaNowMicro-Regular-52" transform="translate(796.484375 0)"/>
      <use xlink:href="#HelveticaNowMicro-Regular-56" transform="translate(866.28125 0)"/>
      <use xlink:href="#HelveticaNowMicro-Regular-57" transform="translate(929.78125 0)"/>
      <use xlink:href="#HelveticaNowMicro-Regular-4c" transform="translate(979.78125 0)"/>
      <use xlink:href="#HelveticaNowMicro-Regular-51" transform="translate(1011.078125 0)"/>
      <use xlink:href="#HelveticaNowMicro-Regular-4a" transform="translate(1078.671875 0)"/>
      <use xlink:href="#HelveticaNowMicro-Regular-3" transform="translate(1148.078125 0)"/>
      <use xlink:href="#HelveticaNowMicro-Regular-56" transform="translate(1180.078125 0)"/>
      <use xlink:href="#HelveticaNowMicro-Regular-52" transform="translate(1243.578125 0)"/>
      <use xlink:href="#HelveticaNowMicro-Regular-46" transform="translate(1313.375 0)"/>
      <use xlink:href="#HelveticaNowMicro-Regular-4c" transform="translate(1377.375 0)"/>
      <use xlink:href="#HelveticaNowMicro-Regular-44" transform="translate(1408.671875 0)"/>
      <use xlink:href="#HelveticaNowMicro-Regular-4f" transform="translate(1476.171875 0)"/>
      <use xlink:href="#HelveticaNowMicro-Regular-3" transform="translate(1507.46875 0)"/>
      <use xlink:href="#HelveticaNowMicro-Regular-48" transform="translate(1539.46875 0)"/>
      <use xlink:href="#HelveticaNowMicro-Regular-59" transform="translate(1604.265625 0)"/>
      <use xlink:href="#HelveticaNowMicro-Regular-48" transform="translate(1663.953125 0)"/>
      <use xlink:href="#HelveticaNowMicro-Regular-51" transform="translate(1731.65625 0)"/>
      <use xlink:href="#HelveticaNowMicro-Regular-57" transform="translate(1799.25 0)"/>
      <use xlink:href="#HelveticaNowMicro-Regular-56" transform="translate(1849.25 0)"/>
     </g>
    </g>
   </g>
  </g>
 </g>
 <defs>
  <clipPath id="p2eb2aa25f5">
   <rect x="72" y="51.84" width="446.4" height="250.56"/>
  </clipPath>
 </defs>
</svg>
