<?xml version="1.0" encoding="utf-8" standalone="no"?>
<!DOCTYPE svg PUBLIC "-//W3C//DTD SVG 1.1//EN"
  "http://www.w3.org/Graphics/SVG/1.1/DTD/svg11.dtd">
<svg xmlns:xlink="http://www.w3.org/1999/xlink" width="576pt" height="432pt" viewBox="0 0 576 432" xmlns="http://www.w3.org/2000/svg" version="1.1">
 <metadata>
  <rdf:RDF xmlns:dc="http://purl.org/dc/elements/1.1/" xmlns:cc="http://creativecommons.org/ns#" xmlns:rdf="http://www.w3.org/1999/02/22-rdf-syntax-ns#">
   <cc:Work>
    <dc:type rdf:resource="http://purl.org/dc/dcmitype/StillImage"/>
    <dc:date>2026-06-03T14:06:55.730983</dc:date>
    <dc:format>image/svg+xml</dc:format>
    <dc:creator>
     <cc:Agent>
      <dc:title>Matplotlib v3.10.9, https://matplotlib.org/</dc:title>
     </cc:Agent>
    </dc:creator>
   </cc:Work>
  </rdf:RDF>
 </metadata>
 <defs>
  <style type="text/css">*{stroke-linejoin: round; stroke-linecap: butt}</style>
 </defs>
 <g id="figure_1">
  <g id="patch_1">
   <path d="M 0 432 
L 576 432 
L 576 0 
L 0 0 
z
" style="fill: #ffffff"/>
  </g>
  <g id="axes_1">
   <g id="patch_2">
    <path d="M 72 384.48 
L 518.4 384.48 
L 518.4 51.84 
L 72 51.84 
z
" style="fill: #ffffff"/>
   </g>
   <g id="matplotlib.axis_1">
    <g id="xtick_1">
     <g id="line2d_1">
      <defs>
       <path id="m8cbcae3acf" d="M 0 0 
L 0 3.5 
" style="stroke: #000000; stroke-width: 0.8"/>
      </defs>
      <g>
       <use xlink:href="#m8cbcae3acf" x="88.533333" y="384.48" style="stroke: #000000; stroke-width: 0.8"/>
      </g>
     </g>
     <g id="text_1">
      <!-- 2004 -->
      <g transform="translate(73.514583 399.159688) scale(0.1 -0.1)">
       <defs>
        <path id="HelveticaNowMicro-Regular-32" d="M 634 0 
Q 634 627 928 1078 
Q 1222 1530 1882 1926 
L 2656 2400 
Q 3059 2643 3248 2886 
Q 3437 3130 3437 3494 
Q 3437 3936 3174 4182 
Q 2912 4429 2413 4429 
Q 1914 4429 1645 4169 
Q 1376 3910 1376 3430 
L 1376 3347 
L 736 3347 
L 736 3411 
Q 736 3776 851 4070 
Q 966 4365 1184 4576 
Q 1402 4787 1715 4899 
Q 2029 5011 2426 5011 
Q 2797 5011 3101 4912 
Q 3405 4813 3622 4621 
Q 3840 4429 3961 4150 
Q 4083 3872 4083 3507 
Q 4083 3270 4022 3056 
Q 3962 2842 3824 2640 
Q 3686 2438 3462 2246 
Q 3238 2054 2912 1862 
L 2445 1587 
Q 2189 1434 2009 1312 
Q 1830 1190 1715 1075 
Q 1600 960 1539 845 
Q 1478 730 1466 595 
L 4173 595 
L 4173 0 
L 634 0 
z
" transform="scale(0.015625)"/>
        <path id="HelveticaNowMicro-Regular-30" d="M 2406 -102 
Q 1478 -102 1001 538 
Q 525 1178 525 2458 
Q 525 3738 1001 4374 
Q 1478 5011 2406 5011 
Q 3328 5011 3805 4374 
Q 4282 3738 4282 2458 
Q 4282 1178 3805 538 
Q 3328 -102 2406 -102 
z
M 2406 454 
Q 2739 454 2972 588 
Q 3206 723 3356 982 
Q 3507 1242 3574 1613 
Q 3642 1984 3642 2458 
Q 3642 2931 3574 3302 
Q 3507 3674 3356 3933 
Q 3206 4192 2972 4326 
Q 2739 4461 2406 4461 
Q 2074 4461 1840 4326 
Q 1606 4192 1456 3933 
Q 1306 3674 1238 3302 
Q 1171 2931 1171 2458 
Q 1171 1984 1238 1613 
Q 1306 1242 1456 982 
Q 1606 723 1840 588 
Q 2074 454 2406 454 
z
" transform="scale(0.015625)"/>
        <path id="HelveticaNowMicro-Regular-34" d="M 4326 1734 
L 4326 1210 
L 3565 1280 
L 3565 0 
L 2957 0 
L 2957 1280 
L 493 1210 
L 493 1677 
L 2573 4915 
L 3565 4915 
L 3565 1670 
L 4326 1734 
z
M 2957 4486 
L 2938 4486 
L 1171 1728 
L 2957 1670 
L 2957 4486 
z
" transform="scale(0.015625)"/>
       </defs>
       <use xlink:href="#HelveticaNowMicro-Regular-32"/>
       <use xlink:href="#HelveticaNowMicro-Regular-30" transform="translate(75.099991 0)"/>
       <use xlink:href="#HelveticaNowMicro-Regular-30" transform="translate(150.199982 0)"/>
       <use xlink:href="#HelveticaNowMicro-Regular-34" transform="translate(225.299973 0)"/>
      </g>
     </g>
    </g>
    <g id="xtick_2">
     <g id="line2d_2">
      <g>
       <use xlink:href="#m8cbcae3acf" x="157.4327" y="384.48" style="stroke: #000000; stroke-width: 0.8"/>
      </g>
     </g>
     <g id="text_2">
      <!-- 2007 -->
      <g transform="translate(142.85145 399.159688) scale(0.1 -0.1)">
       <defs>
        <path id="HelveticaNowMicro-Regular-37" d="M 1498 0 
Q 1677 1312 2157 2387 
Q 2637 3462 3334 4294 
L 627 4294 
L 627 4915 
L 4186 4915 
L 4186 4435 
Q 3283 3533 2793 2425 
Q 2304 1318 2170 0 
L 1498 0 
z
" transform="scale(0.015625)"/>
       </defs>
       <use xlink:href="#HelveticaNowMicro-Regular-32"/>
       <use xlink:href="#HelveticaNowMicro-Regular-30" transform="translate(75.099991 0)"/>
       <use xlink:href="#HelveticaNowMicro-Regular-30" transform="translate(150.199982 0)"/>
       <use xlink:href="#HelveticaNowMicro-Regular-37" transform="translate(216.549973 0)"/>
      </g>
     </g>
    </g>
    <g id="xtick_3">
     <g id="line2d_3">
      <g>
       <use xlink:href="#m8cbcae3acf" x="226.332066" y="384.48" style="stroke: #000000; stroke-width: 0.8"/>
      </g>
     </g>
     <g id="text_3">
      <!-- 2010 -->
      <g transform="translate(212.407847 399.159688) scale(0.1 -0.1)">
       <defs>
        <path id="HelveticaNowMicro-Regular-31" d="M 1632 3482 
L 371 3482 
L 371 3949 
L 435 3949 
Q 736 3949 960 4003 
Q 1184 4058 1344 4186 
Q 1606 4390 1683 4838 
L 1696 4915 
L 2291 4915 
L 2291 0 
L 1632 0 
L 1632 3482 
z
" transform="scale(0.015625)"/>
       </defs>
       <use xlink:href="#HelveticaNowMicro-Regular-32"/>
       <use xlink:href="#HelveticaNowMicro-Regular-30" transform="translate(75.099991 0)"/>
       <use xlink:href="#HelveticaNowMicro-Regular-31" transform="translate(150.199982 0)"/>
       <use xlink:href="#HelveticaNowMicro-Regular-30" transform="translate(203.399979 0)"/>
      </g>
     </g>
    </g>
    <g id="xtick_4">
     <g id="line2d_4">
      <g>
       <use xlink:href="#m8cbcae3acf" x="295.231432" y="384.48" style="stroke: #000000; stroke-width: 0.8"/>
      </g>
     </g>
     <g id="text_4">
      <!-- 2013 -->
      <g transform="translate(281.307213 399.159688) scale(0.1 -0.1)">
       <defs>
        <path id="HelveticaNowMicro-Regular-33" d="M 2400 -90 
Q 1619 -90 1158 300 
Q 698 691 627 1440 
L 1286 1498 
Q 1389 467 2426 467 
Q 2995 467 3260 732 
Q 3526 998 3526 1402 
Q 3526 1850 3244 2093 
Q 2963 2336 2438 2336 
L 1978 2336 
L 1978 2880 
L 2432 2880 
Q 2874 2880 3114 3097 
Q 3354 3315 3354 3680 
Q 3354 4083 3085 4281 
Q 2816 4480 2374 4480 
Q 1869 4480 1609 4230 
Q 1350 3981 1286 3546 
L 659 3610 
Q 742 4288 1171 4659 
Q 1600 5030 2374 5030 
Q 2758 5030 3059 4937 
Q 3360 4845 3568 4675 
Q 3776 4506 3885 4266 
Q 3994 4026 3994 3738 
Q 3994 3347 3808 3081 
Q 3622 2816 3200 2662 
L 3200 2650 
Q 3718 2534 3948 2208 
Q 4179 1882 4179 1408 
Q 4179 1056 4051 777 
Q 3923 499 3689 307 
Q 3456 115 3126 12 
Q 2797 -90 2400 -90 
z
" transform="scale(0.015625)"/>
       </defs>
       <use xlink:href="#HelveticaNowMicro-Regular-32"/>
       <use xlink:href="#HelveticaNowMicro-Regular-30" transform="translate(75.099991 0)"/>
       <use xlink:href="#HelveticaNowMicro-Regular-31" transform="translate(150.199982 0)"/>
       <use xlink:href="#HelveticaNowMicro-Regular-33" transform="translate(203.399979 0)"/>
      </g>
     </g>
    </g>
    <g id="xtick_5">
     <g id="line2d_5">
      <g>
       <use xlink:href="#m8cbcae3acf" x="364.067934" y="384.48" style="stroke: #000000; stroke-width: 0.8"/>
      </g>
     </g>
     <g id="text_5">
      <!-- 2016 -->
      <g transform="translate(350.143715 399.159688) scale(0.1 -0.1)">
       <defs>
        <path id="HelveticaNowMicro-Regular-36" d="M 2592 3174 
Q 2950 3174 3244 3062 
Q 3539 2950 3750 2739 
Q 3962 2528 4080 2230 
Q 4198 1933 4198 1555 
Q 4198 1184 4080 880 
Q 3962 576 3741 358 
Q 3520 141 3200 19 
Q 2880 -102 2477 -102 
Q 2048 -102 1702 51 
Q 1357 205 1082 531 
Q 960 678 870 848 
Q 781 1018 723 1222 
Q 666 1427 640 1680 
Q 614 1933 614 2246 
Q 614 2816 700 3318 
Q 787 3821 1004 4198 
Q 1222 4576 1593 4793 
Q 1965 5011 2534 5011 
Q 3174 5011 3593 4736 
Q 4013 4461 4147 3949 
L 3501 3853 
Q 3430 4122 3200 4301 
Q 2970 4480 2522 4480 
Q 2227 4480 1996 4377 
Q 1766 4275 1603 4044 
Q 1440 3814 1353 3440 
Q 1267 3066 1254 2522 
Q 1459 2848 1808 3011 
Q 2157 3174 2592 3174 
z
M 2483 448 
Q 2976 448 3267 729 
Q 3558 1011 3558 1523 
Q 3558 2042 3270 2342 
Q 2982 2643 2490 2643 
Q 2061 2643 1725 2396 
Q 1389 2150 1280 1645 
Q 1312 1318 1389 1139 
Q 1466 960 1594 826 
Q 1786 614 2016 531 
Q 2246 448 2483 448 
z
" transform="scale(0.015625)"/>
       </defs>
       <use xlink:href="#HelveticaNowMicro-Regular-32"/>
       <use xlink:href="#HelveticaNowMicro-Regular-30" transform="translate(75.099991 0)"/>
       <use xlink:href="#HelveticaNowMicro-Regular-31" transform="translate(150.199982 0)"/>
       <use xlink:href="#HelveticaNowMicro-Regular-36" transform="translate(203.399979 0)"/>
      </g>
     </g>
    </g>
    <g id="xtick_6">
     <g id="line2d_6">
      <g>
       <use xlink:href="#m8cbcae3acf" x="432.9673" y="384.48" style="stroke: #000000; stroke-width: 0.8"/>
      </g>
     </g>
     <g id="text_6">
      <!-- 2019 -->
      <g transform="translate(419.043082 399.159688) scale(0.1 -0.1)">
       <defs>
        <path id="HelveticaNowMicro-Regular-39" d="M 3725 4384 
Q 3853 4237 3942 4067 
Q 4032 3898 4089 3693 
Q 4147 3488 4172 3238 
Q 4198 2989 4198 2669 
Q 4198 2099 4112 1596 
Q 4026 1094 3808 716 
Q 3590 339 3219 121 
Q 2848 -96 2278 -96 
Q 1638 -96 1219 179 
Q 800 454 659 966 
L 1306 1062 
Q 1376 794 1606 614 
Q 1837 435 2285 435 
Q 2586 435 2816 537 
Q 3046 640 3209 873 
Q 3373 1107 3462 1481 
Q 3552 1856 3558 2400 
Q 3347 2074 3004 1907 
Q 2662 1741 2221 1741 
Q 1862 1741 1564 1853 
Q 1267 1965 1056 2176 
Q 845 2387 729 2688 
Q 614 2989 614 3360 
Q 614 3731 729 4035 
Q 845 4339 1065 4556 
Q 1286 4774 1606 4896 
Q 1926 5018 2330 5018 
Q 2765 5018 3107 4864 
Q 3450 4710 3725 4384 
z
M 2317 2272 
Q 2752 2272 3091 2525 
Q 3430 2778 3533 3290 
Q 3501 3603 3421 3779 
Q 3341 3955 3213 4090 
Q 3021 4301 2793 4384 
Q 2566 4467 2323 4467 
Q 1830 4467 1539 4185 
Q 1248 3904 1248 3392 
Q 1248 2874 1539 2573 
Q 1830 2272 2317 2272 
z
" transform="scale(0.015625)"/>
       </defs>
       <use xlink:href="#HelveticaNowMicro-Regular-32"/>
       <use xlink:href="#HelveticaNowMicro-Regular-30" transform="translate(75.099991 0)"/>
       <use xlink:href="#HelveticaNowMicro-Regular-31" transform="translate(150.199982 0)"/>
       <use xlink:href="#HelveticaNowMicro-Regular-39" transform="translate(203.399979 0)"/>
      </g>
     </g>
    </g>
    <g id="xtick_7">
     <g id="line2d_7">
      <g>
       <use xlink:href="#m8cbcae3acf" x="501.866667" y="384.48" style="stroke: #000000; stroke-width: 0.8"/>
      </g>
     </g>
     <g id="text_7">
      <!-- 2022 -->
      <g transform="translate(486.847917 399.159688) scale(0.1 -0.1)">
       <use xlink:href="#HelveticaNowMicro-Regular-32"/>
       <use xlink:href="#HelveticaNowMicro-Regular-30" transform="translate(75.099991 0)"/>
       <use xlink:href="#HelveticaNowMicro-Regular-32" transform="translate(150.199982 0)"/>
       <use xlink:href="#HelveticaNowMicro-Regular-32" transform="translate(225.299973 0)"/>
      </g>
     </g>
    </g>
    <g id="text_8">
     <!-- Year -->
     <g transform="translate(283.196094 412.88) scale(0.1 -0.1)">
      <defs>
       <path id="HelveticaNowMicro-Regular-59" d="M 4416 4922 
L 2605 1990 
L 2605 0 
L 1939 0 
L 1939 1990 
L 134 4922 
L 851 4922 
L 2150 2714 
L 2285 2470 
L 2419 2720 
L 3725 4922 
L 4416 4922 
z
" transform="scale(0.015625)"/>
       <path id="HelveticaNowMicro-Regular-65" d="M 3866 1562 
L 1107 1562 
Q 1146 954 1437 685 
Q 1728 416 2227 416 
Q 2598 416 2838 557 
Q 3078 698 3226 992 
L 3782 890 
Q 3597 442 3187 170 
Q 2778 -102 2195 -102 
Q 1773 -102 1449 38 
Q 1126 179 908 425 
Q 691 672 579 1011 
Q 467 1350 467 1747 
Q 467 2144 576 2486 
Q 685 2829 899 3078 
Q 1114 3328 1434 3469 
Q 1754 3610 2182 3610 
Q 2611 3610 2928 3469 
Q 3245 3328 3453 3081 
Q 3661 2835 3763 2492 
Q 3866 2150 3866 1747 
L 3866 1562 
z
M 2176 3123 
Q 1715 3123 1436 2848 
Q 1158 2573 1107 2029 
L 3238 2029 
Q 3219 2266 3155 2467 
Q 3091 2669 2966 2813 
Q 2842 2957 2650 3040 
Q 2458 3123 2176 3123 
z
" transform="scale(0.015625)"/>
       <path id="HelveticaNowMicro-Regular-61" d="M 4070 512 
L 4070 0 
L 3558 0 
Q 3309 0 3145 137 
Q 2982 275 2950 499 
Q 2765 198 2432 48 
Q 2099 -102 1696 -102 
Q 1427 -102 1200 -38 
Q 973 26 803 157 
Q 634 288 541 480 
Q 448 672 448 922 
Q 448 1171 541 1353 
Q 634 1536 803 1667 
Q 973 1798 1219 1884 
Q 1466 1971 1773 2029 
L 2586 2182 
Q 2739 2208 2874 2272 
L 2874 2458 
Q 2874 2605 2842 2723 
Q 2810 2842 2723 2928 
Q 2637 3014 2480 3059 
Q 2323 3104 2080 3104 
Q 1600 3104 1392 2950 
Q 1184 2797 1146 2419 
L 570 2496 
Q 634 3072 1024 3341 
Q 1414 3610 2093 3610 
Q 2509 3610 2777 3523 
Q 3046 3437 3206 3286 
Q 3366 3136 3430 2928 
Q 3494 2720 3494 2477 
L 3494 800 
Q 3494 634 3555 573 
Q 3616 512 3782 512 
L 4070 512 
z
M 1830 371 
Q 2202 371 2490 560 
Q 2778 749 2874 1094 
L 2874 1811 
Q 2816 1792 2758 1773 
Q 2701 1754 2630 1741 
L 1869 1587 
Q 1498 1517 1293 1376 
Q 1088 1235 1088 947 
Q 1088 678 1280 524 
Q 1472 371 1830 371 
z
" transform="scale(0.015625)"/>
       <path id="HelveticaNowMicro-Regular-72" d="M 2720 3520 
L 2720 2944 
L 2515 2944 
Q 2336 2944 2157 2918 
Q 1978 2893 1821 2809 
Q 1664 2726 1536 2563 
Q 1408 2400 1325 2125 
L 1325 0 
L 685 0 
L 685 3507 
L 1267 3507 
L 1299 2829 
Q 1466 3181 1760 3350 
Q 2054 3520 2470 3520 
L 2720 3520 
z
" transform="scale(0.015625)"/>
      </defs>
      <use xlink:href="#HelveticaNowMicro-Regular-59"/>
      <use xlink:href="#HelveticaNowMicro-Regular-65" transform="translate(59.374985 0)"/>
      <use xlink:href="#HelveticaNowMicro-Regular-61" transform="translate(127.074966 0)"/>
      <use xlink:href="#HelveticaNowMicro-Regular-72" transform="translate(194.574951 0)"/>
     </g>
    </g>
   </g>
   <g id="matplotlib.axis_2">
    <g id="ytick_1">
     <g id="line2d_8">
      <defs>
       <path id="madea6fad95" d="M 0 0 
L -3.5 0 
" style="stroke: #000000; stroke-width: 0.8"/>
      </defs>
      <g>
       <use xlink:href="#madea6fad95" x="72" y="384.48" style="stroke: #000000; stroke-width: 0.8"/>
      </g>
     </g>
     <g id="text_9">
      <!-- 0.0 -->
      <g transform="translate(46.360937 388.319844) scale(0.1 -0.1)">
       <defs>
        <path id="HelveticaNowMicro-Regular-2e" d="M 691 870 
L 1626 870 
L 1626 0 
L 691 0 
L 691 870 
z
" transform="scale(0.015625)"/>
       </defs>
       <use xlink:href="#HelveticaNowMicro-Regular-30"/>
       <use xlink:href="#HelveticaNowMicro-Regular-2e" transform="translate(75.099991 0)"/>
       <use xlink:href="#HelveticaNowMicro-Regular-30" transform="translate(111.299988 0)"/>
      </g>
     </g>
    </g>
    <g id="ytick_2">
     <g id="line2d_9">
      <g>
       <use xlink:href="#madea6fad95" x="72" y="324" style="stroke: #000000; stroke-width: 0.8"/>
      </g>
     </g>
     <g id="text_10">
      <!-- 0.2 -->
      <g transform="translate(46.360937 327.839844) scale(0.1 -0.1)">
       <use xlink:href="#HelveticaNowMicro-Regular-30"/>
       <use xlink:href="#HelveticaNowMicro-Regular-2e" transform="translate(75.099991 0)"/>
       <use xlink:href="#HelveticaNowMicro-Regular-32" transform="translate(111.299988 0)"/>
      </g>
     </g>
    </g>
    <g id="ytick_3">
     <g id="line2d_10">
      <g>
       <use xlink:href="#madea6fad95" x="72" y="263.52" style="stroke: #000000; stroke-width: 0.8"/>
      </g>
     </g>
     <g id="text_11">
      <!-- 0.4 -->
      <g transform="translate(46.360937 267.359844) scale(0.1 -0.1)">
       <use xlink:href="#HelveticaNowMicro-Regular-30"/>
       <use xlink:href="#HelveticaNowMicro-Regular-2e" transform="translate(75.099991 0)"/>
       <use xlink:href="#HelveticaNowMicro-Regular-34" transform="translate(111.299988 0)"/>
      </g>
     </g>
    </g>
    <g id="ytick_4">
     <g id="line2d_11">
      <g>
       <use xlink:href="#madea6fad95" x="72" y="203.04" style="stroke: #000000; stroke-width: 0.8"/>
      </g>
     </g>
     <g id="text_12">
      <!-- 0.6 -->
      <g transform="translate(46.360937 206.879844) scale(0.1 -0.1)">
       <use xlink:href="#HelveticaNowMicro-Regular-30"/>
       <use xlink:href="#HelveticaNowMicro-Regular-2e" transform="translate(75.099991 0)"/>
       <use xlink:href="#HelveticaNowMicro-Regular-36" transform="translate(111.299988 0)"/>
      </g>
     </g>
    </g>
    <g id="ytick_5">
     <g id="line2d_12">
      <g>
       <use xlink:href="#madea6fad95" x="72" y="142.56" style="stroke: #000000; stroke-width: 0.8"/>
      </g>
     </g>
     <g id="text_13">
      <!-- 0.8 -->
      <g transform="translate(46.360937 146.399844) scale(0.1 -0.1)">
       <defs>
        <path id="HelveticaNowMicro-Regular-38" d="M 2400 -102 
Q 2022 -102 1689 -6 
Q 1357 90 1107 278 
Q 858 467 710 752 
Q 563 1037 563 1414 
Q 563 1862 822 2208 
Q 1082 2554 1530 2662 
L 1530 2675 
Q 1146 2816 934 3091 
Q 723 3366 723 3744 
Q 723 4051 844 4291 
Q 966 4531 1187 4694 
Q 1408 4858 1718 4944 
Q 2029 5030 2400 5030 
Q 2778 5030 3085 4944 
Q 3392 4858 3616 4694 
Q 3840 4531 3961 4291 
Q 4083 4051 4083 3744 
Q 4083 3379 3875 3100 
Q 3667 2822 3283 2675 
L 3283 2662 
Q 3731 2515 3993 2204 
Q 4256 1894 4256 1414 
Q 4256 1037 4105 752 
Q 3955 467 3702 278 
Q 3450 90 3114 -6 
Q 2778 -102 2400 -102 
z
M 2400 2912 
Q 2880 2912 3165 3123 
Q 3450 3334 3450 3712 
Q 3450 4090 3165 4288 
Q 2880 4486 2400 4486 
Q 1920 4486 1641 4288 
Q 1363 4090 1363 3712 
Q 1363 3334 1641 3123 
Q 1920 2912 2400 2912 
z
M 2400 448 
Q 2970 448 3293 710 
Q 3616 973 3616 1427 
Q 3616 1862 3293 2121 
Q 2970 2381 2400 2381 
Q 1830 2381 1520 2128 
Q 1210 1875 1210 1427 
Q 1210 973 1520 710 
Q 1830 448 2400 448 
z
" transform="scale(0.015625)"/>
       </defs>
       <use xlink:href="#HelveticaNowMicro-Regular-30"/>
       <use xlink:href="#HelveticaNowMicro-Regular-2e" transform="translate(75.099991 0)"/>
       <use xlink:href="#HelveticaNowMicro-Regular-38" transform="translate(111.299988 0)"/>
      </g>
     </g>
    </g>
    <g id="ytick_6">
     <g id="line2d_13">
      <g>
       <use xlink:href="#madea6fad95" x="72" y="82.08" style="stroke: #000000; stroke-width: 0.8"/>
      </g>
     </g>
     <g id="text_14">
      <!-- 1.0 -->
      <g transform="translate(48.55 85.919844) scale(0.1 -0.1)">
       <use xlink:href="#HelveticaNowMicro-Regular-31"/>
       <use xlink:href="#HelveticaNowMicro-Regular-2e" transform="translate(53.199997 0)"/>
       <use xlink:href="#HelveticaNowMicro-Regular-30" transform="translate(89.399994 0)"/>
      </g>
     </g>
    </g>
    <g id="text_15">
     <!-- Reading for personal interest odds ratio relative to 2004 -->
     <g transform="translate(40.220312 377.059219) rotate(-90) scale(0.1 -0.1)">
      <defs>
       <path id="HelveticaNowMicro-Regular-52" d="M 4518 0 
L 3872 0 
L 3674 1184 
Q 3597 1651 3385 1862 
Q 3174 2074 2752 2074 
L 1389 2074 
L 1389 0 
L 749 0 
L 749 4915 
L 3053 4915 
Q 3763 4915 4134 4579 
Q 4506 4243 4506 3654 
Q 4506 3155 4224 2832 
Q 3942 2509 3488 2342 
Q 3814 2272 4003 2057 
Q 4192 1843 4262 1453 
L 4518 0 
z
M 2662 2598 
Q 3226 2598 3546 2835 
Q 3866 3072 3866 3571 
Q 3866 3994 3613 4192 
Q 3360 4390 2861 4390 
L 1389 4390 
L 1389 2598 
L 2662 2598 
z
" transform="scale(0.015625)"/>
       <path id="HelveticaNowMicro-Regular-64" d="M 3808 4915 
L 3808 0 
L 3238 0 
L 3194 493 
Q 2995 211 2704 57 
Q 2413 -96 2029 -96 
Q 1683 -96 1395 35 
Q 1107 166 899 409 
Q 691 653 579 995 
Q 467 1338 467 1754 
Q 467 2182 572 2524 
Q 678 2867 880 3107 
Q 1082 3347 1373 3478 
Q 1664 3610 2029 3610 
Q 2400 3610 2685 3459 
Q 2970 3309 3168 3040 
L 3168 4915 
L 3808 4915 
z
M 2118 416 
Q 2470 416 2758 617 
Q 3046 819 3174 1254 
L 3181 2253 
Q 3053 2694 2765 2899 
Q 2477 3104 2118 3104 
Q 1619 3104 1363 2739 
Q 1107 2374 1107 1754 
Q 1107 1152 1366 784 
Q 1626 416 2118 416 
z
" transform="scale(0.015625)"/>
       <path id="HelveticaNowMicro-Regular-69" d="M 685 5050 
L 1325 5050 
L 1325 4269 
L 685 4269 
L 685 5050 
z
M 685 3507 
L 1325 3507 
L 1325 0 
L 685 0 
L 685 3507 
z
" transform="scale(0.015625)"/>
       <path id="HelveticaNowMicro-Regular-6e" d="M 2381 3603 
Q 2963 3603 3305 3270 
Q 3648 2938 3648 2362 
L 3648 0 
L 3008 0 
L 3008 2234 
Q 3008 2630 2813 2848 
Q 2618 3066 2266 3066 
Q 1920 3066 1686 2867 
Q 1453 2669 1325 2323 
L 1325 0 
L 685 0 
L 685 3507 
L 1267 3507 
L 1293 3040 
Q 1491 3309 1753 3456 
Q 2016 3603 2381 3603 
z
" transform="scale(0.015625)"/>
       <path id="HelveticaNowMicro-Regular-67" d="M 3757 3514 
L 3757 83 
Q 3757 -621 3334 -995 
Q 2912 -1370 2176 -1370 
Q 1478 -1370 1110 -1088 
Q 742 -806 621 -314 
L 1235 -256 
Q 1338 -576 1562 -733 
Q 1786 -890 2202 -890 
Q 2643 -890 2880 -662 
Q 3117 -435 3117 58 
L 3117 659 
Q 2714 224 2022 224 
Q 1677 224 1392 345 
Q 1107 467 902 688 
Q 698 909 582 1219 
Q 467 1530 467 1914 
Q 467 2304 572 2617 
Q 678 2931 880 3152 
Q 1082 3373 1370 3494 
Q 1658 3616 2022 3616 
Q 2387 3616 2668 3478 
Q 2950 3341 3155 3098 
L 3187 3514 
L 3757 3514 
z
M 2112 730 
Q 2470 730 2736 915 
Q 3002 1101 3117 1498 
L 3117 2362 
Q 3002 2746 2733 2925 
Q 2464 3104 2112 3104 
Q 1613 3104 1357 2781 
Q 1101 2458 1101 1920 
Q 1101 1395 1360 1062 
Q 1619 730 2112 730 
z
" transform="scale(0.015625)"/>
       <path id="HelveticaNowMicro-Regular-20" transform="scale(0.015625)"/>
       <path id="HelveticaNowMicro-Regular-66" d="M 1914 4506 
Q 1664 4461 1542 4339 
Q 1421 4218 1421 3949 
L 1517 3450 
L 2816 3507 
L 2816 3008 
L 1568 3059 
L 1626 2330 
L 1626 0 
L 986 0 
L 986 2330 
L 1043 3059 
L 186 3008 
L 186 3507 
L 1037 3456 
L 986 3981 
Q 986 4442 1238 4678 
Q 1491 4915 1958 4915 
L 2835 4915 
L 2835 4435 
L 1914 4506 
z
" transform="scale(0.015625)"/>
       <path id="HelveticaNowMicro-Regular-6f" d="M 2234 -102 
Q 1811 -102 1481 29 
Q 1152 160 928 403 
Q 704 646 585 988 
Q 467 1331 467 1754 
Q 467 2170 585 2512 
Q 704 2854 931 3097 
Q 1158 3341 1484 3475 
Q 1811 3610 2234 3610 
Q 2656 3610 2982 3475 
Q 3309 3341 3536 3097 
Q 3763 2854 3881 2512 
Q 4000 2170 4000 1754 
Q 4000 1331 3881 988 
Q 3763 646 3536 403 
Q 3309 160 2982 29 
Q 2656 -102 2234 -102 
z
M 2234 435 
Q 2797 435 3075 793 
Q 3354 1152 3354 1754 
Q 3354 2362 3075 2717 
Q 2797 3072 2234 3072 
Q 1664 3072 1385 2717 
Q 1107 2362 1107 1754 
Q 1107 1152 1385 793 
Q 1664 435 2234 435 
z
" transform="scale(0.015625)"/>
       <path id="HelveticaNowMicro-Regular-70" d="M 2464 3610 
Q 2829 3610 3120 3478 
Q 3411 3347 3612 3107 
Q 3814 2867 3920 2524 
Q 4026 2182 4026 1754 
Q 4026 1331 3914 992 
Q 3802 653 3594 409 
Q 3386 166 3098 35 
Q 2810 -96 2464 -96 
Q 2093 -96 1811 48 
Q 1530 192 1325 461 
L 1325 -1306 
L 685 -1306 
L 685 3507 
L 1274 3507 
L 1306 3021 
Q 1510 3302 1798 3456 
Q 2086 3610 2464 3610 
z
M 2368 410 
Q 2618 410 2806 506 
Q 2995 602 3126 781 
Q 3258 960 3322 1206 
Q 3386 1453 3386 1754 
Q 3386 2374 3126 2739 
Q 2867 3104 2368 3104 
Q 2022 3104 1737 2909 
Q 1453 2714 1325 2291 
L 1325 1242 
Q 1453 813 1737 611 
Q 2022 410 2368 410 
z
" transform="scale(0.015625)"/>
       <path id="HelveticaNowMicro-Regular-73" d="M 2086 -134 
Q 1376 -134 985 157 
Q 595 448 480 992 
L 1094 1056 
Q 1178 672 1414 512 
Q 1651 352 2086 352 
Q 2464 352 2707 480 
Q 2950 608 2950 928 
Q 2950 1030 2918 1120 
Q 2886 1210 2800 1280 
Q 2714 1350 2566 1408 
Q 2419 1466 2195 1504 
L 1722 1594 
Q 1152 1702 886 1958 
Q 621 2214 621 2618 
Q 621 3104 982 3373 
Q 1344 3642 2029 3642 
Q 2707 3642 3088 3379 
Q 3469 3117 3578 2598 
L 2982 2528 
Q 2899 2893 2649 3027 
Q 2400 3162 2042 3162 
Q 1242 3162 1242 2643 
Q 1242 2432 1405 2313 
Q 1568 2195 1971 2118 
L 2413 2042 
Q 2989 1939 3283 1692 
Q 3578 1446 3578 986 
Q 3578 461 3200 163 
Q 2822 -134 2086 -134 
z
" transform="scale(0.015625)"/>
       <path id="HelveticaNowMicro-Regular-6c" d="M 685 4915 
L 1325 4915 
L 1325 0 
L 685 0 
L 685 4915 
z
" transform="scale(0.015625)"/>
       <path id="HelveticaNowMicro-Regular-74" d="M 2816 3002 
L 1574 3053 
L 1626 2496 
L 1626 1030 
Q 1626 755 1760 636 
Q 1894 518 2099 518 
L 2810 518 
L 2810 0 
L 1978 0 
Q 1773 0 1590 61 
Q 1408 122 1273 246 
Q 1139 371 1062 560 
Q 986 749 986 1005 
L 986 2496 
L 1030 3053 
L 186 3002 
L 186 3507 
L 1024 3462 
L 986 3744 
L 986 4525 
L 1626 4525 
L 1626 3744 
L 1581 3456 
L 2816 3507 
L 2816 3002 
z
" transform="scale(0.015625)"/>
       <path id="HelveticaNowMicro-Regular-76" d="M 3699 3507 
L 2400 0 
L 1651 0 
L 307 3507 
L 998 3507 
L 1882 973 
L 2035 486 
L 2189 979 
L 3072 3507 
L 3699 3507 
z
" transform="scale(0.015625)"/>
      </defs>
      <use xlink:href="#HelveticaNowMicro-Regular-52"/>
      <use xlink:href="#HelveticaNowMicro-Regular-65" transform="translate(79.699982 0)"/>
      <use xlink:href="#HelveticaNowMicro-Regular-61" transform="translate(147.399963 0)"/>
      <use xlink:href="#HelveticaNowMicro-Regular-64" transform="translate(214.899948 0)"/>
      <use xlink:href="#HelveticaNowMicro-Regular-69" transform="translate(285.09993 0)"/>
      <use xlink:href="#HelveticaNowMicro-Regular-6e" transform="translate(316.399918 0)"/>
      <use xlink:href="#HelveticaNowMicro-Regular-67" transform="translate(383.999908 0)"/>
      <use xlink:href="#HelveticaNowMicro-Regular-20" transform="translate(453.399902 0)"/>
      <use xlink:href="#HelveticaNowMicro-Regular-66" transform="translate(485.399887 0)"/>
      <use xlink:href="#HelveticaNowMicro-Regular-6f" transform="translate(533.599884 0)"/>
      <use xlink:href="#HelveticaNowMicro-Regular-72" transform="translate(603.399872 0)"/>
      <use xlink:href="#HelveticaNowMicro-Regular-20" transform="translate(648.899857 0)"/>
      <use xlink:href="#HelveticaNowMicro-Regular-70" transform="translate(680.899841 0)"/>
      <use xlink:href="#HelveticaNowMicro-Regular-65" transform="translate(751.099823 0)"/>
      <use xlink:href="#HelveticaNowMicro-Regular-72" transform="translate(818.799805 0)"/>
      <use xlink:href="#HelveticaNowMicro-Regular-73" transform="translate(864.299789 0)"/>
      <use xlink:href="#HelveticaNowMicro-Regular-6f" transform="translate(927.799774 0)"/>
      <use xlink:href="#HelveticaNowMicro-Regular-6e" transform="translate(997.599762 0)"/>
      <use xlink:href="#HelveticaNowMicro-Regular-61" transform="translate(1065.199753 0)"/>
      <use xlink:href="#HelveticaNowMicro-Regular-6c" transform="translate(1132.699738 0)"/>
      <use xlink:href="#HelveticaNowMicro-Regular-20" transform="translate(1163.999725 0)"/>
      <use xlink:href="#HelveticaNowMicro-Regular-69" transform="translate(1195.99971 0)"/>
      <use xlink:href="#HelveticaNowMicro-Regular-6e" transform="translate(1227.299698 0)"/>
      <use xlink:href="#HelveticaNowMicro-Regular-74" transform="translate(1294.899689 0)"/>
      <use xlink:href="#HelveticaNowMicro-Regular-65" transform="translate(1344.899673 0)"/>
      <use xlink:href="#HelveticaNowMicro-Regular-72" transform="translate(1412.599655 0)"/>
      <use xlink:href="#HelveticaNowMicro-Regular-65" transform="translate(1458.09964 0)"/>
      <use xlink:href="#HelveticaNowMicro-Regular-73" transform="translate(1525.799622 0)"/>
      <use xlink:href="#HelveticaNowMicro-Regular-74" transform="translate(1589.299606 0)"/>
      <use xlink:href="#HelveticaNowMicro-Regular-20" transform="translate(1639.299591 0)"/>
      <use xlink:href="#HelveticaNowMicro-Regular-6f" transform="translate(1671.299576 0)"/>
      <use xlink:href="#HelveticaNowMicro-Regular-64" transform="translate(1741.099564 0)"/>
      <use xlink:href="#HelveticaNowMicro-Regular-64" transform="translate(1811.299545 0)"/>
      <use xlink:href="#HelveticaNowMicro-Regular-73" transform="translate(1881.499527 0)"/>
      <use xlink:href="#HelveticaNowMicro-Regular-20" transform="translate(1944.999512 0)"/>
      <use xlink:href="#HelveticaNowMicro-Regular-72" transform="translate(1976.999496 0)"/>
      <use xlink:href="#HelveticaNowMicro-Regular-61" transform="translate(2022.499481 0)"/>
      <use xlink:href="#HelveticaNowMicro-Regular-74" transform="translate(2089.999466 0)"/>
      <use xlink:href="#HelveticaNowMicro-Regular-69" transform="translate(2139.999451 0)"/>
      <use xlink:href="#HelveticaNowMicro-Regular-6f" transform="translate(2171.299438 0)"/>
      <use xlink:href="#HelveticaNowMicro-Regular-20" transform="translate(2241.099426 0)"/>
      <use xlink:href="#HelveticaNowMicro-Regular-72" transform="translate(2273.099411 0)"/>
      <use xlink:href="#HelveticaNowMicro-Regular-65" transform="translate(2318.599396 0)"/>
      <use xlink:href="#HelveticaNowMicro-Regular-6c" transform="translate(2386.299377 0)"/>
      <use xlink:href="#HelveticaNowMicro-Regular-61" transform="translate(2417.599365 0)"/>
      <use xlink:href="#HelveticaNowMicro-Regular-74" transform="translate(2485.09935 0)"/>
      <use xlink:href="#HelveticaNowMicro-Regular-69" transform="translate(2535.099335 0)"/>
      <use xlink:href="#HelveticaNowMicro-Regular-76" transform="translate(2566.399323 0)"/>
      <use xlink:href="#HelveticaNowMicro-Regular-65" transform="translate(2626.124313 0)"/>
      <use xlink:href="#HelveticaNowMicro-Regular-20" transform="translate(2693.824295 0)"/>
      <use xlink:href="#HelveticaNowMicro-Regular-74" transform="translate(2725.82428 0)"/>
      <use xlink:href="#HelveticaNowMicro-Regular-6f" transform="translate(2775.824265 0)"/>
      <use xlink:href="#HelveticaNowMicro-Regular-20" transform="translate(2845.624252 0)"/>
      <use xlink:href="#HelveticaNowMicro-Regular-32" transform="translate(2877.624237 0)"/>
      <use xlink:href="#HelveticaNowMicro-Regular-30" transform="translate(2952.724228 0)"/>
      <use xlink:href="#HelveticaNowMicro-Regular-30" transform="translate(3027.824219 0)"/>
      <use xlink:href="#HelveticaNowMicro-Regular-34" transform="translate(3102.92421 0)"/>
     </g>
    </g>
   </g>
   <g id="line2d_14">
    <path d="M 72 82.08 
L 518.4 82.08 
" clip-path="url(#p582a68958c)" style="fill: none; stroke-dasharray: 3.7,1.6; stroke-dashoffset: 0; stroke: #808080"/>
   </g>
   <g id="line2d_15">
    <path d="M 88.533333 82.08 
L 111.541698 72.965059 
L 134.487199 85.924109 
L 157.4327 102.164501 
L 180.3782 127.047485 
L 203.386565 136.115251 
L 226.332066 178.379885 
L 249.277567 176.380416 
L 272.223067 157.861742 
L 295.231432 169.29216 
L 318.176933 166.210704 
L 341.122433 157.861742 
L 364.067934 177.381662 
L 387.076299 190.143547 
L 410.0218 201.52165 
L 432.9673 182.345256 
M 478.921166 204.308266 
L 501.866667 215.230046 
" clip-path="url(#p582a68958c)" style="fill: none; stroke: #000000; stroke-width: 1.5; stroke-linecap: square"/>
    <defs>
     <path id="m2ca1148a3f" d="M 0 3 
C 0.795609 3 1.55874 2.683901 2.12132 2.12132 
C 2.683901 1.55874 3 0.795609 3 0 
C 3 -0.795609 2.683901 -1.55874 2.12132 -2.12132 
C 1.55874 -2.683901 0.795609 -3 0 -3 
C -0.795609 -3 -1.55874 -2.683901 -2.12132 -2.12132 
C -2.683901 -1.55874 -3 -0.795609 -3 0 
C -3 0.795609 -2.683901 1.55874 -2.12132 2.12132 
C -1.55874 2.683901 -0.795609 3 0 3 
z
" style="stroke: #000000"/>
    </defs>
    <g clip-path="url(#p582a68958c)">
     <use xlink:href="#m2ca1148a3f" x="88.533333" y="82.08" style="stroke: #000000"/>
     <use xlink:href="#m2ca1148a3f" x="111.541698" y="72.965059" style="stroke: #000000"/>
     <use xlink:href="#m2ca1148a3f" x="134.487199" y="85.924109" style="stroke: #000000"/>
     <use xlink:href="#m2ca1148a3f" x="157.4327" y="102.164501" style="stroke: #000000"/>
     <use xlink:href="#m2ca1148a3f" x="180.3782" y="127.047485" style="stroke: #000000"/>
     <use xlink:href="#m2ca1148a3f" x="203.386565" y="136.115251" style="stroke: #000000"/>
     <use xlink:href="#m2ca1148a3f" x="226.332066" y="178.379885" style="stroke: #000000"/>
     <use xlink:href="#m2ca1148a3f" x="249.277567" y="176.380416" style="stroke: #000000"/>
     <use xlink:href="#m2ca1148a3f" x="272.223067" y="157.861742" style="stroke: #000000"/>
     <use xlink:href="#m2ca1148a3f" x="295.231432" y="169.29216" style="stroke: #000000"/>
     <use xlink:href="#m2ca1148a3f" x="318.176933" y="166.210704" style="stroke: #000000"/>
     <use xlink:href="#m2ca1148a3f" x="341.122433" y="157.861742" style="stroke: #000000"/>
     <use xlink:href="#m2ca1148a3f" x="364.067934" y="177.381662" style="stroke: #000000"/>
     <use xlink:href="#m2ca1148a3f" x="387.076299" y="190.143547" style="stroke: #000000"/>
     <use xlink:href="#m2ca1148a3f" x="410.0218" y="201.52165" style="stroke: #000000"/>
     <use xlink:href="#m2ca1148a3f" x="432.9673" y="182.345256" style="stroke: #000000"/>
     <use xlink:href="#m2ca1148a3f" x="478.921166" y="204.308266" style="stroke: #000000"/>
     <use xlink:href="#m2ca1148a3f" x="501.866667" y="215.230046" style="stroke: #000000"/>
    </g>
   </g>
   <g id="line2d_16">
    <path d="M 88.533333 82.08 
L 111.541698 106.265045 
L 134.487199 90.747691 
L 157.4327 155.162822 
L 180.3782 158.919538 
L 203.386565 161.407685 
L 226.332066 197.228174 
L 249.277567 214.143523 
L 272.223067 176.067734 
L 295.231432 183.229474 
L 318.176933 163.882829 
L 341.122433 176.067734 
L 364.067934 196.077845 
L 387.076299 221.824786 
L 410.0218 221.824786 
L 432.9673 236.799029 
M 478.921166 231.509146 
L 501.866667 258.337469 
" clip-path="url(#p582a68958c)" style="fill: none; stroke: #e69f00; stroke-width: 1.5; stroke-linecap: square"/>
    <defs>
     <path id="maa551c1410" d="M -3 3 
L 3 3 
L 3 -3 
L -3 -3 
z
" style="stroke: #e69f00; stroke-linejoin: miter"/>
    </defs>
    <g clip-path="url(#p582a68958c)">
     <use xlink:href="#maa551c1410" x="88.533333" y="82.08" style="fill: #e69f00; stroke: #e69f00; stroke-linejoin: miter"/>
     <use xlink:href="#maa551c1410" x="111.541698" y="106.265045" style="fill: #e69f00; stroke: #e69f00; stroke-linejoin: miter"/>
     <use xlink:href="#maa551c1410" x="134.487199" y="90.747691" style="fill: #e69f00; stroke: #e69f00; stroke-linejoin: miter"/>
     <use xlink:href="#maa551c1410" x="157.4327" y="155.162822" style="fill: #e69f00; stroke: #e69f00; stroke-linejoin: miter"/>
     <use xlink:href="#maa551c1410" x="180.3782" y="158.919538" style="fill: #e69f00; stroke: #e69f00; stroke-linejoin: miter"/>
     <use xlink:href="#maa551c1410" x="203.386565" y="161.407685" style="fill: #e69f00; stroke: #e69f00; stroke-linejoin: miter"/>
     <use xlink:href="#maa551c1410" x="226.332066" y="197.228174" style="fill: #e69f00; stroke: #e69f00; stroke-linejoin: miter"/>
     <use xlink:href="#maa551c1410" x="249.277567" y="214.143523" style="fill: #e69f00; stroke: #e69f00; stroke-linejoin: miter"/>
     <use xlink:href="#maa551c1410" x="272.223067" y="176.067734" style="fill: #e69f00; stroke: #e69f00; stroke-linejoin: miter"/>
     <use xlink:href="#maa551c1410" x="295.231432" y="183.229474" style="fill: #e69f00; stroke: #e69f00; stroke-linejoin: miter"/>
     <use xlink:href="#maa551c1410" x="318.176933" y="163.882829" style="fill: #e69f00; stroke: #e69f00; stroke-linejoin: miter"/>
     <use xlink:href="#maa551c1410" x="341.122433" y="176.067734" style="fill: #e69f00; stroke: #e69f00; stroke-linejoin: miter"/>
     <use xlink:href="#maa551c1410" x="364.067934" y="196.077845" style="fill: #e69f00; stroke: #e69f00; stroke-linejoin: miter"/>
     <use xlink:href="#maa551c1410" x="387.076299" y="221.824786" style="fill: #e69f00; stroke: #e69f00; stroke-linejoin: miter"/>
     <use xlink:href="#maa551c1410" x="410.0218" y="221.824786" style="fill: #e69f00; stroke: #e69f00; stroke-linejoin: miter"/>
     <use xlink:href="#maa551c1410" x="432.9673" y="236.799029" style="fill: #e69f00; stroke: #e69f00; stroke-linejoin: miter"/>
     <use xlink:href="#maa551c1410" x="478.921166" y="231.509146" style="fill: #e69f00; stroke: #e69f00; stroke-linejoin: miter"/>
     <use xlink:href="#maa551c1410" x="501.866667" y="258.337469" style="fill: #e69f00; stroke: #e69f00; stroke-linejoin: miter"/>
    </g>
   </g>
   <g id="line2d_17">
    <path d="M 88.533333 82.08 
L 111.541698 101.027477 
L 134.487199 113.330016 
L 157.4327 114.849878 
L 180.3782 117.87781 
L 203.386565 102.579394 
L 226.332066 157.267829 
L 249.277567 184.769597 
L 272.223067 160.080149 
L 295.231432 191.436005 
L 318.176933 154.441901 
L 341.122433 162.877954 
L 364.067934 201.935635 
L 387.076299 198.021974 
L 410.0218 233.482003 
L 432.9673 241.987306 
M 478.921166 244.39199 
L 501.866667 263.237861 
" clip-path="url(#p582a68958c)" style="fill: none; stroke: #56b4e9; stroke-width: 1.5; stroke-linecap: square"/>
    <defs>
     <path id="md5fa9db9ad" d="M -0 4.242641 
L 4.242641 0 
L 0 -4.242641 
L -4.242641 -0 
z
" style="stroke: #56b4e9; stroke-linejoin: miter"/>
    </defs>
    <g clip-path="url(#p582a68958c)">
     <use xlink:href="#md5fa9db9ad" x="88.533333" y="82.08" style="fill: #56b4e9; stroke: #56b4e9; stroke-linejoin: miter"/>
     <use xlink:href="#md5fa9db9ad" x="111.541698" y="101.027477" style="fill: #56b4e9; stroke: #56b4e9; stroke-linejoin: miter"/>
     <use xlink:href="#md5fa9db9ad" x="134.487199" y="113.330016" style="fill: #56b4e9; stroke: #56b4e9; stroke-linejoin: miter"/>
     <use xlink:href="#md5fa9db9ad" x="157.4327" y="114.849878" style="fill: #56b4e9; stroke: #56b4e9; stroke-linejoin: miter"/>
     <use xlink:href="#md5fa9db9ad" x="180.3782" y="117.87781" style="fill: #56b4e9; stroke: #56b4e9; stroke-linejoin: miter"/>
     <use xlink:href="#md5fa9db9ad" x="203.386565" y="102.579394" style="fill: #56b4e9; stroke: #56b4e9; stroke-linejoin: miter"/>
     <use xlink:href="#md5fa9db9ad" x="226.332066" y="157.267829" style="fill: #56b4e9; stroke: #56b4e9; stroke-linejoin: miter"/>
     <use xlink:href="#md5fa9db9ad" x="249.277567" y="184.769597" style="fill: #56b4e9; stroke: #56b4e9; stroke-linejoin: miter"/>
     <use xlink:href="#md5fa9db9ad" x="272.223067" y="160.080149" style="fill: #56b4e9; stroke: #56b4e9; stroke-linejoin: miter"/>
     <use xlink:href="#md5fa9db9ad" x="295.231432" y="191.436005" style="fill: #56b4e9; stroke: #56b4e9; stroke-linejoin: miter"/>
     <use xlink:href="#md5fa9db9ad" x="318.176933" y="154.441901" style="fill: #56b4e9; stroke: #56b4e9; stroke-linejoin: miter"/>
     <use xlink:href="#md5fa9db9ad" x="341.122433" y="162.877954" style="fill: #56b4e9; stroke: #56b4e9; stroke-linejoin: miter"/>
     <use xlink:href="#md5fa9db9ad" x="364.067934" y="201.935635" style="fill: #56b4e9; stroke: #56b4e9; stroke-linejoin: miter"/>
     <use xlink:href="#md5fa9db9ad" x="387.076299" y="198.021974" style="fill: #56b4e9; stroke: #56b4e9; stroke-linejoin: miter"/>
     <use xlink:href="#md5fa9db9ad" x="410.0218" y="233.482003" style="fill: #56b4e9; stroke: #56b4e9; stroke-linejoin: miter"/>
     <use xlink:href="#md5fa9db9ad" x="432.9673" y="241.987306" style="fill: #56b4e9; stroke: #56b4e9; stroke-linejoin: miter"/>
     <use xlink:href="#md5fa9db9ad" x="478.921166" y="244.39199" style="fill: #56b4e9; stroke: #56b4e9; stroke-linejoin: miter"/>
     <use xlink:href="#md5fa9db9ad" x="501.866667" y="263.237861" style="fill: #56b4e9; stroke: #56b4e9; stroke-linejoin: miter"/>
    </g>
   </g>
   <g id="line2d_18">
    <path d="M 88.533333 82.08 
L 111.541698 88.910309 
L 134.487199 115.75345 
L 157.4327 137.555582 
L 180.3782 177.625699 
L 203.386565 167.248238 
L 226.332066 191.959157 
L 249.277567 221.930021 
L 272.223067 193.988261 
L 295.231432 177.625699 
L 318.176933 177.625699 
L 341.122433 202.060526 
L 364.067934 223.892899 
L 387.076299 233.643182 
L 410.0218 243.287323 
L 432.9673 227.805653 
M 478.921166 262.26504 
L 501.866667 329.068829 
" clip-path="url(#p582a68958c)" style="fill: none; stroke: #009e73; stroke-width: 1.5; stroke-linecap: square"/>
    <defs>
     <path id="mbf58a72286" d="M 0 -3 
L -3 3 
L 3 3 
z
" style="stroke: #009e73; stroke-linejoin: miter"/>
    </defs>
    <g clip-path="url(#p582a68958c)">
     <use xlink:href="#mbf58a72286" x="88.533333" y="82.08" style="fill: #009e73; stroke: #009e73; stroke-linejoin: miter"/>
     <use xlink:href="#mbf58a72286" x="111.541698" y="88.910309" style="fill: #009e73; stroke: #009e73; stroke-linejoin: miter"/>
     <use xlink:href="#mbf58a72286" x="134.487199" y="115.75345" style="fill: #009e73; stroke: #009e73; stroke-linejoin: miter"/>
     <use xlink:href="#mbf58a72286" x="157.4327" y="137.555582" style="fill: #009e73; stroke: #009e73; stroke-linejoin: miter"/>
     <use xlink:href="#mbf58a72286" x="180.3782" y="177.625699" style="fill: #009e73; stroke: #009e73; stroke-linejoin: miter"/>
     <use xlink:href="#mbf58a72286" x="203.386565" y="167.248238" style="fill: #009e73; stroke: #009e73; stroke-linejoin: miter"/>
     <use xlink:href="#mbf58a72286" x="226.332066" y="191.959157" style="fill: #009e73; stroke: #009e73; stroke-linejoin: miter"/>
     <use xlink:href="#mbf58a72286" x="249.277567" y="221.930021" style="fill: #009e73; stroke: #009e73; stroke-linejoin: miter"/>
     <use xlink:href="#mbf58a72286" x="272.223067" y="193.988261" style="fill: #009e73; stroke: #009e73; stroke-linejoin: miter"/>
     <use xlink:href="#mbf58a72286" x="295.231432" y="177.625699" style="fill: #009e73; stroke: #009e73; stroke-linejoin: miter"/>
     <use xlink:href="#mbf58a72286" x="318.176933" y="177.625699" style="fill: #009e73; stroke: #009e73; stroke-linejoin: miter"/>
     <use xlink:href="#mbf58a72286" x="341.122433" y="202.060526" style="fill: #009e73; stroke: #009e73; stroke-linejoin: miter"/>
     <use xlink:href="#mbf58a72286" x="364.067934" y="223.892899" style="fill: #009e73; stroke: #009e73; stroke-linejoin: miter"/>
     <use xlink:href="#mbf58a72286" x="387.076299" y="233.643182" style="fill: #009e73; stroke: #009e73; stroke-linejoin: miter"/>
     <use xlink:href="#mbf58a72286" x="410.0218" y="243.287323" style="fill: #009e73; stroke: #009e73; stroke-linejoin: miter"/>
     <use xlink:href="#mbf58a72286" x="432.9673" y="227.805653" style="fill: #009e73; stroke: #009e73; stroke-linejoin: miter"/>
     <use xlink:href="#mbf58a72286" x="478.921166" y="262.26504" style="fill: #009e73; stroke: #009e73; stroke-linejoin: miter"/>
     <use xlink:href="#mbf58a72286" x="501.866667" y="329.068829" style="fill: #009e73; stroke: #009e73; stroke-linejoin: miter"/>
    </g>
   </g>
   <g id="patch_3">
    <path d="M 72 384.48 
L 72 51.84 
" style="fill: none; stroke: #000000; stroke-width: 0.8; stroke-linejoin: miter; stroke-linecap: square"/>
   </g>
   <g id="patch_4">
    <path d="M 518.4 384.48 
L 518.4 51.84 
" style="fill: none; stroke: #000000; stroke-width: 0.8; stroke-linejoin: miter; stroke-linecap: square"/>
   </g>
   <g id="patch_5">
    <path d="M 72 384.48 
L 518.4 384.48 
" style="fill: none; stroke: #000000; stroke-width: 0.8; stroke-linejoin: miter; stroke-linecap: square"/>
   </g>
   <g id="patch_6">
    <path d="M 72 51.84 
L 518.4 51.84 
" style="fill: none; stroke: #000000; stroke-width: 0.8; stroke-linejoin: miter; stroke-linecap: square"/>
   </g>
   <g id="legend_1">
    <g id="text_16">
     <!-- Education -->
     <g transform="translate(163.739844 313.156563) scale(0.1 -0.1)">
      <defs>
       <path id="HelveticaNowMicro-Regular-45" d="M 4173 531 
L 4173 0 
L 749 0 
L 749 4915 
L 4134 4915 
L 4134 4384 
L 1389 4384 
L 1389 2797 
L 3923 2797 
L 3923 2266 
L 1389 2266 
L 1389 531 
L 4173 531 
z
" transform="scale(0.015625)"/>
       <path id="HelveticaNowMicro-Regular-75" d="M 3648 3507 
L 3648 0 
L 3059 0 
L 3034 467 
Q 2835 198 2572 51 
Q 2310 -96 1946 -96 
Q 1363 -96 1024 237 
Q 685 570 685 1146 
L 685 3507 
L 1325 3507 
L 1325 1274 
Q 1325 877 1517 659 
Q 1709 442 2067 442 
Q 2406 442 2643 640 
Q 2880 838 3008 1184 
L 3008 3507 
L 3648 3507 
z
" transform="scale(0.015625)"/>
       <path id="HelveticaNowMicro-Regular-63" d="M 2131 -77 
Q 1741 -77 1430 51 
Q 1120 179 905 419 
Q 691 659 579 1001 
Q 467 1344 467 1766 
Q 467 2189 576 2531 
Q 685 2874 893 3114 
Q 1101 3354 1408 3482 
Q 1715 3610 2112 3610 
Q 2784 3610 3155 3315 
Q 3526 3021 3661 2464 
L 3027 2400 
Q 2950 2726 2742 2899 
Q 2534 3072 2106 3072 
Q 1613 3072 1360 2752 
Q 1107 2432 1107 1766 
Q 1107 1133 1363 797 
Q 1619 461 2125 461 
Q 2528 461 2755 665 
Q 2982 870 3072 1254 
L 3674 1190 
Q 3539 589 3155 256 
Q 2771 -77 2131 -77 
z
" transform="scale(0.015625)"/>
      </defs>
      <use xlink:href="#HelveticaNowMicro-Regular-45"/>
      <use xlink:href="#HelveticaNowMicro-Regular-64" transform="translate(71.599991 0)"/>
      <use xlink:href="#HelveticaNowMicro-Regular-75" transform="translate(141.799973 0)"/>
      <use xlink:href="#HelveticaNowMicro-Regular-63" transform="translate(209.399963 0)"/>
      <use xlink:href="#HelveticaNowMicro-Regular-61" transform="translate(273.399948 0)"/>
      <use xlink:href="#HelveticaNowMicro-Regular-74" transform="translate(340.899933 0)"/>
      <use xlink:href="#HelveticaNowMicro-Regular-69" transform="translate(390.899918 0)"/>
      <use xlink:href="#HelveticaNowMicro-Regular-6f" transform="translate(422.199905 0)"/>
      <use xlink:href="#HelveticaNowMicro-Regular-6e" transform="translate(491.999893 0)"/>
     </g>
    </g>
    <g id="line2d_19">
     <path d="M 81 324.587812 
L 91 324.587812 
L 101 324.587812 
" style="fill: none; stroke: #000000; stroke-width: 1.5; stroke-linecap: square"/>
     <g>
      <use xlink:href="#m2ca1148a3f" x="91" y="324.587812" style="stroke: #000000"/>
     </g>
    </g>
    <g id="text_17">
     <!-- Bachelor's degree and higher -->
     <g transform="translate(109 328.087812) scale(0.1 -0.1)">
      <defs>
       <path id="HelveticaNowMicro-Regular-42" d="M 3578 2605 
Q 4077 2509 4355 2176 
Q 4634 1843 4634 1363 
Q 4634 1062 4525 809 
Q 4416 557 4205 377 
Q 3994 198 3686 99 
Q 3379 0 2982 0 
L 749 0 
L 749 4915 
L 2918 4915 
Q 3693 4915 4064 4582 
Q 4435 4250 4435 3680 
Q 4435 3290 4208 2998 
Q 3981 2707 3578 2605 
z
M 1389 4397 
L 1389 2816 
L 2771 2816 
Q 3238 2816 3504 3008 
Q 3770 3200 3770 3642 
Q 3770 3974 3539 4185 
Q 3309 4397 2790 4397 
L 1389 4397 
z
M 3008 518 
Q 3430 518 3699 736 
Q 3968 954 3968 1408 
Q 3968 1869 3673 2080 
Q 3379 2291 2893 2291 
L 1389 2291 
L 1389 518 
L 3008 518 
z
" transform="scale(0.015625)"/>
       <path id="HelveticaNowMicro-Regular-68" d="M 2381 3603 
Q 2963 3603 3305 3270 
Q 3648 2938 3648 2362 
L 3648 0 
L 3008 0 
L 3008 2234 
Q 3008 2630 2813 2848 
Q 2618 3066 2266 3066 
Q 1920 3066 1686 2867 
Q 1453 2669 1325 2323 
L 1325 0 
L 685 0 
L 685 4915 
L 1325 4915 
L 1325 3085 
Q 1517 3334 1773 3468 
Q 2029 3603 2381 3603 
z
" transform="scale(0.015625)"/>
       <path id="HelveticaNowMicro-Regular-27" d="M 685 4915 
L 1267 4915 
L 1267 2739 
L 685 2739 
L 685 4915 
z
" transform="scale(0.015625)"/>
      </defs>
      <use xlink:href="#HelveticaNowMicro-Regular-42"/>
      <use xlink:href="#HelveticaNowMicro-Regular-61" transform="translate(80.499985 0)"/>
      <use xlink:href="#HelveticaNowMicro-Regular-63" transform="translate(147.999969 0)"/>
      <use xlink:href="#HelveticaNowMicro-Regular-68" transform="translate(211.999954 0)"/>
      <use xlink:href="#HelveticaNowMicro-Regular-65" transform="translate(279.599945 0)"/>
      <use xlink:href="#HelveticaNowMicro-Regular-6c" transform="translate(347.299927 0)"/>
      <use xlink:href="#HelveticaNowMicro-Regular-6f" transform="translate(378.599915 0)"/>
      <use xlink:href="#HelveticaNowMicro-Regular-72" transform="translate(448.399902 0)"/>
      <use xlink:href="#HelveticaNowMicro-Regular-27" transform="translate(496.774887 0)"/>
      <use xlink:href="#HelveticaNowMicro-Regular-73" transform="translate(527.274872 0)"/>
      <use xlink:href="#HelveticaNowMicro-Regular-20" transform="translate(590.774857 0)"/>
      <use xlink:href="#HelveticaNowMicro-Regular-64" transform="translate(622.774841 0)"/>
      <use xlink:href="#HelveticaNowMicro-Regular-65" transform="translate(692.974823 0)"/>
      <use xlink:href="#HelveticaNowMicro-Regular-67" transform="translate(760.674805 0)"/>
      <use xlink:href="#HelveticaNowMicro-Regular-72" transform="translate(830.074799 0)"/>
      <use xlink:href="#HelveticaNowMicro-Regular-65" transform="translate(875.574783 0)"/>
      <use xlink:href="#HelveticaNowMicro-Regular-65" transform="translate(943.274765 0)"/>
      <use xlink:href="#HelveticaNowMicro-Regular-20" transform="translate(1010.974747 0)"/>
      <use xlink:href="#HelveticaNowMicro-Regular-61" transform="translate(1042.974731 0)"/>
      <use xlink:href="#HelveticaNowMicro-Regular-6e" transform="translate(1110.474716 0)"/>
      <use xlink:href="#HelveticaNowMicro-Regular-64" transform="translate(1178.074707 0)"/>
      <use xlink:href="#HelveticaNowMicro-Regular-20" transform="translate(1248.274689 0)"/>
      <use xlink:href="#HelveticaNowMicro-Regular-68" transform="translate(1280.274673 0)"/>
      <use xlink:href="#HelveticaNowMicro-Regular-69" transform="translate(1347.874664 0)"/>
      <use xlink:href="#HelveticaNowMicro-Regular-67" transform="translate(1379.174652 0)"/>
      <use xlink:href="#HelveticaNowMicro-Regular-68" transform="translate(1448.574646 0)"/>
      <use xlink:href="#HelveticaNowMicro-Regular-65" transform="translate(1516.174637 0)"/>
      <use xlink:href="#HelveticaNowMicro-Regular-72" transform="translate(1583.874619 0)"/>
     </g>
    </g>
    <g id="line2d_20">
     <path d="M 81 339.637812 
L 91 339.637812 
L 101 339.637812 
" style="fill: none; stroke: #e69f00; stroke-width: 1.5; stroke-linecap: square"/>
     <g>
      <use xlink:href="#maa551c1410" x="91" y="339.637812" style="fill: #e69f00; stroke: #e69f00; stroke-linejoin: miter"/>
     </g>
    </g>
    <g id="text_18">
     <!-- Some college or associate degree -->
     <g transform="translate(109 343.137812) scale(0.1 -0.1)">
      <defs>
       <path id="HelveticaNowMicro-Regular-53" d="M 2515 -128 
Q 1613 -128 1094 249 
Q 576 627 448 1376 
L 1101 1440 
Q 1190 954 1523 685 
Q 1856 416 2534 416 
Q 3194 416 3536 649 
Q 3878 883 3878 1306 
Q 3878 1510 3801 1654 
Q 3725 1798 3581 1900 
Q 3437 2003 3238 2067 
Q 3040 2131 2790 2182 
L 2163 2310 
Q 1389 2470 1043 2787 
Q 698 3104 698 3661 
Q 698 4314 1178 4688 
Q 1658 5062 2541 5062 
Q 3014 5062 3356 4969 
Q 3699 4877 3929 4704 
Q 4160 4531 4288 4288 
Q 4416 4045 4461 3744 
L 3827 3680 
Q 3757 4109 3446 4313 
Q 3136 4518 2522 4518 
Q 1958 4518 1660 4313 
Q 1363 4109 1363 3725 
Q 1363 3546 1411 3418 
Q 1459 3290 1577 3194 
Q 1696 3098 1894 3027 
Q 2093 2957 2387 2893 
L 3008 2771 
Q 3437 2682 3728 2547 
Q 4019 2413 4198 2240 
Q 4378 2067 4458 1856 
Q 4538 1645 4538 1395 
Q 4538 1024 4394 739 
Q 4250 454 3984 262 
Q 3718 70 3347 -29 
Q 2976 -128 2515 -128 
z
" transform="scale(0.015625)"/>
       <path id="HelveticaNowMicro-Regular-6d" d="M 4710 3603 
Q 5293 3603 5632 3270 
Q 5971 2938 5971 2374 
L 5971 0 
L 5331 0 
L 5331 2202 
Q 5331 2618 5142 2842 
Q 4954 3066 4589 3066 
Q 4243 3066 4009 2867 
Q 3776 2669 3648 2323 
L 3648 0 
L 3008 0 
L 3008 2202 
Q 3008 2618 2819 2842 
Q 2630 3066 2266 3066 
Q 1920 3066 1686 2867 
Q 1453 2669 1325 2323 
L 1325 0 
L 685 0 
L 685 3507 
L 1267 3507 
L 1293 3040 
Q 1491 3309 1753 3456 
Q 2016 3603 2400 3603 
Q 2816 3603 3110 3433 
Q 3405 3264 3539 2925 
Q 3744 3251 4022 3427 
Q 4301 3603 4710 3603 
z
" transform="scale(0.015625)"/>
      </defs>
      <use xlink:href="#HelveticaNowMicro-Regular-53"/>
      <use xlink:href="#HelveticaNowMicro-Regular-6f" transform="translate(77.799988 0)"/>
      <use xlink:href="#HelveticaNowMicro-Regular-6d" transform="translate(147.599976 0)"/>
      <use xlink:href="#HelveticaNowMicro-Regular-65" transform="translate(251.499969 0)"/>
      <use xlink:href="#HelveticaNowMicro-Regular-20" transform="translate(319.199951 0)"/>
      <use xlink:href="#HelveticaNowMicro-Regular-63" transform="translate(351.199936 0)"/>
      <use xlink:href="#HelveticaNowMicro-Regular-6f" transform="translate(415.199921 0)"/>
      <use xlink:href="#HelveticaNowMicro-Regular-6c" transform="translate(484.999908 0)"/>
      <use xlink:href="#HelveticaNowMicro-Regular-6c" transform="translate(516.299896 0)"/>
      <use xlink:href="#HelveticaNowMicro-Regular-65" transform="translate(547.599884 0)"/>
      <use xlink:href="#HelveticaNowMicro-Regular-67" transform="translate(615.299866 0)"/>
      <use xlink:href="#HelveticaNowMicro-Regular-65" transform="translate(684.69986 0)"/>
      <use xlink:href="#HelveticaNowMicro-Regular-20" transform="translate(752.399841 0)"/>
      <use xlink:href="#HelveticaNowMicro-Regular-6f" transform="translate(784.399826 0)"/>
      <use xlink:href="#HelveticaNowMicro-Regular-72" transform="translate(854.199814 0)"/>
      <use xlink:href="#HelveticaNowMicro-Regular-20" transform="translate(899.699799 0)"/>
      <use xlink:href="#HelveticaNowMicro-Regular-61" transform="translate(931.699783 0)"/>
      <use xlink:href="#HelveticaNowMicro-Regular-73" transform="translate(999.199768 0)"/>
      <use xlink:href="#HelveticaNowMicro-Regular-73" transform="translate(1062.699753 0)"/>
      <use xlink:href="#HelveticaNowMicro-Regular-6f" transform="translate(1126.199738 0)"/>
      <use xlink:href="#HelveticaNowMicro-Regular-63" transform="translate(1195.999725 0)"/>
      <use xlink:href="#HelveticaNowMicro-Regular-69" transform="translate(1259.99971 0)"/>
      <use xlink:href="#HelveticaNowMicro-Regular-61" transform="translate(1291.299698 0)"/>
      <use xlink:href="#HelveticaNowMicro-Regular-74" transform="translate(1358.799683 0)"/>
      <use xlink:href="#HelveticaNowMicro-Regular-65" transform="translate(1408.799667 0)"/>
      <use xlink:href="#HelveticaNowMicro-Regular-20" transform="translate(1476.499649 0)"/>
      <use xlink:href="#HelveticaNowMicro-Regular-64" transform="translate(1508.499634 0)"/>
      <use xlink:href="#HelveticaNowMicro-Regular-65" transform="translate(1578.699615 0)"/>
      <use xlink:href="#HelveticaNowMicro-Regular-67" transform="translate(1646.399597 0)"/>
      <use xlink:href="#HelveticaNowMicro-Regular-72" transform="translate(1715.799591 0)"/>
      <use xlink:href="#HelveticaNowMicro-Regular-65" transform="translate(1761.299576 0)"/>
      <use xlink:href="#HelveticaNowMicro-Regular-65" transform="translate(1828.999557 0)"/>
     </g>
    </g>
    <g id="line2d_21">
     <path d="M 81 354.808125 
L 91 354.808125 
L 101 354.808125 
" style="fill: none; stroke: #56b4e9; stroke-width: 1.5; stroke-linecap: square"/>
     <g>
      <use xlink:href="#md5fa9db9ad" x="91" y="354.808125" style="fill: #56b4e9; stroke: #56b4e9; stroke-linejoin: miter"/>
     </g>
    </g>
    <g id="text_19">
     <!-- High school graduates (no college) -->
     <g transform="translate(109 358.308125) scale(0.1 -0.1)">
      <defs>
       <path id="HelveticaNowMicro-Regular-48" d="M 4762 4915 
L 4762 0 
L 4102 0 
L 4102 2266 
L 1408 2266 
L 1408 0 
L 749 0 
L 749 4915 
L 1408 4915 
L 1408 2822 
L 4102 2822 
L 4102 4915 
L 4762 4915 
z
" transform="scale(0.015625)"/>
       <path id="HelveticaNowMicro-Regular-28" d="M 1587 -1306 
Q 1062 -589 809 185 
Q 557 960 557 1894 
Q 557 2822 809 3622 
Q 1062 4422 1587 5139 
L 2144 5139 
Q 1677 4422 1437 3619 
Q 1197 2816 1197 1888 
Q 1197 966 1437 188 
Q 1677 -589 2144 -1306 
L 1587 -1306 
z
" transform="scale(0.015625)"/>
       <path id="HelveticaNowMicro-Regular-29" d="M 371 -1306 
Q 838 -589 1075 188 
Q 1312 966 1312 1888 
Q 1312 2816 1075 3619 
Q 838 4422 371 5139 
L 928 5139 
Q 1453 4422 1702 3622 
Q 1952 2822 1952 1894 
Q 1952 960 1702 185 
Q 1453 -589 928 -1306 
L 371 -1306 
z
" transform="scale(0.015625)"/>
      </defs>
      <use xlink:href="#HelveticaNowMicro-Regular-48"/>
      <use xlink:href="#HelveticaNowMicro-Regular-69" transform="translate(85.999985 0)"/>
      <use xlink:href="#HelveticaNowMicro-Regular-67" transform="translate(117.299973 0)"/>
      <use xlink:href="#HelveticaNowMicro-Regular-68" transform="translate(186.699966 0)"/>
      <use xlink:href="#HelveticaNowMicro-Regular-20" transform="translate(254.299957 0)"/>
      <use xlink:href="#HelveticaNowMicro-Regular-73" transform="translate(286.299942 0)"/>
      <use xlink:href="#HelveticaNowMicro-Regular-63" transform="translate(349.799927 0)"/>
      <use xlink:href="#HelveticaNowMicro-Regular-68" transform="translate(413.799911 0)"/>
      <use xlink:href="#HelveticaNowMicro-Regular-6f" transform="translate(481.399902 0)"/>
      <use xlink:href="#HelveticaNowMicro-Regular-6f" transform="translate(551.19989 0)"/>
      <use xlink:href="#HelveticaNowMicro-Regular-6c" transform="translate(620.999878 0)"/>
      <use xlink:href="#HelveticaNowMicro-Regular-20" transform="translate(652.299866 0)"/>
      <use xlink:href="#HelveticaNowMicro-Regular-67" transform="translate(684.29985 0)"/>
      <use xlink:href="#HelveticaNowMicro-Regular-72" transform="translate(753.699844 0)"/>
      <use xlink:href="#HelveticaNowMicro-Regular-61" transform="translate(799.199829 0)"/>
      <use xlink:href="#HelveticaNowMicro-Regular-64" transform="translate(866.699814 0)"/>
      <use xlink:href="#HelveticaNowMicro-Regular-75" transform="translate(936.899796 0)"/>
      <use xlink:href="#HelveticaNowMicro-Regular-61" transform="translate(1004.499786 0)"/>
      <use xlink:href="#HelveticaNowMicro-Regular-74" transform="translate(1071.999771 0)"/>
      <use xlink:href="#HelveticaNowMicro-Regular-65" transform="translate(1121.999756 0)"/>
      <use xlink:href="#HelveticaNowMicro-Regular-73" transform="translate(1189.699738 0)"/>
      <use xlink:href="#HelveticaNowMicro-Regular-20" transform="translate(1253.199722 0)"/>
      <use xlink:href="#HelveticaNowMicro-Regular-28" transform="translate(1285.199707 0)"/>
      <use xlink:href="#HelveticaNowMicro-Regular-6e" transform="translate(1324.499695 0)"/>
      <use xlink:href="#HelveticaNowMicro-Regular-6f" transform="translate(1392.099686 0)"/>
      <use xlink:href="#HelveticaNowMicro-Regular-20" transform="translate(1461.899673 0)"/>
      <use xlink:href="#HelveticaNowMicro-Regular-63" transform="translate(1493.899658 0)"/>
      <use xlink:href="#HelveticaNowMicro-Regular-6f" transform="translate(1557.899643 0)"/>
      <use xlink:href="#HelveticaNowMicro-Regular-6c" transform="translate(1627.699631 0)"/>
      <use xlink:href="#HelveticaNowMicro-Regular-6c" transform="translate(1658.999619 0)"/>
      <use xlink:href="#HelveticaNowMicro-Regular-65" transform="translate(1690.299606 0)"/>
      <use xlink:href="#HelveticaNowMicro-Regular-67" transform="translate(1757.999588 0)"/>
      <use xlink:href="#HelveticaNowMicro-Regular-65" transform="translate(1827.399582 0)"/>
      <use xlink:href="#HelveticaNowMicro-Regular-29" transform="translate(1895.099564 0)"/>
     </g>
    </g>
    <g id="line2d_22">
     <path d="M 81 369.839375 
L 91 369.839375 
L 101 369.839375 
" style="fill: none; stroke: #009e73; stroke-width: 1.5; stroke-linecap: square"/>
     <g>
      <use xlink:href="#mbf58a72286" x="91" y="369.839375" style="fill: #009e73; stroke: #009e73; stroke-linejoin: miter"/>
     </g>
    </g>
    <g id="text_20">
     <!-- Less than a high school diploma -->
     <g transform="translate(109 373.339375) scale(0.1 -0.1)">
      <defs>
       <path id="HelveticaNowMicro-Regular-4c" d="M 3955 531 
L 3955 0 
L 749 0 
L 749 4915 
L 1395 4915 
L 1395 531 
L 3955 531 
z
" transform="scale(0.015625)"/>
      </defs>
      <use xlink:href="#HelveticaNowMicro-Regular-4c"/>
      <use xlink:href="#HelveticaNowMicro-Regular-65" transform="translate(62.949997 0)"/>
      <use xlink:href="#HelveticaNowMicro-Regular-73" transform="translate(130.649979 0)"/>
      <use xlink:href="#HelveticaNowMicro-Regular-73" transform="translate(194.149963 0)"/>
      <use xlink:href="#HelveticaNowMicro-Regular-20" transform="translate(257.649948 0)"/>
      <use xlink:href="#HelveticaNowMicro-Regular-74" transform="translate(289.649933 0)"/>
      <use xlink:href="#HelveticaNowMicro-Regular-68" transform="translate(339.649918 0)"/>
      <use xlink:href="#HelveticaNowMicro-Regular-61" transform="translate(407.249908 0)"/>
      <use xlink:href="#HelveticaNowMicro-Regular-6e" transform="translate(474.749893 0)"/>
      <use xlink:href="#HelveticaNowMicro-Regular-20" transform="translate(542.349884 0)"/>
      <use xlink:href="#HelveticaNowMicro-Regular-61" transform="translate(574.349869 0)"/>
      <use xlink:href="#HelveticaNowMicro-Regular-20" transform="translate(641.849854 0)"/>
      <use xlink:href="#HelveticaNowMicro-Regular-68" transform="translate(673.849838 0)"/>
      <use xlink:href="#HelveticaNowMicro-Regular-69" transform="translate(741.449829 0)"/>
      <use xlink:href="#HelveticaNowMicro-Regular-67" transform="translate(772.749817 0)"/>
      <use xlink:href="#HelveticaNowMicro-Regular-68" transform="translate(842.149811 0)"/>
      <use xlink:href="#HelveticaNowMicro-Regular-20" transform="translate(909.749802 0)"/>
      <use xlink:href="#HelveticaNowMicro-Regular-73" transform="translate(941.749786 0)"/>
      <use xlink:href="#HelveticaNowMicro-Regular-63" transform="translate(1005.249771 0)"/>
      <use xlink:href="#HelveticaNowMicro-Regular-68" transform="translate(1069.249756 0)"/>
      <use xlink:href="#HelveticaNowMicro-Regular-6f" transform="translate(1136.849747 0)"/>
      <use xlink:href="#HelveticaNowMicro-Regular-6f" transform="translate(1206.649734 0)"/>
      <use xlink:href="#HelveticaNowMicro-Regular-6c" transform="translate(1276.449722 0)"/>
      <use xlink:href="#HelveticaNowMicro-Regular-20" transform="translate(1307.74971 0)"/>
      <use xlink:href="#HelveticaNowMicro-Regular-64" transform="translate(1339.749695 0)"/>
      <use xlink:href="#HelveticaNowMicro-Regular-69" transform="translate(1409.949677 0)"/>
      <use xlink:href="#HelveticaNowMicro-Regular-70" transform="translate(1441.249664 0)"/>
      <use xlink:href="#HelveticaNowMicro-Regular-6c" transform="translate(1511.449646 0)"/>
      <use xlink:href="#HelveticaNowMicro-Regular-6f" transform="translate(1542.749634 0)"/>
      <use xlink:href="#HelveticaNowMicro-Regular-6d" transform="translate(1612.549622 0)"/>
      <use xlink:href="#HelveticaNowMicro-Regular-61" transform="translate(1716.449615 0)"/>
     </g>
    </g>
   </g>
  </g>
 </g>
 <defs>
  <clipPath id="p582a68958c">
   <rect x="72" y="51.84" width="446.4" height="332.64"/>
  </clipPath>
 </defs>
</svg>
