<?xml version="1.0" encoding="utf-8" standalone="no"?>
<!DOCTYPE svg PUBLIC "-//W3C//DTD SVG 1.1//EN"
  "http://www.w3.org/Graphics/SVG/1.1/DTD/svg11.dtd">
<svg xmlns:xlink="http://www.w3.org/1999/xlink" width="576pt" height="432pt" viewBox="0 0 576 432" xmlns="http://www.w3.org/2000/svg" version="1.1">
 <metadata>
  <rdf:RDF xmlns:dc="http://purl.org/dc/elements/1.1/" xmlns:cc="http://creativecommons.org/ns#" xmlns:rdf="http://www.w3.org/1999/02/22-rdf-syntax-ns#">
   <cc:Work>
    <dc:type rdf:resource="http://purl.org/dc/dcmitype/StillImage"/>
    <dc:date>2026-06-14T08:12:53.958159</dc:date>
    <dc:format>image/svg+xml</dc:format>
    <dc:creator>
     <cc:Agent>
      <dc:title>Matplotlib v3.11.0, https://matplotlib.org/</dc:title>
     </cc:Agent>
    </dc:creator>
   </cc:Work>
  </rdf:RDF>
 </metadata>
 <defs>
  <style type="text/css">*{stroke-linejoin: round; stroke-linecap: butt}</style>
 </defs>
 <g id="figure_1">
  <g id="patch_1">
   <path d="M 0 432 
L 576 432 
L 576 0 
L 0 0 
z
" style="fill: #ffffff"/>
  </g>
  <g id="axes_1">
   <g id="patch_2">
    <path d="M 72 384.48 
L 518.4 384.48 
L 518.4 51.84 
L 72 51.84 
z
" style="fill: #ffffff"/>
   </g>
   <g id="matplotlib.axis_1">
    <g id="xtick_1">
     <g id="line2d_1">
      <defs>
       <path id="m012355e0ba" d="M 0 0 
L 0 3.5 
" style="stroke: #000000; stroke-width: 0.8"/>
      </defs>
      <g>
       <use xlink:href="#m012355e0ba" x="108.708725" y="384.48" style="stroke: #000000; stroke-width: 0.8"/>
      </g>
     </g>
     <g id="text_1">
      <!-- 1986 -->
      <g transform="translate(94.784506 400.23) scale(0.1 -0.1)">
       <defs>
        <path id="HelveticaNowMicro-Regular-14" d="M 1632 3482 
L 371 3482 
L 371 3949 
L 435 3949 
Q 736 3949 960 4003 
Q 1184 4058 1344 4186 
Q 1606 4390 1683 4838 
L 1696 4915 
L 2291 4915 
L 2291 0 
L 1632 0 
L 1632 3482 
z
" transform="scale(0.015625)"/>
        <path id="HelveticaNowMicro-Regular-1c" d="M 3725 4384 
Q 3853 4237 3942 4067 
Q 4032 3898 4089 3693 
Q 4147 3488 4172 3238 
Q 4198 2989 4198 2669 
Q 4198 2099 4112 1596 
Q 4026 1094 3808 716 
Q 3590 339 3219 121 
Q 2848 -96 2278 -96 
Q 1638 -96 1219 179 
Q 800 454 659 966 
L 1306 1062 
Q 1376 794 1606 614 
Q 1837 435 2285 435 
Q 2586 435 2816 537 
Q 3046 640 3209 873 
Q 3373 1107 3462 1481 
Q 3552 1856 3558 2400 
Q 3347 2074 3004 1907 
Q 2662 1741 2221 1741 
Q 1862 1741 1564 1853 
Q 1267 1965 1056 2176 
Q 845 2387 729 2688 
Q 614 2989 614 3360 
Q 614 3731 729 4035 
Q 845 4339 1065 4556 
Q 1286 4774 1606 4896 
Q 1926 5018 2330 5018 
Q 2765 5018 3107 4864 
Q 3450 4710 3725 4384 
z
M 2317 2272 
Q 2752 2272 3091 2525 
Q 3430 2778 3533 3290 
Q 3501 3603 3421 3779 
Q 3341 3955 3213 4090 
Q 3021 4301 2793 4384 
Q 2566 4467 2323 4467 
Q 1830 4467 1539 4185 
Q 1248 3904 1248 3392 
Q 1248 2874 1539 2573 
Q 1830 2272 2317 2272 
z
" transform="scale(0.015625)"/>
        <path id="HelveticaNowMicro-Regular-1b" d="M 2400 -102 
Q 2022 -102 1689 -6 
Q 1357 90 1107 278 
Q 858 467 710 752 
Q 563 1037 563 1414 
Q 563 1862 822 2208 
Q 1082 2554 1530 2662 
L 1530 2675 
Q 1146 2816 934 3091 
Q 723 3366 723 3744 
Q 723 4051 844 4291 
Q 966 4531 1187 4694 
Q 1408 4858 1718 4944 
Q 2029 5030 2400 5030 
Q 2778 5030 3085 4944 
Q 3392 4858 3616 4694 
Q 3840 4531 3961 4291 
Q 4083 4051 4083 3744 
Q 4083 3379 3875 3100 
Q 3667 2822 3283 2675 
L 3283 2662 
Q 3731 2515 3993 2204 
Q 4256 1894 4256 1414 
Q 4256 1037 4105 752 
Q 3955 467 3702 278 
Q 3450 90 3114 -6 
Q 2778 -102 2400 -102 
z
M 2400 2912 
Q 2880 2912 3165 3123 
Q 3450 3334 3450 3712 
Q 3450 4090 3165 4288 
Q 2880 4486 2400 4486 
Q 1920 4486 1641 4288 
Q 1363 4090 1363 3712 
Q 1363 3334 1641 3123 
Q 1920 2912 2400 2912 
z
M 2400 448 
Q 2970 448 3293 710 
Q 3616 973 3616 1427 
Q 3616 1862 3293 2121 
Q 2970 2381 2400 2381 
Q 1830 2381 1520 2128 
Q 1210 1875 1210 1427 
Q 1210 973 1520 710 
Q 1830 448 2400 448 
z
" transform="scale(0.015625)"/>
        <path id="HelveticaNowMicro-Regular-19" d="M 2592 3174 
Q 2950 3174 3244 3062 
Q 3539 2950 3750 2739 
Q 3962 2528 4080 2230 
Q 4198 1933 4198 1555 
Q 4198 1184 4080 880 
Q 3962 576 3741 358 
Q 3520 141 3200 19 
Q 2880 -102 2477 -102 
Q 2048 -102 1702 51 
Q 1357 205 1082 531 
Q 960 678 870 848 
Q 781 1018 723 1222 
Q 666 1427 640 1680 
Q 614 1933 614 2246 
Q 614 2816 700 3318 
Q 787 3821 1004 4198 
Q 1222 4576 1593 4793 
Q 1965 5011 2534 5011 
Q 3174 5011 3593 4736 
Q 4013 4461 4147 3949 
L 3501 3853 
Q 3430 4122 3200 4301 
Q 2970 4480 2522 4480 
Q 2227 4480 1996 4377 
Q 1766 4275 1603 4044 
Q 1440 3814 1353 3440 
Q 1267 3066 1254 2522 
Q 1459 2848 1808 3011 
Q 2157 3174 2592 3174 
z
M 2483 448 
Q 2976 448 3267 729 
Q 3558 1011 3558 1523 
Q 3558 2042 3270 2342 
Q 2982 2643 2490 2643 
Q 2061 2643 1725 2396 
Q 1389 2150 1280 1645 
Q 1312 1318 1389 1139 
Q 1466 960 1594 826 
Q 1786 614 2016 531 
Q 2246 448 2483 448 
z
" transform="scale(0.015625)"/>
       </defs>
       <use xlink:href="#HelveticaNowMicro-Regular-14"/>
       <use xlink:href="#HelveticaNowMicro-Regular-1c" transform="translate(53.203125 0)"/>
       <use xlink:href="#HelveticaNowMicro-Regular-1b" transform="translate(128.296875 0)"/>
       <use xlink:href="#HelveticaNowMicro-Regular-19" transform="translate(203.390625 0)"/>
      </g>
     </g>
    </g>
    <g id="xtick_2">
     <g id="line2d_2">
      <g>
       <use xlink:href="#m012355e0ba" x="169.179701" y="384.48" style="stroke: #000000; stroke-width: 0.8"/>
      </g>
     </g>
     <g id="text_2">
      <!-- 1992 -->
      <g transform="translate(155.255482 400.23) scale(0.1 -0.1)">
       <defs>
        <path id="HelveticaNowMicro-Regular-15" d="M 634 0 
Q 634 627 928 1078 
Q 1222 1530 1882 1926 
L 2656 2400 
Q 3059 2643 3248 2886 
Q 3437 3130 3437 3494 
Q 3437 3936 3174 4182 
Q 2912 4429 2413 4429 
Q 1914 4429 1645 4169 
Q 1376 3910 1376 3430 
L 1376 3347 
L 736 3347 
L 736 3411 
Q 736 3776 851 4070 
Q 966 4365 1184 4576 
Q 1402 4787 1715 4899 
Q 2029 5011 2426 5011 
Q 2797 5011 3101 4912 
Q 3405 4813 3622 4621 
Q 3840 4429 3961 4150 
Q 4083 3872 4083 3507 
Q 4083 3270 4022 3056 
Q 3962 2842 3824 2640 
Q 3686 2438 3462 2246 
Q 3238 2054 2912 1862 
L 2445 1587 
Q 2189 1434 2009 1312 
Q 1830 1190 1715 1075 
Q 1600 960 1539 845 
Q 1478 730 1466 595 
L 4173 595 
L 4173 0 
L 634 0 
z
" transform="scale(0.015625)"/>
       </defs>
       <use xlink:href="#HelveticaNowMicro-Regular-14"/>
       <use xlink:href="#HelveticaNowMicro-Regular-1c" transform="translate(53.203125 0)"/>
       <use xlink:href="#HelveticaNowMicro-Regular-1c" transform="translate(128.296875 0)"/>
       <use xlink:href="#HelveticaNowMicro-Regular-15" transform="translate(203.390625 0)"/>
      </g>
     </g>
    </g>
    <g id="xtick_3">
     <g id="line2d_3">
      <g>
       <use xlink:href="#m012355e0ba" x="229.678276" y="384.48" style="stroke: #000000; stroke-width: 0.8"/>
      </g>
     </g>
     <g id="text_3">
      <!-- 1998 -->
      <g transform="translate(215.754058 400.23) scale(0.1 -0.1)">
       <use xlink:href="#HelveticaNowMicro-Regular-14"/>
       <use xlink:href="#HelveticaNowMicro-Regular-1c" transform="translate(53.203125 0)"/>
       <use xlink:href="#HelveticaNowMicro-Regular-1c" transform="translate(128.296875 0)"/>
       <use xlink:href="#HelveticaNowMicro-Regular-1b" transform="translate(203.390625 0)"/>
      </g>
     </g>
    </g>
    <g id="xtick_4">
     <g id="line2d_4">
      <g>
       <use xlink:href="#m012355e0ba" x="290.149252" y="384.48" style="stroke: #000000; stroke-width: 0.8"/>
      </g>
     </g>
     <g id="text_4">
      <!-- 2004 -->
      <g transform="translate(275.130502 400.23) scale(0.1 -0.1)">
       <defs>
        <path id="HelveticaNowMicro-Regular-13" d="M 2406 -102 
Q 1478 -102 1001 538 
Q 525 1178 525 2458 
Q 525 3738 1001 4374 
Q 1478 5011 2406 5011 
Q 3328 5011 3805 4374 
Q 4282 3738 4282 2458 
Q 4282 1178 3805 538 
Q 3328 -102 2406 -102 
z
M 2406 454 
Q 2739 454 2972 588 
Q 3206 723 3356 982 
Q 3507 1242 3574 1613 
Q 3642 1984 3642 2458 
Q 3642 2931 3574 3302 
Q 3507 3674 3356 3933 
Q 3206 4192 2972 4326 
Q 2739 4461 2406 4461 
Q 2074 4461 1840 4326 
Q 1606 4192 1456 3933 
Q 1306 3674 1238 3302 
Q 1171 2931 1171 2458 
Q 1171 1984 1238 1613 
Q 1306 1242 1456 982 
Q 1606 723 1840 588 
Q 2074 454 2406 454 
z
" transform="scale(0.015625)"/>
        <path id="HelveticaNowMicro-Regular-17" d="M 4326 1734 
L 4326 1210 
L 3565 1280 
L 3565 0 
L 2957 0 
L 2957 1280 
L 493 1210 
L 493 1677 
L 2573 4915 
L 3565 4915 
L 3565 1670 
L 4326 1734 
z
M 2957 4486 
L 2938 4486 
L 1171 1728 
L 2957 1670 
L 2957 4486 
z
" transform="scale(0.015625)"/>
       </defs>
       <use xlink:href="#HelveticaNowMicro-Regular-15"/>
       <use xlink:href="#HelveticaNowMicro-Regular-13" transform="translate(75.09375 0)"/>
       <use xlink:href="#HelveticaNowMicro-Regular-13" transform="translate(150.1875 0)"/>
       <use xlink:href="#HelveticaNowMicro-Regular-17" transform="translate(225.28125 0)"/>
      </g>
     </g>
    </g>
    <g id="xtick_5">
     <g id="line2d_5">
      <g>
       <use xlink:href="#m012355e0ba" x="350.647828" y="384.48" style="stroke: #000000; stroke-width: 0.8"/>
      </g>
     </g>
     <g id="text_5">
      <!-- 2010 -->
      <g transform="translate(336.723609 400.23) scale(0.1 -0.1)">
       <use xlink:href="#HelveticaNowMicro-Regular-15"/>
       <use xlink:href="#HelveticaNowMicro-Regular-13" transform="translate(75.09375 0)"/>
       <use xlink:href="#HelveticaNowMicro-Regular-14" transform="translate(150.1875 0)"/>
       <use xlink:href="#HelveticaNowMicro-Regular-13" transform="translate(203.390625 0)"/>
      </g>
     </g>
    </g>
    <g id="xtick_6">
     <g id="line2d_6">
      <g>
       <use xlink:href="#m012355e0ba" x="411.118803" y="384.48" style="stroke: #000000; stroke-width: 0.8"/>
      </g>
     </g>
     <g id="text_6">
      <!-- 2016 -->
      <g transform="translate(397.194585 400.23) scale(0.1 -0.1)">
       <use xlink:href="#HelveticaNowMicro-Regular-15"/>
       <use xlink:href="#HelveticaNowMicro-Regular-13" transform="translate(75.09375 0)"/>
       <use xlink:href="#HelveticaNowMicro-Regular-14" transform="translate(150.1875 0)"/>
       <use xlink:href="#HelveticaNowMicro-Regular-19" transform="translate(203.390625 0)"/>
      </g>
     </g>
    </g>
    <g id="xtick_7">
     <g id="line2d_7">
      <g>
       <use xlink:href="#m012355e0ba" x="471.617379" y="384.48" style="stroke: #000000; stroke-width: 0.8"/>
      </g>
     </g>
     <g id="text_7">
      <!-- 2022 -->
      <g transform="translate(456.598629 400.23) scale(0.1 -0.1)">
       <use xlink:href="#HelveticaNowMicro-Regular-15"/>
       <use xlink:href="#HelveticaNowMicro-Regular-13" transform="translate(75.09375 0)"/>
       <use xlink:href="#HelveticaNowMicro-Regular-15" transform="translate(150.1875 0)"/>
       <use xlink:href="#HelveticaNowMicro-Regular-15" transform="translate(225.28125 0)"/>
      </g>
     </g>
    </g>
    <g id="text_8">
     <!-- Year -->
     <g transform="translate(283.194531 414.23) scale(0.1 -0.1)">
      <defs>
       <path id="HelveticaNowMicro-Regular-3c" d="M 4416 4922 
L 2605 1990 
L 2605 0 
L 1939 0 
L 1939 1990 
L 134 4922 
L 851 4922 
L 2150 2714 
L 2285 2470 
L 2419 2720 
L 3725 4922 
L 4416 4922 
z
" transform="scale(0.015625)"/>
       <path id="HelveticaNowMicro-Regular-48" d="M 3866 1562 
L 1107 1562 
Q 1146 954 1437 685 
Q 1728 416 2227 416 
Q 2598 416 2838 557 
Q 3078 698 3226 992 
L 3782 890 
Q 3597 442 3187 170 
Q 2778 -102 2195 -102 
Q 1773 -102 1449 38 
Q 1126 179 908 425 
Q 691 672 579 1011 
Q 467 1350 467 1747 
Q 467 2144 576 2486 
Q 685 2829 899 3078 
Q 1114 3328 1434 3469 
Q 1754 3610 2182 3610 
Q 2611 3610 2928 3469 
Q 3245 3328 3453 3081 
Q 3661 2835 3763 2492 
Q 3866 2150 3866 1747 
L 3866 1562 
z
M 2176 3123 
Q 1715 3123 1436 2848 
Q 1158 2573 1107 2029 
L 3238 2029 
Q 3219 2266 3155 2467 
Q 3091 2669 2966 2813 
Q 2842 2957 2650 3040 
Q 2458 3123 2176 3123 
z
" transform="scale(0.015625)"/>
       <path id="HelveticaNowMicro-Regular-44" d="M 4070 512 
L 4070 0 
L 3558 0 
Q 3309 0 3145 137 
Q 2982 275 2950 499 
Q 2765 198 2432 48 
Q 2099 -102 1696 -102 
Q 1427 -102 1200 -38 
Q 973 26 803 157 
Q 634 288 541 480 
Q 448 672 448 922 
Q 448 1171 541 1353 
Q 634 1536 803 1667 
Q 973 1798 1219 1884 
Q 1466 1971 1773 2029 
L 2586 2182 
Q 2739 2208 2874 2272 
L 2874 2458 
Q 2874 2605 2842 2723 
Q 2810 2842 2723 2928 
Q 2637 3014 2480 3059 
Q 2323 3104 2080 3104 
Q 1600 3104 1392 2950 
Q 1184 2797 1146 2419 
L 570 2496 
Q 634 3072 1024 3341 
Q 1414 3610 2093 3610 
Q 2509 3610 2777 3523 
Q 3046 3437 3206 3286 
Q 3366 3136 3430 2928 
Q 3494 2720 3494 2477 
L 3494 800 
Q 3494 634 3555 573 
Q 3616 512 3782 512 
L 4070 512 
z
M 1830 371 
Q 2202 371 2490 560 
Q 2778 749 2874 1094 
L 2874 1811 
Q 2816 1792 2758 1773 
Q 2701 1754 2630 1741 
L 1869 1587 
Q 1498 1517 1293 1376 
Q 1088 1235 1088 947 
Q 1088 678 1280 524 
Q 1472 371 1830 371 
z
" transform="scale(0.015625)"/>
       <path id="HelveticaNowMicro-Regular-55" d="M 2720 3520 
L 2720 2944 
L 2515 2944 
Q 2336 2944 2157 2918 
Q 1978 2893 1821 2809 
Q 1664 2726 1536 2563 
Q 1408 2400 1325 2125 
L 1325 0 
L 685 0 
L 685 3507 
L 1267 3507 
L 1299 2829 
Q 1466 3181 1760 3350 
Q 2054 3520 2470 3520 
L 2720 3520 
z
" transform="scale(0.015625)"/>
      </defs>
      <use xlink:href="#HelveticaNowMicro-Regular-3c"/>
      <use xlink:href="#HelveticaNowMicro-Regular-48" transform="translate(59.40625 0)"/>
      <use xlink:href="#HelveticaNowMicro-Regular-44" transform="translate(127.109375 0)"/>
      <use xlink:href="#HelveticaNowMicro-Regular-55" transform="translate(194.609375 0)"/>
     </g>
    </g>
   </g>
   <g id="matplotlib.axis_2">
    <g id="ytick_1">
     <g id="line2d_8">
      <defs>
       <path id="m091cb4acb7" d="M 0 0 
L -3.5 0 
" style="stroke: #000000; stroke-width: 0.8"/>
      </defs>
      <g>
       <use xlink:href="#m091cb4acb7" x="72" y="384.48" style="stroke: #000000; stroke-width: 0.8"/>
      </g>
     </g>
     <g id="text_9">
      <!-- 0 -->
      <g transform="translate(57.490625 388.855) scale(0.1 -0.1)">
       <use xlink:href="#HelveticaNowMicro-Regular-13"/>
      </g>
     </g>
    </g>
    <g id="ytick_2">
     <g id="line2d_9">
      <g>
       <use xlink:href="#m091cb4acb7" x="72" y="317.952" style="stroke: #000000; stroke-width: 0.8"/>
      </g>
     </g>
     <g id="text_10">
      <!-- 20 -->
      <g transform="translate(49.98125 322.327) scale(0.1 -0.1)">
       <use xlink:href="#HelveticaNowMicro-Regular-15"/>
       <use xlink:href="#HelveticaNowMicro-Regular-13" transform="translate(75.09375 0)"/>
      </g>
     </g>
    </g>
    <g id="ytick_3">
     <g id="line2d_10">
      <g>
       <use xlink:href="#m091cb4acb7" x="72" y="251.424" style="stroke: #000000; stroke-width: 0.8"/>
      </g>
     </g>
     <g id="text_11">
      <!-- 40 -->
      <g transform="translate(49.98125 255.799) scale(0.1 -0.1)">
       <use xlink:href="#HelveticaNowMicro-Regular-17"/>
       <use xlink:href="#HelveticaNowMicro-Regular-13" transform="translate(75.09375 0)"/>
      </g>
     </g>
    </g>
    <g id="ytick_4">
     <g id="line2d_11">
      <g>
       <use xlink:href="#m091cb4acb7" x="72" y="184.896" style="stroke: #000000; stroke-width: 0.8"/>
      </g>
     </g>
     <g id="text_12">
      <!-- 60 -->
      <g transform="translate(49.98125 189.271) scale(0.1 -0.1)">
       <use xlink:href="#HelveticaNowMicro-Regular-19"/>
       <use xlink:href="#HelveticaNowMicro-Regular-13" transform="translate(75.09375 0)"/>
      </g>
     </g>
    </g>
    <g id="ytick_5">
     <g id="line2d_12">
      <g>
       <use xlink:href="#m091cb4acb7" x="72" y="118.368" style="stroke: #000000; stroke-width: 0.8"/>
      </g>
     </g>
     <g id="text_13">
      <!-- 80 -->
      <g transform="translate(49.98125 122.743) scale(0.1 -0.1)">
       <use xlink:href="#HelveticaNowMicro-Regular-1b"/>
       <use xlink:href="#HelveticaNowMicro-Regular-13" transform="translate(75.09375 0)"/>
      </g>
     </g>
    </g>
    <g id="ytick_6">
     <g id="line2d_13">
      <g>
       <use xlink:href="#m091cb4acb7" x="72" y="51.84" style="stroke: #000000; stroke-width: 0.8"/>
      </g>
     </g>
     <g id="text_14">
      <!-- 100 -->
      <g transform="translate(44.660938 56.215) scale(0.1 -0.1)">
       <use xlink:href="#HelveticaNowMicro-Regular-14"/>
       <use xlink:href="#HelveticaNowMicro-Regular-13" transform="translate(53.203125 0)"/>
       <use xlink:href="#HelveticaNowMicro-Regular-13" transform="translate(128.296875 0)"/>
      </g>
     </g>
    </g>
    <g id="text_15">
     <!-- % US students reading for fun weekly or more often -->
     <g transform="translate(38.520312 365.239687) rotate(-90) scale(0.1 -0.1)">
      <defs>
       <path id="HelveticaNowMicro-Regular-8" d="M 2067 2138 
Q 1434 2138 1091 2531 
Q 749 2925 749 3648 
Q 749 4365 1088 4761 
Q 1427 5158 2067 5158 
Q 2701 5158 3043 4761 
Q 3386 4365 3386 3648 
Q 3386 2925 3040 2531 
Q 2694 2138 2067 2138 
z
M 5670 5011 
L 6304 5011 
L 3232 -96 
L 2579 -96 
L 5670 5011 
z
M 2067 2566 
Q 2458 2566 2675 2835 
Q 2893 3104 2893 3648 
Q 2893 4192 2675 4467 
Q 2458 4742 2067 4742 
Q 1670 4742 1456 4467 
Q 1242 4192 1242 3648 
Q 1242 3104 1456 2835 
Q 1670 2566 2067 2566 
z
M 6957 -64 
Q 6330 -64 5984 329 
Q 5638 723 5638 1446 
Q 5638 2163 5980 2560 
Q 6323 2957 6957 2957 
Q 7597 2957 7936 2560 
Q 8275 2163 8275 1446 
Q 8275 723 7932 329 
Q 7590 -64 6957 -64 
z
M 6957 365 
Q 7354 365 7568 633 
Q 7782 902 7782 1446 
Q 7782 1990 7568 2265 
Q 7354 2541 6957 2541 
Q 6566 2541 6348 2265 
Q 6131 1990 6131 1446 
Q 6131 902 6348 633 
Q 6566 365 6957 365 
z
" transform="scale(0.015625)"/>
       <path id="HelveticaNowMicro-Regular-3" transform="scale(0.015625)"/>
       <path id="HelveticaNowMicro-Regular-38" d="M 2701 -109 
Q 1677 -109 1213 345 
Q 749 800 749 1734 
L 749 4915 
L 1408 4915 
L 1408 1683 
Q 1408 1043 1705 748 
Q 2003 454 2701 454 
Q 3392 454 3689 748 
Q 3987 1043 3987 1683 
L 3987 4915 
L 4653 4915 
L 4653 1734 
Q 4653 794 4173 342 
Q 3693 -109 2701 -109 
z
" transform="scale(0.015625)"/>
       <path id="HelveticaNowMicro-Regular-36" d="M 2515 -128 
Q 1613 -128 1094 249 
Q 576 627 448 1376 
L 1101 1440 
Q 1190 954 1523 685 
Q 1856 416 2534 416 
Q 3194 416 3536 649 
Q 3878 883 3878 1306 
Q 3878 1510 3801 1654 
Q 3725 1798 3581 1900 
Q 3437 2003 3238 2067 
Q 3040 2131 2790 2182 
L 2163 2310 
Q 1389 2470 1043 2787 
Q 698 3104 698 3661 
Q 698 4314 1178 4688 
Q 1658 5062 2541 5062 
Q 3014 5062 3356 4969 
Q 3699 4877 3929 4704 
Q 4160 4531 4288 4288 
Q 4416 4045 4461 3744 
L 3827 3680 
Q 3757 4109 3446 4313 
Q 3136 4518 2522 4518 
Q 1958 4518 1660 4313 
Q 1363 4109 1363 3725 
Q 1363 3546 1411 3418 
Q 1459 3290 1577 3194 
Q 1696 3098 1894 3027 
Q 2093 2957 2387 2893 
L 3008 2771 
Q 3437 2682 3728 2547 
Q 4019 2413 4198 2240 
Q 4378 2067 4458 1856 
Q 4538 1645 4538 1395 
Q 4538 1024 4394 739 
Q 4250 454 3984 262 
Q 3718 70 3347 -29 
Q 2976 -128 2515 -128 
z
" transform="scale(0.015625)"/>
       <path id="HelveticaNowMicro-Regular-56" d="M 2086 -134 
Q 1376 -134 985 157 
Q 595 448 480 992 
L 1094 1056 
Q 1178 672 1414 512 
Q 1651 352 2086 352 
Q 2464 352 2707 480 
Q 2950 608 2950 928 
Q 2950 1030 2918 1120 
Q 2886 1210 2800 1280 
Q 2714 1350 2566 1408 
Q 2419 1466 2195 1504 
L 1722 1594 
Q 1152 1702 886 1958 
Q 621 2214 621 2618 
Q 621 3104 982 3373 
Q 1344 3642 2029 3642 
Q 2707 3642 3088 3379 
Q 3469 3117 3578 2598 
L 2982 2528 
Q 2899 2893 2649 3027 
Q 2400 3162 2042 3162 
Q 1242 3162 1242 2643 
Q 1242 2432 1405 2313 
Q 1568 2195 1971 2118 
L 2413 2042 
Q 2989 1939 3283 1692 
Q 3578 1446 3578 986 
Q 3578 461 3200 163 
Q 2822 -134 2086 -134 
z
" transform="scale(0.015625)"/>
       <path id="HelveticaNowMicro-Regular-57" d="M 2816 3002 
L 1574 3053 
L 1626 2496 
L 1626 1030 
Q 1626 755 1760 636 
Q 1894 518 2099 518 
L 2810 518 
L 2810 0 
L 1978 0 
Q 1773 0 1590 61 
Q 1408 122 1273 246 
Q 1139 371 1062 560 
Q 986 749 986 1005 
L 986 2496 
L 1030 3053 
L 186 3002 
L 186 3507 
L 1024 3462 
L 986 3744 
L 986 4525 
L 1626 4525 
L 1626 3744 
L 1581 3456 
L 2816 3507 
L 2816 3002 
z
" transform="scale(0.015625)"/>
       <path id="HelveticaNowMicro-Regular-58" d="M 3648 3507 
L 3648 0 
L 3059 0 
L 3034 467 
Q 2835 198 2572 51 
Q 2310 -96 1946 -96 
Q 1363 -96 1024 237 
Q 685 570 685 1146 
L 685 3507 
L 1325 3507 
L 1325 1274 
Q 1325 877 1517 659 
Q 1709 442 2067 442 
Q 2406 442 2643 640 
Q 2880 838 3008 1184 
L 3008 3507 
L 3648 3507 
z
" transform="scale(0.015625)"/>
       <path id="HelveticaNowMicro-Regular-47" d="M 3808 4915 
L 3808 0 
L 3238 0 
L 3194 493 
Q 2995 211 2704 57 
Q 2413 -96 2029 -96 
Q 1683 -96 1395 35 
Q 1107 166 899 409 
Q 691 653 579 995 
Q 467 1338 467 1754 
Q 467 2182 572 2524 
Q 678 2867 880 3107 
Q 1082 3347 1373 3478 
Q 1664 3610 2029 3610 
Q 2400 3610 2685 3459 
Q 2970 3309 3168 3040 
L 3168 4915 
L 3808 4915 
z
M 2118 416 
Q 2470 416 2758 617 
Q 3046 819 3174 1254 
L 3181 2253 
Q 3053 2694 2765 2899 
Q 2477 3104 2118 3104 
Q 1619 3104 1363 2739 
Q 1107 2374 1107 1754 
Q 1107 1152 1366 784 
Q 1626 416 2118 416 
z
" transform="scale(0.015625)"/>
       <path id="HelveticaNowMicro-Regular-51" d="M 2381 3603 
Q 2963 3603 3305 3270 
Q 3648 2938 3648 2362 
L 3648 0 
L 3008 0 
L 3008 2234 
Q 3008 2630 2813 2848 
Q 2618 3066 2266 3066 
Q 1920 3066 1686 2867 
Q 1453 2669 1325 2323 
L 1325 0 
L 685 0 
L 685 3507 
L 1267 3507 
L 1293 3040 
Q 1491 3309 1753 3456 
Q 2016 3603 2381 3603 
z
" transform="scale(0.015625)"/>
       <path id="HelveticaNowMicro-Regular-4c" d="M 685 5050 
L 1325 5050 
L 1325 4269 
L 685 4269 
L 685 5050 
z
M 685 3507 
L 1325 3507 
L 1325 0 
L 685 0 
L 685 3507 
z
" transform="scale(0.015625)"/>
       <path id="HelveticaNowMicro-Regular-4a" d="M 3757 3514 
L 3757 83 
Q 3757 -621 3334 -995 
Q 2912 -1370 2176 -1370 
Q 1478 -1370 1110 -1088 
Q 742 -806 621 -314 
L 1235 -256 
Q 1338 -576 1562 -733 
Q 1786 -890 2202 -890 
Q 2643 -890 2880 -662 
Q 3117 -435 3117 58 
L 3117 659 
Q 2714 224 2022 224 
Q 1677 224 1392 345 
Q 1107 467 902 688 
Q 698 909 582 1219 
Q 467 1530 467 1914 
Q 467 2304 572 2617 
Q 678 2931 880 3152 
Q 1082 3373 1370 3494 
Q 1658 3616 2022 3616 
Q 2387 3616 2668 3478 
Q 2950 3341 3155 3098 
L 3187 3514 
L 3757 3514 
z
M 2112 730 
Q 2470 730 2736 915 
Q 3002 1101 3117 1498 
L 3117 2362 
Q 3002 2746 2733 2925 
Q 2464 3104 2112 3104 
Q 1613 3104 1357 2781 
Q 1101 2458 1101 1920 
Q 1101 1395 1360 1062 
Q 1619 730 2112 730 
z
" transform="scale(0.015625)"/>
       <path id="HelveticaNowMicro-Regular-49" d="M 1914 4506 
Q 1664 4461 1542 4339 
Q 1421 4218 1421 3949 
L 1517 3450 
L 2816 3507 
L 2816 3008 
L 1568 3059 
L 1626 2330 
L 1626 0 
L 986 0 
L 986 2330 
L 1043 3059 
L 186 3008 
L 186 3507 
L 1037 3456 
L 986 3981 
Q 986 4442 1238 4678 
Q 1491 4915 1958 4915 
L 2835 4915 
L 2835 4435 
L 1914 4506 
z
" transform="scale(0.015625)"/>
       <path id="HelveticaNowMicro-Regular-52" d="M 2234 -102 
Q 1811 -102 1481 29 
Q 1152 160 928 403 
Q 704 646 585 988 
Q 467 1331 467 1754 
Q 467 2170 585 2512 
Q 704 2854 931 3097 
Q 1158 3341 1484 3475 
Q 1811 3610 2234 3610 
Q 2656 3610 2982 3475 
Q 3309 3341 3536 3097 
Q 3763 2854 3881 2512 
Q 4000 2170 4000 1754 
Q 4000 1331 3881 988 
Q 3763 646 3536 403 
Q 3309 160 2982 29 
Q 2656 -102 2234 -102 
z
M 2234 435 
Q 2797 435 3075 793 
Q 3354 1152 3354 1754 
Q 3354 2362 3075 2717 
Q 2797 3072 2234 3072 
Q 1664 3072 1385 2717 
Q 1107 2362 1107 1754 
Q 1107 1152 1385 793 
Q 1664 435 2234 435 
z
" transform="scale(0.015625)"/>
       <path id="HelveticaNowMicro-Regular-5a" d="M 5658 3507 
L 4506 0 
L 3789 0 
L 3264 1818 
L 2989 2816 
L 2714 1811 
L 2182 0 
L 1466 0 
L 307 3507 
L 986 3507 
L 1683 1126 
L 1837 531 
L 1978 1126 
L 2630 3507 
L 3315 3507 
L 3987 1126 
L 4147 499 
L 4314 1126 
L 5011 3507 
L 5658 3507 
z
" transform="scale(0.015625)"/>
       <path id="HelveticaNowMicro-Regular-4e" d="M 1965 1875 
L 1325 1254 
L 1325 0 
L 685 0 
L 685 4915 
L 1325 4915 
L 1325 1830 
L 2963 3507 
L 3776 3507 
L 2381 2195 
L 3866 0 
L 3136 0 
L 1965 1875 
z
" transform="scale(0.015625)"/>
       <path id="HelveticaNowMicro-Regular-4f" d="M 685 4915 
L 1325 4915 
L 1325 0 
L 685 0 
L 685 4915 
z
" transform="scale(0.015625)"/>
       <path id="HelveticaNowMicro-Regular-5c" d="M 3578 3507 
L 2112 -499 
Q 1952 -928 1689 -1120 
Q 1427 -1312 1005 -1312 
L 602 -1312 
L 602 -787 
L 1018 -787 
Q 1242 -787 1366 -688 
Q 1491 -589 1581 -326 
L 1670 -70 
L 307 3507 
L 992 3507 
L 1971 755 
L 1984 653 
L 2918 3507 
L 3578 3507 
z
" transform="scale(0.015625)"/>
       <path id="HelveticaNowMicro-Regular-50" d="M 4710 3603 
Q 5293 3603 5632 3270 
Q 5971 2938 5971 2374 
L 5971 0 
L 5331 0 
L 5331 2202 
Q 5331 2618 5142 2842 
Q 4954 3066 4589 3066 
Q 4243 3066 4009 2867 
Q 3776 2669 3648 2323 
L 3648 0 
L 3008 0 
L 3008 2202 
Q 3008 2618 2819 2842 
Q 2630 3066 2266 3066 
Q 1920 3066 1686 2867 
Q 1453 2669 1325 2323 
L 1325 0 
L 685 0 
L 685 3507 
L 1267 3507 
L 1293 3040 
Q 1491 3309 1753 3456 
Q 2016 3603 2400 3603 
Q 2816 3603 3110 3433 
Q 3405 3264 3539 2925 
Q 3744 3251 4022 3427 
Q 4301 3603 4710 3603 
z
" transform="scale(0.015625)"/>
      </defs>
      <use xlink:href="#HelveticaNowMicro-Regular-8"/>
      <use xlink:href="#HelveticaNowMicro-Regular-3" transform="translate(140.90625 0)"/>
      <use xlink:href="#HelveticaNowMicro-Regular-38" transform="translate(172.90625 0)"/>
      <use xlink:href="#HelveticaNowMicro-Regular-36" transform="translate(257.109375 0)"/>
      <use xlink:href="#HelveticaNowMicro-Regular-3" transform="translate(334.90625 0)"/>
      <use xlink:href="#HelveticaNowMicro-Regular-56" transform="translate(366.90625 0)"/>
      <use xlink:href="#HelveticaNowMicro-Regular-57" transform="translate(430.40625 0)"/>
      <use xlink:href="#HelveticaNowMicro-Regular-58" transform="translate(480.40625 0)"/>
      <use xlink:href="#HelveticaNowMicro-Regular-47" transform="translate(548 0)"/>
      <use xlink:href="#HelveticaNowMicro-Regular-48" transform="translate(618.203125 0)"/>
      <use xlink:href="#HelveticaNowMicro-Regular-51" transform="translate(685.90625 0)"/>
      <use xlink:href="#HelveticaNowMicro-Regular-57" transform="translate(753.5 0)"/>
      <use xlink:href="#HelveticaNowMicro-Regular-56" transform="translate(803.5 0)"/>
      <use xlink:href="#HelveticaNowMicro-Regular-3" transform="translate(867 0)"/>
      <use xlink:href="#HelveticaNowMicro-Regular-55" transform="translate(899 0)"/>
      <use xlink:href="#HelveticaNowMicro-Regular-48" transform="translate(944.5 0)"/>
      <use xlink:href="#HelveticaNowMicro-Regular-44" transform="translate(1012.203125 0)"/>
      <use xlink:href="#HelveticaNowMicro-Regular-47" transform="translate(1079.703125 0)"/>
      <use xlink:href="#HelveticaNowMicro-Regular-4c" transform="translate(1149.90625 0)"/>
      <use xlink:href="#HelveticaNowMicro-Regular-51" transform="translate(1181.203125 0)"/>
      <use xlink:href="#HelveticaNowMicro-Regular-4a" transform="translate(1248.796875 0)"/>
      <use xlink:href="#HelveticaNowMicro-Regular-3" transform="translate(1318.203125 0)"/>
      <use xlink:href="#HelveticaNowMicro-Regular-49" transform="translate(1350.203125 0)"/>
      <use xlink:href="#HelveticaNowMicro-Regular-52" transform="translate(1396.5 0)"/>
      <use xlink:href="#HelveticaNowMicro-Regular-55" transform="translate(1466.296875 0)"/>
      <use xlink:href="#HelveticaNowMicro-Regular-3" transform="translate(1511.796875 0)"/>
      <use xlink:href="#HelveticaNowMicro-Regular-49" transform="translate(1543.796875 0)"/>
      <use xlink:href="#HelveticaNowMicro-Regular-58" transform="translate(1592 0)"/>
      <use xlink:href="#HelveticaNowMicro-Regular-51" transform="translate(1659.59375 0)"/>
      <use xlink:href="#HelveticaNowMicro-Regular-3" transform="translate(1727.1875 0)"/>
      <use xlink:href="#HelveticaNowMicro-Regular-5a" transform="translate(1759.1875 0)"/>
      <use xlink:href="#HelveticaNowMicro-Regular-48" transform="translate(1849.484375 0)"/>
      <use xlink:href="#HelveticaNowMicro-Regular-48" transform="translate(1917.1875 0)"/>
      <use xlink:href="#HelveticaNowMicro-Regular-4e" transform="translate(1984.890625 0)"/>
      <use xlink:href="#HelveticaNowMicro-Regular-4f" transform="translate(2049.59375 0)"/>
      <use xlink:href="#HelveticaNowMicro-Regular-5c" transform="translate(2080.890625 0)"/>
      <use xlink:href="#HelveticaNowMicro-Regular-3" transform="translate(2141.59375 0)"/>
      <use xlink:href="#HelveticaNowMicro-Regular-52" transform="translate(2173.59375 0)"/>
      <use xlink:href="#HelveticaNowMicro-Regular-55" transform="translate(2243.390625 0)"/>
      <use xlink:href="#HelveticaNowMicro-Regular-3" transform="translate(2288.890625 0)"/>
      <use xlink:href="#HelveticaNowMicro-Regular-50" transform="translate(2320.890625 0)"/>
      <use xlink:href="#HelveticaNowMicro-Regular-52" transform="translate(2424.796875 0)"/>
      <use xlink:href="#HelveticaNowMicro-Regular-55" transform="translate(2494.59375 0)"/>
      <use xlink:href="#HelveticaNowMicro-Regular-48" transform="translate(2540.09375 0)"/>
      <use xlink:href="#HelveticaNowMicro-Regular-3" transform="translate(2607.796875 0)"/>
      <use xlink:href="#HelveticaNowMicro-Regular-52" transform="translate(2639.796875 0)"/>
      <use xlink:href="#HelveticaNowMicro-Regular-49" transform="translate(2709.59375 0)"/>
      <use xlink:href="#HelveticaNowMicro-Regular-57" transform="translate(2757.796875 0)"/>
      <use xlink:href="#HelveticaNowMicro-Regular-48" transform="translate(2806.296875 0)"/>
      <use xlink:href="#HelveticaNowMicro-Regular-51" transform="translate(2874 0)"/>
     </g>
    </g>
   </g>
   <g id="line2d_14">
    <path d="M 72 218.16 
L 518.4 218.16 
" clip-path="url(#pdff9bc3042)" style="fill: none; stroke-dasharray: 3.7,1.6; stroke-dashoffset: 0; stroke: #808080"/>
   </g>
   <g id="line2d_15">
    <path d="M 88.533333 115.0416 
L 128.856517 118.368 
L 149.031909 121.6944 
L 169.179701 105.0624 
L 189.355093 108.3888 
L 209.502885 115.0416 
L 239.752172 118.368 
L 290.149252 118.368 
L 330.472436 148.3056 
L 370.79562 131.6736 
L 451.441987 161.6112 
L 471.617379 171.5904 
L 501.866667 181.5696 
" clip-path="url(#pdff9bc3042)" style="fill: none; stroke: #000000; stroke-width: 1.5; stroke-linecap: square"/>
    <defs>
     <path id="m3376ef4a74" d="M 0 3 
C 0.795609 3 1.55874 2.683901 2.12132 2.12132 
C 2.683901 1.55874 3 0.795609 3 0 
C 3 -0.795609 2.683901 -1.55874 2.12132 -2.12132 
C 1.55874 -2.683901 0.795609 -3 0 -3 
C -0.795609 -3 -1.55874 -2.683901 -2.12132 -2.12132 
C -2.683901 -1.55874 -3 -0.795609 -3 0 
C -3 0.795609 -2.683901 1.55874 -2.12132 2.12132 
C -1.55874 2.683901 -0.795609 3 0 3 
z
" style="stroke: #000000"/>
    </defs>
    <g clip-path="url(#pdff9bc3042)">
     <use xlink:href="#m3376ef4a74" x="88.533333" y="115.0416" style="stroke: #000000"/>
     <use xlink:href="#m3376ef4a74" x="128.856517" y="118.368" style="stroke: #000000"/>
     <use xlink:href="#m3376ef4a74" x="149.031909" y="121.6944" style="stroke: #000000"/>
     <use xlink:href="#m3376ef4a74" x="169.179701" y="105.0624" style="stroke: #000000"/>
     <use xlink:href="#m3376ef4a74" x="189.355093" y="108.3888" style="stroke: #000000"/>
     <use xlink:href="#m3376ef4a74" x="209.502885" y="115.0416" style="stroke: #000000"/>
     <use xlink:href="#m3376ef4a74" x="239.752172" y="118.368" style="stroke: #000000"/>
     <use xlink:href="#m3376ef4a74" x="290.149252" y="118.368" style="stroke: #000000"/>
     <use xlink:href="#m3376ef4a74" x="330.472436" y="148.3056" style="stroke: #000000"/>
     <use xlink:href="#m3376ef4a74" x="370.79562" y="131.6736" style="stroke: #000000"/>
     <use xlink:href="#m3376ef4a74" x="451.441987" y="161.6112" style="stroke: #000000"/>
     <use xlink:href="#m3376ef4a74" x="471.617379" y="171.5904" style="stroke: #000000"/>
     <use xlink:href="#m3376ef4a74" x="501.866667" y="181.5696" style="stroke: #000000"/>
    </g>
   </g>
   <g id="line2d_16">
    <path d="M 88.533333 151.632 
L 128.856517 161.6112 
L 149.031909 161.6112 
L 169.179701 154.9584 
L 189.355093 171.5904 
L 209.502885 174.9168 
L 239.752172 171.5904 
L 290.149252 171.5904 
L 330.472436 214.8336 
L 370.79562 208.1808 
L 451.441987 251.424 
L 501.866667 268.056 
" clip-path="url(#pdff9bc3042)" style="fill: none; stroke: #e69f00; stroke-width: 1.5; stroke-linecap: square"/>
    <defs>
     <path id="m83db6c742b" d="M -3 3 
L 3 3 
L 3 -3 
L -3 -3 
z
" style="stroke: #e69f00; stroke-linejoin: miter"/>
    </defs>
    <g clip-path="url(#pdff9bc3042)">
     <use xlink:href="#m83db6c742b" x="88.533333" y="151.632" style="fill: #e69f00; stroke: #e69f00; stroke-linejoin: miter"/>
     <use xlink:href="#m83db6c742b" x="128.856517" y="161.6112" style="fill: #e69f00; stroke: #e69f00; stroke-linejoin: miter"/>
     <use xlink:href="#m83db6c742b" x="149.031909" y="161.6112" style="fill: #e69f00; stroke: #e69f00; stroke-linejoin: miter"/>
     <use xlink:href="#m83db6c742b" x="169.179701" y="154.9584" style="fill: #e69f00; stroke: #e69f00; stroke-linejoin: miter"/>
     <use xlink:href="#m83db6c742b" x="189.355093" y="171.5904" style="fill: #e69f00; stroke: #e69f00; stroke-linejoin: miter"/>
     <use xlink:href="#m83db6c742b" x="209.502885" y="174.9168" style="fill: #e69f00; stroke: #e69f00; stroke-linejoin: miter"/>
     <use xlink:href="#m83db6c742b" x="239.752172" y="171.5904" style="fill: #e69f00; stroke: #e69f00; stroke-linejoin: miter"/>
     <use xlink:href="#m83db6c742b" x="290.149252" y="171.5904" style="fill: #e69f00; stroke: #e69f00; stroke-linejoin: miter"/>
     <use xlink:href="#m83db6c742b" x="330.472436" y="214.8336" style="fill: #e69f00; stroke: #e69f00; stroke-linejoin: miter"/>
     <use xlink:href="#m83db6c742b" x="370.79562" y="208.1808" style="fill: #e69f00; stroke: #e69f00; stroke-linejoin: miter"/>
     <use xlink:href="#m83db6c742b" x="451.441987" y="251.424" style="fill: #e69f00; stroke: #e69f00; stroke-linejoin: miter"/>
     <use xlink:href="#m83db6c742b" x="501.866667" y="268.056" style="fill: #e69f00; stroke: #e69f00; stroke-linejoin: miter"/>
    </g>
   </g>
   <g id="line2d_17">
    <path d="M 88.533333 171.5904 
L 128.856517 184.896 
L 149.031909 178.2432 
L 169.179701 184.896 
L 189.355093 181.5696 
L 209.502885 201.528 
L 239.752172 208.1808 
L 290.149252 211.5072 
L 330.472436 244.7712 
L 370.79562 251.424 
" clip-path="url(#pdff9bc3042)" style="fill: none; stroke: #56b4e9; stroke-width: 1.5; stroke-linecap: square"/>
    <defs>
     <path id="m555b68c87e" d="M -0 4.242641 
L 4.242641 0 
L 0 -4.242641 
L -4.242641 -0 
z
" style="stroke: #56b4e9; stroke-linejoin: miter"/>
    </defs>
    <g clip-path="url(#pdff9bc3042)">
     <use xlink:href="#m555b68c87e" x="88.533333" y="171.5904" style="fill: #56b4e9; stroke: #56b4e9; stroke-linejoin: miter"/>
     <use xlink:href="#m555b68c87e" x="128.856517" y="184.896" style="fill: #56b4e9; stroke: #56b4e9; stroke-linejoin: miter"/>
     <use xlink:href="#m555b68c87e" x="149.031909" y="178.2432" style="fill: #56b4e9; stroke: #56b4e9; stroke-linejoin: miter"/>
     <use xlink:href="#m555b68c87e" x="169.179701" y="184.896" style="fill: #56b4e9; stroke: #56b4e9; stroke-linejoin: miter"/>
     <use xlink:href="#m555b68c87e" x="189.355093" y="181.5696" style="fill: #56b4e9; stroke: #56b4e9; stroke-linejoin: miter"/>
     <use xlink:href="#m555b68c87e" x="209.502885" y="201.528" style="fill: #56b4e9; stroke: #56b4e9; stroke-linejoin: miter"/>
     <use xlink:href="#m555b68c87e" x="239.752172" y="208.1808" style="fill: #56b4e9; stroke: #56b4e9; stroke-linejoin: miter"/>
     <use xlink:href="#m555b68c87e" x="290.149252" y="211.5072" style="fill: #56b4e9; stroke: #56b4e9; stroke-linejoin: miter"/>
     <use xlink:href="#m555b68c87e" x="330.472436" y="244.7712" style="fill: #56b4e9; stroke: #56b4e9; stroke-linejoin: miter"/>
     <use xlink:href="#m555b68c87e" x="370.79562" y="251.424" style="fill: #56b4e9; stroke: #56b4e9; stroke-linejoin: miter"/>
    </g>
   </g>
   <g id="patch_3">
    <path d="M 72 384.48 
L 72 51.84 
" style="fill: none; stroke: #000000; stroke-width: 0.8; stroke-linejoin: miter; stroke-linecap: square"/>
   </g>
   <g id="patch_4">
    <path d="M 518.4 384.48 
L 518.4 51.84 
" style="fill: none; stroke: #000000; stroke-width: 0.8; stroke-linejoin: miter; stroke-linecap: square"/>
   </g>
   <g id="patch_5">
    <path d="M 72 384.48 
L 518.4 384.48 
" style="fill: none; stroke: #000000; stroke-width: 0.8; stroke-linejoin: miter; stroke-linecap: square"/>
   </g>
   <g id="patch_6">
    <path d="M 72 51.84 
L 518.4 51.84 
" style="fill: none; stroke: #000000; stroke-width: 0.8; stroke-linejoin: miter; stroke-linecap: square"/>
   </g>
   <g id="legend_1">
    <g id="text_16">
     <!-- Age -->
     <g transform="translate(478.264844 69.59) scale(0.1 -0.1)">
      <defs>
       <path id="HelveticaNowMicro-Regular-24" d="M 3610 1261 
L 1306 1261 
L 858 0 
L 186 0 
L 1984 4915 
L 2906 4915 
L 4762 0 
L 4064 0 
L 3610 1261 
z
M 3418 1805 
L 2547 4230 
L 2458 4538 
L 2368 4230 
L 1504 1805 
L 3418 1805 
z
" transform="scale(0.015625)"/>
      </defs>
      <use xlink:href="#HelveticaNowMicro-Regular-24"/>
      <use xlink:href="#HelveticaNowMicro-Regular-4a" transform="translate(77.296875 0)"/>
      <use xlink:href="#HelveticaNowMicro-Regular-48" transform="translate(146.703125 0)"/>
     </g>
    </g>
    <g id="line2d_18">
     <path d="M 468.570312 81.980625 
L 478.570312 81.980625 
L 488.570312 81.980625 
" style="fill: none; stroke: #000000; stroke-width: 1.5; stroke-linecap: square"/>
     <g>
      <use xlink:href="#m3376ef4a74" x="478.570312" y="81.980625" style="stroke: #000000"/>
     </g>
    </g>
    <g id="text_17">
     <!-- 9 -->
     <g transform="translate(496.570312 85.480625) scale(0.1 -0.1)">
      <use xlink:href="#HelveticaNowMicro-Regular-1c"/>
     </g>
    </g>
    <g id="line2d_19">
     <path d="M 468.570312 96.980625 
L 478.570312 96.980625 
L 488.570312 96.980625 
" style="fill: none; stroke: #e69f00; stroke-width: 1.5; stroke-linecap: square"/>
     <g>
      <use xlink:href="#m83db6c742b" x="478.570312" y="96.980625" style="fill: #e69f00; stroke: #e69f00; stroke-linejoin: miter"/>
     </g>
    </g>
    <g id="text_18">
     <!-- 13 -->
     <g transform="translate(496.570312 100.480625) scale(0.1 -0.1)">
      <defs>
       <path id="HelveticaNowMicro-Regular-16" d="M 2400 -90 
Q 1619 -90 1158 300 
Q 698 691 627 1440 
L 1286 1498 
Q 1389 467 2426 467 
Q 2995 467 3260 732 
Q 3526 998 3526 1402 
Q 3526 1850 3244 2093 
Q 2963 2336 2438 2336 
L 1978 2336 
L 1978 2880 
L 2432 2880 
Q 2874 2880 3114 3097 
Q 3354 3315 3354 3680 
Q 3354 4083 3085 4281 
Q 2816 4480 2374 4480 
Q 1869 4480 1609 4230 
Q 1350 3981 1286 3546 
L 659 3610 
Q 742 4288 1171 4659 
Q 1600 5030 2374 5030 
Q 2758 5030 3059 4937 
Q 3360 4845 3568 4675 
Q 3776 4506 3885 4266 
Q 3994 4026 3994 3738 
Q 3994 3347 3808 3081 
Q 3622 2816 3200 2662 
L 3200 2650 
Q 3718 2534 3948 2208 
Q 4179 1882 4179 1408 
Q 4179 1056 4051 777 
Q 3923 499 3689 307 
Q 3456 115 3126 12 
Q 2797 -90 2400 -90 
z
" transform="scale(0.015625)"/>
      </defs>
      <use xlink:href="#HelveticaNowMicro-Regular-14"/>
      <use xlink:href="#HelveticaNowMicro-Regular-16" transform="translate(53.203125 0)"/>
     </g>
    </g>
    <g id="line2d_20">
     <path d="M 468.570312 111.980625 
L 478.570312 111.980625 
L 488.570312 111.980625 
" style="fill: none; stroke: #56b4e9; stroke-width: 1.5; stroke-linecap: square"/>
     <g>
      <use xlink:href="#m555b68c87e" x="478.570312" y="111.980625" style="fill: #56b4e9; stroke: #56b4e9; stroke-linejoin: miter"/>
     </g>
    </g>
    <g id="text_19">
     <!-- 17 -->
     <g transform="translate(496.570312 115.480625) scale(0.1 -0.1)">
      <defs>
       <path id="HelveticaNowMicro-Regular-1a" d="M 1498 0 
Q 1677 1312 2157 2387 
Q 2637 3462 3334 4294 
L 627 4294 
L 627 4915 
L 4186 4915 
L 4186 4435 
Q 3283 3533 2793 2425 
Q 2304 1318 2170 0 
L 1498 0 
z
" transform="scale(0.015625)"/>
      </defs>
      <use xlink:href="#HelveticaNowMicro-Regular-14"/>
      <use xlink:href="#HelveticaNowMicro-Regular-1a" transform="translate(45.5 0)"/>
     </g>
    </g>
   </g>
  </g>
 </g>
 <defs>
  <clipPath id="pdff9bc3042">
   <rect x="72" y="51.84" width="446.4" height="332.64"/>
  </clipPath>
 </defs>
</svg>
